<?xml version="1.0" standalone="no"?>
<!DOCTYPE svg PUBLIC "-//W3C//DTD SVG 20010904//EN"
 "http://www.w3.org/TR/2001/REC-SVG-20010904/DTD/svg10.dtd">
<svg version="1.0" xmlns="http://www.w3.org/2000/svg"
 width="326.000000pt" height="326.000000pt" viewBox="0 0 326.000000 326.000000"
 preserveAspectRatio="xMidYMid meet">
<metadata>
Created by potrace 1.14, written by Peter Selinger 2001-2017
</metadata>
<g transform="translate(0.000000,326.000000) scale(0.100000,-0.100000)"
fill="#000000" stroke="none">
<path d="M1180 2524 l-434 -436 193 -381 c107 -210 238 -467 291 -572 53 -104
162 -317 240 -472 79 -156 147 -283 150 -283 4 0 78 141 165 313 87 171 193
380 235 462 42 83 166 326 275 542 l199 392 -436 435 c-239 240 -437 436 -439
436 -2 -1 -200 -197 -439 -436z"/>
</g>
</svg>
