<?xml version="1.0" encoding="UTF-8" standalone="no"?><!DOCTYPE svg PUBLIC "-//W3C//DTD SVG 1.1//EN" "http://www.w3.org/Graphics/SVG/1.1/DTD/svg11.dtd"><svg width="100%" height="100%" viewBox="0 0 2013 1442" version="1.1" xmlns="http://www.w3.org/2000/svg" xmlns:xlink="http://www.w3.org/1999/xlink" xml:space="preserve" xmlns:serif="http://www.serif.com/" style="fill-rule:evenodd;clip-rule:evenodd;stroke-linecap:round;stroke-miterlimit:1;"><rect id="Artboard1" x="0" y="-0" width="2012.93" height="1441.85" style="fill:none;"/><clipPath id="_clip1"><rect x="0" y="-0" width="2012.93" height="1441.85"/></clipPath><g clip-path="url(#_clip1)"><path d="M23.544,1292.01l-0,97.214c-0,-0 20.112,18.99 85.066,18.99l756.015,0" style="fill:none;stroke:#f2f2f2;stroke-width:8.33px;"/><path d="M23.544,1239.62l-14.949,-711.997" style="fill:none;stroke:#f2f2f2;stroke-width:8.33px;"/><path d="M1992.31,1236.74l8.44,-718.359" style="fill:none;stroke:#f2f2f2;stroke-width:8.33px;"/><path d="M1992.49,1283.41l-0,98.18c-0,0 -7.049,26.621 -65.83,26.621l-773.394,0" style="fill:none;stroke:#f2f2f2;stroke-width:8.33px;"/><ellipse cx="1323.95" cy="74.166" rx="63.252" ry="7.032" style="fill:none;stroke:#f2f2f2;stroke-width:8.33px;"/><path d="M1228.75,536.647l-75.347,-33.718l-90.386,-20.499l887.412,-0c35.319,-0 54.699,-14.36 54.699,-14.36l-0,54.218c-0,-0 -19.38,14.359 -54.699,14.359l-721.679,0Zm1.779,-8.333l719.9,-0c23.912,-0 39.821,-7.076 46.365,-10.674c0,0 0,-35.723 -0,-35.723c-10.074,4.261 -25.713,8.846 -46.365,8.846l-812.992,0l18.615,4.222l74.477,33.329Z" style="fill:#f2f2f2;"/><path d="M1332.81,1297.77l26.957,-28.038l21.547,-26.179l560.643,-0c35.319,-0 54.699,-14.359 54.699,-14.359l-0,54.217c-0,0 -19.38,14.359 -54.699,14.359l-609.147,0Zm19.572,-8.333l589.575,0c23.912,0 39.821,-7.075 46.365,-10.673c0,-0 0,-35.724 -0,-35.723c-10.074,4.26 -25.713,8.845 -46.365,8.845l-556.709,0l-19.251,23.39l-13.615,14.161Z" style="fill:#f2f2f2;"/><path d="M780.897,540.814l-721.679,-0c-35.32,-0 -54.699,-10.193 -54.699,-10.193l-0,-54.217c-0,-0 19.379,10.192 54.699,10.192l887.411,0l-90.386,20.5l-75.346,33.718Zm-1.78,-8.333l74.477,-33.329l18.615,-4.222l-812.991,-0c-20.854,-0 -36.51,-3.385 -46.366,-6.425c-0,0 -0,36.614 0.001,36.615c7.223,2.699 23.07,7.361 46.365,7.361l719.899,-0Z" style="fill:#f2f2f2;"/><path d="M683.728,1302.2l-609.652,0c-35.32,0 -54.699,-10.192 -54.699,-10.192l-0,-54.218c-0,0 19.379,10.193 54.699,10.193l561.424,-0l30.033,35.691l18.195,18.526Zm-19.865,-8.333l-4.5,-4.582l-27.742,-32.969l-557.545,0c-20.854,0 -36.509,-3.384 -46.366,-6.425c0,0 0,36.615 0.001,36.615c7.223,2.699 23.07,7.361 46.365,7.361l589.787,-0Z" style="fill:#f2f2f2;"/><path d="M516.028,486.596l0,-35.058l-392.823,-0l-118.686,-9.007l5.08,-333.074" style="fill:none;stroke:#f2f2f2;stroke-width:8.33px;stroke-miterlimit:100;"/><path d="M2000.72,476.404l0.549,-366.947" style="fill:none;stroke:#f2f2f2;stroke-width:8.33px;stroke-miterlimit:100;"/><path d="M1582.11,62.949l-84.711,-0" style="fill:none;stroke:#f2f2f2;stroke-width:8.33px;stroke-miterlimit:100;"/><path d="M1427.57,62.949l-207.235,-0" style="fill:none;stroke:#f2f2f2;stroke-width:8.33px;stroke-miterlimit:100;"/><path d="M1425.98,10.043l0.979,44.917l10.904,36.034l-0,-44.023l-11.883,-36.928Z" style="fill:none;stroke:#f2f2f2;stroke-width:8.33px;"/><path d="M1169.35,62.949l-1106.48,-0c-8.036,-0 -15.697,3.4 -21.088,9.36c-9.033,9.987 -23.121,25.562 -31.139,34.427c-1.075,1.189 -1.349,2.9 -0.699,4.365c0.651,1.466 2.104,2.41 3.707,2.41c140.647,0 1859.66,0 1984.34,0c1.28,0 2.444,-0.745 2.979,-1.909c0.535,-1.164 0.343,-2.532 -0.491,-3.504c-7.52,-8.766 -22.422,-26.135 -31.391,-36.589c-4.662,-5.434 -11.464,-8.56 -18.623,-8.56c-25.083,-0 -83.291,-0 -83.291,-0" style="fill:none;stroke:#f2f2f2;stroke-width:8.33px;stroke-miterlimit:100;"/><rect x="1172.59" y="46.971" width="54.696" height="44.023" style="fill:#f2f2f2;"/><path d="M1227.28,46.971l0,44.023l-54.695,0l-0,-44.023l54.695,0Zm-8.333,8.333c-0,0 -38.029,0 -38.029,0l0,27.357c0,-0 38.029,-0 38.029,-0l-0,-27.357Z" style="fill:#f2f2f2;"/><path d="M1582.11,46.971c-0,-8.818 63.868,-15.978 142.536,-15.978c78.668,0 142.536,7.16 142.536,15.978c0,8.818 -63.868,15.978 -142.536,15.978c-78.668,-0 -142.536,-7.16 -142.536,-15.978Z" style="fill:#f2f2f2;"/><path d="M1582.11,46.971c-0,-8.818 63.868,-15.978 142.536,-15.978c78.668,0 142.536,7.16 142.536,15.978c0,8.818 -63.868,15.978 -142.536,15.978c-78.668,-0 -142.536,-7.16 -142.536,-15.978Zm21.679,0c24.521,4.61 69.492,7.645 120.857,7.645c51.366,-0 96.336,-3.035 120.857,-7.645c-24.521,-4.609 -69.491,-7.644 -120.857,-7.644c-51.365,-0 -96.336,3.035 -120.857,7.644Z" style="fill:#f2f2f2;"/><path d="M1867.18,46.971l0,31.956c0,8.818 -63.868,15.977 -142.536,15.977c-78.668,0 -142.536,-7.159 -142.536,-15.977l-0,-31.956c-0,8.818 63.868,15.978 142.536,15.978c78.668,-0 142.536,-7.16 142.536,-15.978Zm-8.333,14.062c-21.908,5.911 -73.765,10.249 -134.203,10.249c-60.438,0 -112.294,-4.338 -134.203,-10.249l0,14.281c2.099,0.774 5.774,2.035 9.347,2.807c23.402,5.058 70.556,8.45 124.856,8.45c54.3,0 101.454,-3.392 124.856,-8.45c3.573,-0.772 7.248,-2.033 9.347,-2.807l0,-14.281Z" style="fill:#f2f2f2;"/><path d="M1477.54,953.59c0.02,1.78 0.029,3.562 0.029,5.346c0,258.978 -210.257,469.235 -469.235,469.235c-258.978,0 -469.235,-210.257 -469.235,-469.235c0,-1.784 0.01,-3.566 0.03,-5.346c2.87,-256.519 212.012,-463.889 469.205,-463.889c257.194,-0 466.336,207.37 469.206,463.889Z" style="fill:none;stroke:#f2f2f2;stroke-width:16.67px;stroke-miterlimit:100;"/><path d="M539.128,953.59c-0.02,-1.821 -0.03,-3.644 -0.03,-5.469c0,-264.947 210.257,-480.051 469.235,-480.051c258.978,0 469.235,215.104 469.235,480.051c0,1.825 -0.009,3.648 -0.029,5.469c-2.87,-256.519 -212.012,-463.889 -469.206,-463.889c-257.193,-0 -466.335,207.37 -469.205,463.889Z" style="fill:#f2f2f2;"/><path d="M1656,184.557l-0,209.701l-315.881,-0l-0,-209.701l315.881,-0Zm-6.25,6.25l-303.381,-0l-0,197.201l303.381,-0l-0,-197.201Z" style="fill:#f2f2f2;"/><g transform="matrix(39.9833,0,0,39.9833,1257.15,452.432)"></g><text x="1174.7px" y="452.432px" style="font-family:'Arial-BoldMT', 'Arial', sans-serif;font-weight:700;font-size:39.983px;fill:#f2f2f2;">C<tspan x="1204.82px 1230.48px " y="452.432px 452.432px ">dS</tspan></text><path d="M1149.76,241.15l-24.881,-37.345" style="fill:none;stroke:#f2f2f2;stroke-width:6.25px;stroke-linecap:square;stroke-miterlimit:100;"/><path d="M1272.19,241.15l27.927,-37.345" style="fill:none;stroke:#f2f2f2;stroke-width:6.25px;stroke-linecap:square;stroke-miterlimit:100;"/><path d="M1300.12,476.058l-27.927,-120.512" style="fill:none;stroke:#f2f2f2;stroke-width:6.25px;stroke-linecap:square;stroke-miterlimit:100;"/><path d="M1124.88,476.058l24.881,-120.512" style="fill:none;stroke:#f2f2f2;stroke-width:6.25px;stroke-linecap:square;stroke-miterlimit:100;"/><path d="M1118.44,395.043l-302.192,-0l-0,-213.534l302.192,0l0,213.534Zm-6.25,-207.284l-289.692,0l-0,201.034l289.692,-0l0,-201.034Z" style="fill:#f2f2f2;"/><path d="M346.851,711.695l180.571,-0l-6.855,12.372c0,-0 -67.332,122.185 -53.932,355.953l0.505,8.811l-104.701,-0l-15.588,-377.136Zm23.584,368.802l87.88,0c-13.571,-236.767 54.963,-360.469 54.963,-360.469l-157.742,0l14.899,360.469Z" style="fill:#f2f2f2;"/><path d="M392.284,756.957l-0,286.494" style="fill:none;stroke:#f2f2f2;stroke-width:18.75px;stroke-miterlimit:1.5;"/><path d="M438.528,756.957l-0,286.494" style="fill:none;stroke:#f2f2f2;stroke-width:18.75px;stroke-miterlimit:1.5;"/><circle cx="1013.18" cy="979.808" r="126.612" style="fill:none;stroke:#f2f2f2;stroke-width:4.17px;stroke-linejoin:round;stroke-miterlimit:1.5;"/><ellipse cx="1010.86" cy="1006.41" rx="240.42" ry="236.517" style="fill:none;stroke:#f2f2f2;stroke-width:8.33px;stroke-linejoin:round;stroke-miterlimit:1.5;"/><ellipse cx="1011.48" cy="1005.8" rx="261.839" ry="257.589" style="fill:none;stroke:#f2f2f2;stroke-width:4.17px;stroke-linejoin:round;stroke-miterlimit:1.5;"/><ellipse cx="1011.48" cy="1001.64" rx="272.49" ry="268.067" style="fill:none;stroke:#f2f2f2;stroke-width:4.17px;stroke-linejoin:round;stroke-miterlimit:1.5;"/><path d="M629.552,1014.06l-16.589,-10.348l16.718,-9.487l-16.024,-11.201l17.191,-8.599l-15.416,-12.024l17.618,-7.688l-14.766,-12.814l17.996,-6.755l-14.075,-13.57l18.326,-5.804l-13.346,-14.288l18.604,-4.837l-12.58,-14.967l18.832,-3.856l-11.779,-15.605l19.007,-2.866l-10.946,-16.2l19.132,-1.867l-10.084,-16.75l19.203,-0.863l-9.193,-17.256l19.222,0.144l-8.277,-17.713l19.188,1.149l-7.339,-18.122l19.102,2.152l-6.381,-18.481l18.963,3.148l-5.404,-18.79l18.772,4.137l-4.414,-19.047l18.53,5.113l-3.411,-19.251l18.237,6.076l-2.398,-19.404l17.862,7.01c0.009,-0.008 0.019,-0.015 0.029,-0.023l-1.377,-19.467l17.343,7.877c0.052,-0.036 0.103,-0.071 0.155,-0.107l-0.354,-19.37l16.778,8.707c0.099,-0.06 0.197,-0.12 0.295,-0.181l0.656,-19.211l16.171,9.498c0.149,-0.081 0.297,-0.161 0.445,-0.242l1.647,-19l15.531,10.251c0.199,-0.095 0.399,-0.19 0.599,-0.285l2.618,-18.74l14.86,10.966c0.251,-0.104 0.502,-0.207 0.753,-0.311l3.568,-18.436l14.166,11.646c0.3,-0.106 0.6,-0.212 0.901,-0.318l4.496,-18.095l13.449,12.292c0.346,-0.103 0.692,-0.205 1.039,-0.306l5.402,-17.719l12.713,12.903c0.388,-0.093 0.776,-0.185 1.165,-0.277l6.284,-17.311l11.959,13.482c0.425,-0.078 0.85,-0.156 1.276,-0.233l7.146,-16.872l11.185,14.025c0.458,-0.059 0.916,-0.118 1.374,-0.176l7.983,-16.4l10.391,14.529c0.488,-0.038 0.976,-0.074 1.464,-0.11l8.792,-15.892l9.575,14.988c0.517,-0.013 1.034,-0.025 1.551,-0.036l9.57,-15.342l8.733,15.39c0.55,0.015 1.1,0.03 1.649,0.047l10.306,-14.744l7.871,15.737c0.585,0.046 1.169,0.093 1.752,0.141l11,-14.103l6.997,16.034c0.617,0.082 1.234,0.164 1.85,0.248l11.656,-13.429l6.114,16.289c0.645,0.12 1.29,0.242 1.935,0.365l12.276,-12.733l5.228,16.509c0.667,0.161 1.333,0.323 1.998,0.487l12.865,-12.016l4.341,16.696c0.68,0.202 1.359,0.406 2.037,0.612l13.426,-11.284l3.451,16.851c0.685,0.244 1.369,0.49 2.052,0.737l13.958,-10.536l2.559,16.973c0.683,0.285 1.365,0.572 2.045,0.86l14.462,-9.771l1.665,17.061c0.674,0.324 1.346,0.649 2.018,0.977l14.934,-8.99l0.769,17.112c0.66,0.361 1.319,0.724 1.976,1.088l15.374,-8.19l-0.128,17.122c0.642,0.397 1.282,0.795 1.922,1.195l15.775,-7.372l-1.023,17.088c0.621,0.43 1.241,0.862 1.86,1.296l16.136,-6.535l-1.915,17.006c0.599,0.463 1.197,0.928 1.793,1.395l16.452,-5.68l-2.802,16.874c0.577,0.496 1.152,0.993 1.726,1.493l16.717,-4.809l-3.678,16.691c0.554,0.528 1.107,1.059 1.658,1.591l16.93,-3.923l-4.54,16.453c0.531,0.563 1.061,1.127 1.589,1.693l17.089,-3.027l-5.385,16.164c0.509,0.598 1.016,1.198 1.521,1.799l17.192,-2.125l-6.21,15.825c0.486,0.634 0.969,1.271 1.451,1.909l17.24,-1.22l-7.011,15.437c0.461,0.673 0.919,1.347 1.376,2.023l17.234,-0.315l-7.787,15.004c0.435,0.711 0.868,1.424 1.298,2.138l17.175,0.586l-8.535,14.531c0.406,0.75 0.81,1.501 1.211,2.253l17.067,1.479l-9.254,14.022c0.374,0.786 0.745,1.574 1.114,2.363l16.915,2.363l-9.947,13.478c0.339,0.822 0.675,1.644 1.009,2.468l16.719,3.236l-10.611,12.905c0.301,0.852 0.599,1.706 0.894,2.562l16.483,4.095l-11.246,12.305c0.26,0.88 0.516,1.761 0.769,2.644l16.211,4.941l-11.853,11.678c0.215,0.902 0.427,1.807 0.636,2.712l15.901,5.773l-12.428,11.024c0.168,0.922 0.334,1.845 0.496,2.769l15.555,6.587l-12.971,10.345c0.122,0.937 0.24,1.875 0.354,2.814l15.169,7.383l-13.475,9.637c0.073,0.952 0.143,1.904 0.21,2.857l14.737,8.153l-13.93,8.9c0.024,0.967 0.045,1.935 0.063,2.903l14.258,8.893l-14.328,8.131c-0.026,0.989 -0.056,1.978 -0.089,2.965l13.723,9.593l-14.665,7.335c-0.079,1.014 -0.162,2.028 -0.249,3.04l13.139,10.248l-14.95,6.523c-0.136,1.04 -0.275,2.079 -0.419,3.116l12.517,10.863l-15.188,5.701c-0.196,1.063 -0.396,2.124 -0.6,3.184l11.866,11.44l-15.385,4.873c-0.258,1.08 -0.52,2.159 -0.787,3.236l11.193,11.983l-15.544,4.041c-0.322,1.092 -0.649,2.182 -0.981,3.269l10.5,12.494l-15.666,3.208c-0.387,1.096 -0.78,2.191 -1.177,3.282l9.791,12.971l-15.753,2.375c-0.453,1.094 -0.911,2.186 -1.373,3.275l9.064,13.415l-15.802,1.543c-0.518,1.086 -1.041,2.169 -1.568,3.249l8.322,13.826l-15.814,0.711c-0.582,1.072 -1.169,2.141 -1.761,3.207l7.565,14.2l-15.784,-0.117c-0.646,1.054 -1.297,2.105 -1.953,3.152l6.793,14.535l-15.713,-0.941c-0.709,1.032 -1.423,2.06 -2.142,3.085l6.005,14.829l-15.596,-1.757c-0.772,1.007 -1.549,2.01 -2.33,3.008l5.205,15.078l-15.434,-2.562c-0.835,0.978 -1.675,1.953 -2.519,2.923l4.395,15.28l-15.228,-3.355c-0.897,0.948 -1.8,1.891 -2.708,2.829l3.577,15.437l-14.975,-4.133c-0.961,0.914 -1.927,1.823 -2.898,2.727l2.754,15.544l-14.681,-4.891c-1.024,0.876 -2.053,1.748 -3.086,2.614l1.929,15.605l-14.347,-5.631c-1.086,0.836 -2.177,1.666 -3.272,2.49l1.105,15.621l-13.977,-6.348c-1.147,0.79 -2.297,1.574 -3.453,2.352l0.285,15.595l-13.575,-7.044c-1.203,0.739 -2.411,1.472 -3.623,2.198l-0.53,15.532l-13.145,-7.72c-1.256,0.683 -2.516,1.359 -3.78,2.029l-1.338,15.435l-12.692,-8.377c-1.302,0.621 -2.607,1.235 -3.917,1.842l-2.139,15.309l-12.218,-9.016c-1.34,0.554 -2.683,1.1 -4.03,1.64l-2.934,15.157l-11.726,-9.641c-1.368,0.482 -2.739,0.957 -4.113,1.424l-3.723,14.984l-11.219,-10.254c-1.384,0.407 -2.772,0.806 -4.163,1.197l-4.508,14.79l-10.694,-10.854c-1.389,0.329 -2.782,0.65 -4.177,0.964l-5.292,14.575l-10.151,-11.444c-1.383,0.25 -2.768,0.493 -4.156,0.728l-6.073,14.339l-9.587,-12.021c-1.366,0.173 -2.734,0.339 -4.104,0.497l-6.851,14.075l-8.997,-12.58c-1.341,0.098 -2.683,0.19 -4.027,0.274l-7.623,13.779l-8.378,-13.114c-1.31,0.027 -2.621,0.048 -3.934,0.062l-8.384,13.442l-7.724,-13.611c-1.281,-0.04 -2.56,-0.087 -3.837,-0.14l-9.127,13.058l-7.039,-14.072c-1.246,-0.105 -2.491,-0.216 -3.734,-0.333l-9.851,12.629l-6.328,-14.502c-1.207,-0.167 -2.412,-0.338 -3.616,-0.516l-10.558,12.166l-5.596,-14.909c-1.16,-0.223 -2.318,-0.452 -3.475,-0.685l-11.254,11.673l-4.844,-15.295c-1.105,-0.275 -2.207,-0.554 -3.308,-0.837l-11.94,11.152l-4.072,-15.661c-1.04,-0.318 -2.078,-0.641 -3.115,-0.967l-12.616,10.604l-3.279,-16.008c-0.968,-0.353 -1.934,-0.711 -2.899,-1.072l-13.284,10.027l-2.462,-16.33c-0.89,-0.38 -1.778,-0.763 -2.665,-1.149l-13.938,9.418l-1.623,-16.625c-0.807,-0.397 -1.613,-0.796 -2.417,-1.198l-14.578,8.775l-0.759,-16.888c-0.722,-0.403 -1.444,-0.809 -2.164,-1.218l-15.195,8.096l0.127,-17.111c-0.638,-0.402 -1.274,-0.806 -1.91,-1.211l-15.787,7.377l1.035,-17.288c-0.555,-0.392 -1.109,-0.786 -1.661,-1.181l-16.347,6.62l1.962,-17.416c-0.476,-0.375 -0.951,-0.751 -1.425,-1.128l-16.866,5.823l2.903,-17.488c-0.401,-0.352 -0.802,-0.705 -1.202,-1.059l-17.342,4.988l3.856,-17.5c-0.334,-0.324 -0.666,-0.649 -0.999,-0.975l-17.767,4.117l4.815,-17.45c-0.272,-0.294 -0.544,-0.588 -0.814,-0.883l-18.14,3.214l5.776,-17.337c-0.217,-0.26 -0.434,-0.521 -0.65,-0.782l-18.453,2.281l6.733,-17.16c-0.168,-0.226 -0.337,-0.452 -0.506,-0.678l-18.708,1.324l7.685,-16.921c-0.127,-0.189 -0.255,-0.379 -0.381,-0.569l-18.903,0.345l8.624,-16.62c-0.091,-0.153 -0.182,-0.306 -0.273,-0.459l-19.037,-0.649l9.55,-16.261c-0.061,-0.115 -0.121,-0.231 -0.182,-0.346l-19.112,-1.656l10.46,-15.847c-0.036,-0.076 -0.071,-0.153 -0.106,-0.229l-19.128,-2.673l11.349,-15.378c-0.014,-0.037 -0.029,-0.073 -0.043,-0.109l-19.087,-3.694l12.208,-14.848l-18.974,-4.715l12.968,-14.188l-18.702,-5.702l13.693,-13.49l-18.377,-6.672l14.38,-12.756l-18.003,-7.624l15.028,-11.986l-17.58,-8.556l15.635,-11.183l-17.108,-9.465l16.199,-10.348Zm0.53,-19.555l-0,19.885l-0.115,-0.072l0.345,6.59c-0.153,-4.441 -0.23,-8.902 -0.23,-13.381c-0,-47.601 8.717,-93.175 24.636,-135.201l-2.301,5.994l-0.082,-0.108l-6.145,18.911l-0.087,-0.104l-5.146,19.207l-0.093,-0.099l-4.134,19.45l-0.098,-0.094l-3.11,19.64l-0.103,-0.089l-2.078,19.775l-0.107,-0.083l-1.041,19.857l-0.111,-0.078Zm29.461,-134.749l-3.62,9.431c1.706,-4.387 3.491,-8.734 5.353,-13.04l-1.657,3.721l-0.076,-0.112Zm8.164,-18.053l-3.107,6.977c1.392,-3.038 2.823,-6.055 4.292,-9.049l-1.115,2.188l-0.07,-0.116Zm9.097,-17.601l-2.648,5.198c1.048,-1.982 2.113,-3.954 3.195,-5.915l-0.483,0.837l-0.064,-0.12Zm10.006,-17.101l-2.039,3.533c0.691,-1.145 1.388,-2.286 2.09,-3.423l-0.051,-0.11Zm10.887,-16.553l-1.217,1.875c0.413,-0.605 0.828,-1.208 1.244,-1.809l-0.027,-0.066Zm11.739,-15.962l-0.153,0.212c0.052,-0.068 0.104,-0.136 0.156,-0.203l-0.003,-0.009Zm-76.591,279.34l0.073,0.459c-0.019,-0.15 -0.037,-0.3 -0.055,-0.45l-0.018,-0.009Zm-1.957,-19.716l0.344,3.27c-0.082,-1.068 -0.161,-2.139 -0.235,-3.21l-0.109,-0.06Zm378.906,-397.198c-203.83,0 -369.296,166.077 -369.296,370.615c0,204.538 165.466,370.615 369.296,370.615c203.83,-0 369.296,-166.077 369.296,-370.615c0,-204.538 -165.466,-370.615 -369.296,-370.615Z" style="fill:#f2f2f2;"/><path d="M629.552,1014.06l-16.589,-10.348l16.718,-9.487l-16.024,-11.201l17.191,-8.599l-15.416,-12.024l17.618,-7.688l-14.766,-12.814l17.996,-6.755l-14.075,-13.57l18.326,-5.804l-13.346,-14.288l18.604,-4.837l-12.58,-14.967l18.832,-3.856l-11.779,-15.605l19.007,-2.866l-10.946,-16.2l19.132,-1.867l-10.084,-16.75l19.203,-0.863l-9.193,-17.256l19.222,0.144l-8.277,-17.713l19.188,1.149l-7.339,-18.122l19.102,2.152l-6.381,-18.481l18.963,3.148l-5.404,-18.79l18.772,4.137l-4.414,-19.047l18.53,5.113l-3.411,-19.251l18.237,6.076l-2.398,-19.404l17.862,7.01l0.029,-0.023l-1.377,-19.467l17.343,7.877l0.155,-0.107l-0.354,-19.37l16.778,8.707c0.099,-0.06 0.197,-0.12 0.295,-0.181l0.656,-19.211l16.171,9.498c0.149,-0.081 0.297,-0.161 0.445,-0.242l1.647,-19l15.531,10.251c0.199,-0.095 0.399,-0.19 0.599,-0.285l2.618,-18.74l14.86,10.966c0.251,-0.104 0.502,-0.207 0.753,-0.311l3.568,-18.436l14.166,11.646c0.3,-0.106 0.6,-0.212 0.901,-0.318l4.496,-18.095l13.449,12.292c0.346,-0.103 0.692,-0.205 1.039,-0.306l5.402,-17.719l12.713,12.903c0.388,-0.093 0.776,-0.185 1.165,-0.277l6.284,-17.311l11.959,13.482c0.425,-0.078 0.85,-0.156 1.276,-0.233l7.146,-16.872l11.185,14.025c0.458,-0.059 0.916,-0.118 1.374,-0.176l7.983,-16.4l10.391,14.529c0.488,-0.038 0.976,-0.074 1.464,-0.11l8.792,-15.892l9.575,14.988c0.517,-0.013 1.034,-0.025 1.551,-0.036l9.57,-15.342l8.733,15.39c0.55,0.015 1.1,0.03 1.649,0.047l10.306,-14.744l7.871,15.737c0.585,0.046 1.169,0.093 1.752,0.141l11,-14.103l6.997,16.034c0.617,0.082 1.234,0.164 1.85,0.248l11.656,-13.429l6.114,16.289c0.645,0.12 1.29,0.242 1.935,0.365l12.276,-12.733l5.228,16.509c0.667,0.161 1.333,0.323 1.998,0.487l12.865,-12.016l4.341,16.696c0.68,0.202 1.359,0.406 2.037,0.612l13.426,-11.284l3.451,16.851c0.685,0.244 1.369,0.49 2.052,0.737l13.958,-10.536l2.559,16.973c0.683,0.285 1.365,0.572 2.045,0.86l14.462,-9.771l1.665,17.061c0.674,0.324 1.346,0.649 2.018,0.977l14.934,-8.99l0.769,17.112c0.66,0.361 1.319,0.724 1.976,1.088l15.374,-8.19l-0.128,17.122c0.642,0.397 1.282,0.795 1.922,1.195l15.775,-7.372l-1.023,17.088c0.621,0.43 1.241,0.862 1.86,1.296l16.136,-6.535l-1.915,17.006c0.599,0.463 1.197,0.928 1.793,1.395l16.452,-5.68l-2.802,16.874c0.577,0.496 1.152,0.993 1.726,1.493l16.717,-4.809l-3.678,16.691c0.554,0.528 1.107,1.059 1.658,1.591l16.93,-3.923l-4.54,16.453c0.531,0.563 1.061,1.127 1.589,1.693l17.089,-3.027l-5.385,16.164c0.509,0.598 1.016,1.198 1.521,1.799l17.192,-2.125l-6.21,15.825c0.486,0.634 0.969,1.271 1.451,1.909l17.24,-1.22l-7.011,15.437c0.461,0.673 0.919,1.347 1.376,2.023l17.234,-0.315l-7.787,15.004c0.435,0.711 0.868,1.424 1.298,2.138l17.175,0.586l-8.535,14.531c0.406,0.75 0.81,1.501 1.211,2.253l17.067,1.479l-9.254,14.022c0.374,0.786 0.745,1.574 1.114,2.363l16.915,2.363l-9.947,13.478c0.339,0.822 0.675,1.644 1.009,2.468l16.719,3.236l-10.611,12.905c0.301,0.852 0.599,1.706 0.894,2.562l16.483,4.095l-11.246,12.305c0.26,0.88 0.516,1.761 0.769,2.644l16.211,4.941l-11.853,11.678c0.215,0.902 0.427,1.807 0.636,2.712l15.901,5.773l-12.428,11.024c0.168,0.922 0.334,1.845 0.496,2.769l15.555,6.587l-12.971,10.345c0.122,0.937 0.24,1.875 0.354,2.814l15.169,7.383l-13.475,9.637c0.073,0.952 0.143,1.904 0.21,2.857l14.737,8.153l-13.93,8.9c0.024,0.967 0.045,1.935 0.063,2.903l14.258,8.893l-14.328,8.131c-0.026,0.989 -0.056,1.978 -0.089,2.965l13.723,9.593l-14.665,7.335c-0.079,1.014 -0.162,2.028 -0.249,3.04l13.139,10.248l-14.95,6.523c-0.136,1.04 -0.275,2.079 -0.419,3.116l12.517,10.863l-15.188,5.701c-0.196,1.063 -0.396,2.124 -0.6,3.184l11.866,11.44l-15.385,4.873c-0.258,1.08 -0.52,2.159 -0.787,3.236l11.193,11.983l-15.544,4.041c-0.322,1.092 -0.649,2.182 -0.981,3.269l10.5,12.494l-15.666,3.208c-0.387,1.096 -0.78,2.191 -1.177,3.282l9.791,12.971l-15.753,2.375c-0.453,1.094 -0.911,2.186 -1.373,3.275l9.064,13.415l-15.802,1.543c-0.518,1.086 -1.041,2.169 -1.568,3.249l8.322,13.826l-15.814,0.711c-0.582,1.072 -1.169,2.141 -1.761,3.207l7.565,14.2l-15.784,-0.117c-0.646,1.054 -1.297,2.105 -1.953,3.152l6.793,14.535l-15.713,-0.941c-0.709,1.032 -1.423,2.06 -2.142,3.085l6.005,14.829l-15.596,-1.757c-0.772,1.007 -1.549,2.01 -2.33,3.008l5.205,15.078l-15.434,-2.562c-0.835,0.978 -1.675,1.953 -2.519,2.923l4.395,15.28l-15.228,-3.355c-0.897,0.948 -1.8,1.891 -2.708,2.829l3.577,15.437l-14.975,-4.133c-0.961,0.914 -1.927,1.823 -2.898,2.727l2.754,15.544l-14.681,-4.891c-1.024,0.876 -2.053,1.748 -3.086,2.614l1.929,15.605l-14.347,-5.631c-1.086,0.836 -2.177,1.666 -3.272,2.49l1.105,15.621l-13.977,-6.348c-1.147,0.79 -2.297,1.574 -3.453,2.352l0.285,15.595l-13.575,-7.044c-1.203,0.739 -2.411,1.472 -3.623,2.198l-0.53,15.532l-13.145,-7.72c-1.256,0.683 -2.516,1.359 -3.78,2.029l-1.338,15.435l-12.692,-8.377c-1.302,0.621 -2.607,1.235 -3.917,1.842l-2.139,15.309l-12.218,-9.016c-1.34,0.554 -2.683,1.1 -4.03,1.64l-2.934,15.157l-11.726,-9.641c-1.368,0.482 -2.739,0.957 -4.113,1.424l-3.723,14.984l-11.219,-10.254c-1.384,0.407 -2.772,0.806 -4.163,1.197l-4.508,14.79l-10.694,-10.854c-1.389,0.329 -2.782,0.65 -4.177,0.964l-5.292,14.575l-10.151,-11.444c-1.383,0.25 -2.768,0.493 -4.156,0.728l-6.073,14.339l-9.587,-12.021c-1.366,0.173 -2.734,0.339 -4.104,0.497l-6.851,14.075l-8.997,-12.58c-1.341,0.098 -2.683,0.19 -4.027,0.274l-7.623,13.779l-8.378,-13.114c-1.31,0.027 -2.621,0.048 -3.934,0.062l-8.384,13.442l-7.724,-13.611c-1.281,-0.04 -2.56,-0.087 -3.837,-0.14l-9.127,13.058l-7.039,-14.072c-1.246,-0.105 -2.491,-0.216 -3.734,-0.333l-9.851,12.629l-6.328,-14.502c-1.207,-0.167 -2.412,-0.338 -3.616,-0.516l-10.558,12.166l-5.596,-14.909c-1.16,-0.223 -2.318,-0.452 -3.475,-0.685l-11.254,11.673l-4.844,-15.295c-1.105,-0.275 -2.207,-0.554 -3.308,-0.837l-11.94,11.152l-4.072,-15.661c-1.04,-0.318 -2.078,-0.641 -3.115,-0.967l-12.616,10.604l-3.279,-16.008c-0.968,-0.353 -1.934,-0.711 -2.899,-1.072l-13.284,10.027l-2.462,-16.33c-0.89,-0.38 -1.778,-0.763 -2.665,-1.149l-13.938,9.418l-1.623,-16.625c-0.807,-0.397 -1.613,-0.796 -2.417,-1.198l-14.578,8.775l-0.759,-16.888c-0.722,-0.403 -1.444,-0.809 -2.164,-1.218l-15.195,8.096l0.127,-17.111c-0.638,-0.402 -1.274,-0.806 -1.91,-1.211l-15.787,7.377l1.035,-17.288c-0.555,-0.392 -1.109,-0.786 -1.661,-1.181l-16.347,6.62l1.962,-17.416c-0.476,-0.375 -0.951,-0.751 -1.425,-1.128l-16.866,5.823l2.903,-17.488c-0.401,-0.352 -0.802,-0.705 -1.202,-1.059l-17.342,4.988l3.856,-17.5c-0.334,-0.324 -0.666,-0.649 -0.999,-0.975l-17.767,4.117l4.815,-17.45c-0.272,-0.294 -0.544,-0.588 -0.814,-0.883l-18.14,3.214l5.776,-17.337c-0.217,-0.26 -0.434,-0.521 -0.65,-0.782l-18.453,2.281l6.733,-17.16c-0.168,-0.226 -0.337,-0.452 -0.506,-0.678l-18.708,1.324l7.685,-16.921c-0.127,-0.189 -0.255,-0.379 -0.381,-0.569l-18.903,0.345l8.624,-16.62c-0.091,-0.153 -0.182,-0.306 -0.273,-0.459l-19.037,-0.649l9.55,-16.261c-0.061,-0.115 -0.121,-0.231 -0.182,-0.346l-19.112,-1.656l10.46,-15.847l-0.106,-0.229l-19.128,-2.673l11.349,-15.378l-0.043,-0.109l-19.087,-3.694l12.208,-14.848l-18.974,-4.715l12.968,-14.188l-18.702,-5.702l13.693,-13.49l-18.377,-6.672l14.38,-12.756l-18.003,-7.624l15.028,-11.986l-17.58,-8.556l15.635,-11.183l-17.108,-9.465l16.199,-10.348Zm-3.127,-27.194l0.3,-5.719l-4.944,2.472l4.644,3.247Zm33.118,-127.11l-3.62,9.431c1.706,-4.387 3.491,-8.734 5.353,-13.04l-1.657,3.721l-0.076,-0.112Zm8.164,-18.053l-3.107,6.977c1.392,-3.038 2.823,-6.055 4.292,-9.049l-1.115,2.188l-0.07,-0.116Zm-34.862,212.123l0.073,0.459c-0.019,-0.15 -0.037,-0.3 -0.055,-0.45l-0.018,-0.009Zm-1.957,-19.716l0.344,3.27c-0.082,-1.068 -0.161,-2.139 -0.235,-3.21l-0.109,-0.06Zm55.702,-223.413l0.22,0.471c0,-0 0.091,-0.49 0.254,-1.209l-0.474,0.738Zm22.152,-32.54l0.284,0.203l-0.144,-0.284l-0.072,0.089l-0.068,-0.008Zm-31.938,45.945l-2.648,5.198c1.048,-1.982 2.113,-3.954 3.195,-5.915l-0.483,0.837l-0.064,-0.12Zm10.006,-17.101l-2.039,3.533c0.691,-1.145 1.388,-2.286 2.09,-3.423l-0.051,-0.11Zm-52.594,120.364l1.19,-5.602l-5.27,1.669l4.08,3.933Zm-6.234,39.54l0.598,-5.695l-5.066,2.21l4.468,3.485Zm69.742,-172.225l-0.797,-0.546l-11.863,-0.711l5.314,11.372l-0.017,0.026c0.075,0.119 0.15,0.258 0.225,0.419c0.431,0.921 -2.632,4.72 -3.5,5.768l3.332,-1.923l-0.178,0.309l0.166,-0.093c-0.681,1.102 -1.357,2.207 -2.027,3.316c-0.014,0.023 -0.027,0.047 -0.041,0.07l-3.343,-1.974l-10.645,-0.079l5.902,11.078l-0.016,0.027c0.081,0.116 0.164,0.251 0.247,0.407c0.407,0.764 -1.643,3.66 -2.825,5.225l3.341,-1.973c-0.017,0.031 -0.035,0.063 -0.053,0.094c-1.042,1.89 -2.067,3.79 -3.078,5.7c-0.01,0.018 -0.019,0.037 -0.029,0.056l-6.139,-3.187l-7.149,0.321l6.473,10.754l-0.014,0.028c0.088,0.111 0.177,0.242 0.268,0.393c0.133,0.221 0.054,0.637 -0.155,1.154l1.51,0.755c-0.01,0.019 -0.019,0.038 -0.029,0.057c-1.436,2.929 -2.835,5.88 -4.197,8.852l-0.019,0.04l-7.594,-3.43l0.018,-0.041l0.384,-0.862l-5.501,0.536l6.775,10.028l2.63,1.154l-0.018,0.041c-1.832,4.24 -3.589,8.52 -5.269,12.839l-0.007,0.017l-7.773,-3.004l1.237,-3.224l-5.465,0.824l4.648,6.159l6.161,2.35l-0.006,0.017c-15.741,41.562 -24.36,86.633 -24.36,133.708c0,4.406 0.075,8.794 0.225,13.163c0.001,0.025 0.002,0.05 0.003,0.075l-8.24,0.358l-4.741,3.028l10.983,6.076l0.002,0.03c0.135,0.056 0.278,0.125 0.429,0.209c0.496,0.274 0.238,1.706 -0.228,3.275l0.139,2.391l2.212,-2.458l0.032,0.305l0.09,-0.096c0.071,1.022 0.144,2.042 0.223,3.062c0.003,0.038 0.007,0.076 0.01,0.114l-2.542,0.232l-9.902,7.082l11.286,5.493l0.003,0.029c0.138,0.049 0.284,0.11 0.437,0.185c0.478,0.233 0.302,1.505 -0.088,2.965l0.109,0.992c0.943,-1.679 1.957,-2.841 2.272,-0.85l0.026,0.16l0.011,-0.013c0.012,0.096 0.022,0.192 0.034,0.288c0.007,0.053 0.014,0.105 0.021,0.157c0.443,3.505 -3.236,4.481 -4,4.645l-7.606,6.067l11.558,4.895l1.14,6.953l-9.144,8.111l11.798,4.283l1.502,6.885l-8.706,8.578l12.006,3.66l1.86,6.797l-8.246,9.021l12.182,3.027l2.213,6.69l-7.762,9.441l14.447,2.796l0.887,2.218l0.864,2.156l-8.572,11.614l14.448,2.019l0.953,2.064l0.105,0.227l0.975,2.108l-7.882,11.942l14.404,1.248l1.06,2.013c0.06,0.114 0.121,0.228 0.181,0.342l1.084,2.054l-7.181,12.227l14.316,0.488l1.164,1.957c0.09,0.151 0.18,0.303 0.27,0.454l1.19,1.994c0,-0 -6.47,12.467 -6.47,12.467l14.182,-0.259l1.264,1.895c0.126,0.188 0.251,0.376 0.377,0.563l1.292,1.929l-5.75,12.66l14,-0.99l1.362,1.828c0.166,0.224 0.333,0.447 0.5,0.67l1.391,1.859l-5.025,12.804l13.771,-1.702l1.456,1.756c0.214,0.259 0.428,0.517 0.643,0.774l1.485,1.783c-0,0 -4.297,12.897 -4.297,12.897l13.495,-2.391l1.545,1.681c0.269,0.291 0.537,0.582 0.806,0.873l1.575,1.702c0,0 -3.57,12.939 -3.57,12.939l13.175,-3.053l1.632,1.6c0.328,0.322 0.657,0.644 0.987,0.965l1.662,1.617l-2.849,12.929l12.813,-3.685l1.713,1.515c0.396,0.35 0.793,0.699 1.19,1.047l1.744,1.528l-2.137,12.87l12.413,-4.286l1.791,1.426c0.469,0.373 0.938,0.745 1.409,1.115l1.821,1.435l-1.438,12.765l11.981,-4.852l1.864,1.331c0.546,0.39 1.094,0.779 1.643,1.167l1.894,1.338l-0.755,12.616l11.521,-5.384l1.931,1.233c0.628,0.401 1.258,0.801 1.889,1.198l1.962,1.237l-0.092,12.43l11.04,-5.881l1.992,1.13c0.712,0.404 1.426,0.806 2.14,1.205l2.027,1.132l0.548,12.213l10.544,-6.347l2.049,1.025c0.795,0.398 1.592,0.792 2.391,1.185l2.085,1.023l1.168,11.971l10.036,-6.782l2.1,0.915c0.877,0.382 1.755,0.761 2.636,1.137l2.138,0.912c-0,0 1.765,11.708 1.765,11.708l9.524,-7.189l2.144,0.802c0.954,0.357 1.91,0.711 2.867,1.06l2.186,0.798c0,0 2.341,11.43 2.341,11.431l9.01,-7.573l2.182,0.688c1.025,0.323 2.052,0.641 3.08,0.956l2.229,0.681l2.897,11.142l8.495,-7.935l2.214,0.571c1.088,0.281 2.178,0.556 3.271,0.828l2.264,0.561l3.435,10.847l7.981,-8.279l2.24,0.453c1.143,0.231 2.288,0.456 3.436,0.677l2.293,0.441l3.957,10.543l7.467,-8.604l2.259,0.333c1.19,0.176 2.382,0.346 3.575,0.51l2.316,0.319l4.464,10.229l6.949,-8.909l2.272,0.214c1.229,0.115 2.461,0.225 3.693,0.329l2.331,0.196c0,-0 4.954,9.903 4.954,9.903l6.424,-9.191l2.281,0.095c1.263,0.052 2.528,0.098 3.795,0.138l2.338,0.074c0,-0 5.424,9.558 5.424,9.558l5.889,-9.441l2.283,-0.024c1.298,-0.013 2.595,-0.034 3.891,-0.06l2.338,-0.049l5.869,9.186l5.34,-9.653l2.28,-0.143c1.329,-0.083 2.657,-0.173 3.982,-0.27l2.333,-0.171l6.286,8.789l4.787,-9.835l2.269,-0.262c1.355,-0.157 2.708,-0.321 4.059,-0.492l2.321,-0.294l6.682,8.378l4.233,-9.994l2.25,-0.382c1.373,-0.232 2.743,-0.473 4.111,-0.72l2.305,-0.418c-0,0 7.06,7.96 7.06,7.96l3.681,-10.139l2.225,-0.5c1.38,-0.31 2.757,-0.627 4.131,-0.953l2.282,-0.54l7.427,7.539l3.132,-10.274l2.193,-0.617c1.376,-0.387 2.748,-0.781 4.117,-1.183l2.252,-0.662c0,-0 7.785,7.115 7.785,7.115l2.584,-10.399l2.154,-0.732c1.36,-0.462 2.716,-0.932 4.068,-1.409l2.217,-0.781c-0,-0 8.135,6.688 8.135,6.688l2.035,-10.517l2.111,-0.845c1.332,-0.533 2.66,-1.074 3.985,-1.622l2.174,-0.899l8.479,6.257l1.484,-10.626l2.061,-0.955c1.296,-0.6 2.587,-1.207 3.874,-1.822l2.125,-1.014l8.815,5.818l0.93,-10.722l2.005,-1.062c1.251,-0.662 2.497,-1.331 3.739,-2.006l2.069,-1.126c0,-0 9.141,5.369 9.141,5.368l0.369,-10.803l1.945,-1.165c1.199,-0.718 2.394,-1.443 3.584,-2.174l2.008,-1.234c0,-0 9.454,4.906 9.454,4.906l-0.198,-10.864l1.881,-1.266c1.142,-0.769 2.28,-1.544 3.414,-2.326l1.941,-1.338l9.751,4.429l-0.771,-10.9l1.811,-1.362c1.083,-0.815 2.162,-1.636 3.236,-2.463l1.868,-1.438l10.026,3.935l-1.348,-10.907l1.737,-1.456c1.022,-0.856 2.039,-1.718 3.052,-2.585l1.791,-1.534l10.276,3.424l-1.928,-10.883l1.659,-1.544c0.96,-0.894 1.915,-1.793 2.865,-2.697l1.708,-1.624l10.5,2.897l-2.508,-10.825l1.575,-1.629c0.898,-0.928 1.791,-1.861 2.679,-2.799l1.62,-1.71c0,0 10.693,2.356 10.693,2.356l-3.087,-10.732l1.488,-1.71c0.836,-0.959 1.666,-1.923 2.492,-2.891l1.529,-1.791l10.852,1.801l-3.661,-10.604l1.398,-1.785c0.773,-0.988 1.541,-1.98 2.305,-2.975l1.433,-1.869c-0,0 10.98,1.237 10.98,1.237l-4.229,-10.442l1.302,-1.856c0.711,-1.013 1.417,-2.031 2.119,-3.051l1.333,-1.941l11.075,0.663l-4.788,-10.247l1.203,-1.921c0.648,-1.036 1.292,-2.075 1.931,-3.118l1.23,-2.007l11.139,0.083l-5.34,-10.023l1.1,-1.982c0.586,-1.054 1.167,-2.112 1.742,-3.172l1.124,-2.069l11.173,-0.502l-5.882,-9.77l0.995,-2.037c0.522,-1.068 1.039,-2.139 1.551,-3.213l1.013,-2.126l11.179,-1.091l-6.414,-9.492l0.886,-2.085c0.457,-1.077 0.91,-2.157 1.358,-3.239l0.9,-2.176l11.16,-1.683l-6.937,-9.19l0.774,-2.128c0.392,-1.08 0.78,-2.162 1.163,-3.246l0.785,-2.221c0,-0 11.117,-2.277 11.117,-2.277l-7.453,-8.867l0.661,-2.164c0.328,-1.076 0.651,-2.154 0.97,-3.233l0.667,-2.261l11.05,-2.872l-7.959,-8.521l0.545,-2.195c0.264,-1.065 0.524,-2.132 0.779,-3.2l0.547,-2.293l10.959,-3.471l-8.454,-8.151l0.428,-2.219c0.202,-1.048 0.399,-2.098 0.593,-3.149l0.426,-2.318l10.842,-4.07l-8.937,-7.756l0.31,-2.238c0.143,-1.026 0.281,-2.054 0.415,-3.082l0.305,-2.338l10.695,-4.667l-9.402,-7.332l0.194,-2.252c0.085,-1.001 0.167,-2.004 0.245,-3.007l0.183,-2.349l10.513,-5.259l-9.839,-6.877l0.076,-2.26c0.033,-0.977 0.062,-1.955 0.087,-2.933l0.061,-2.354c0,0 10.288,-5.838 10.288,-5.838l-10.239,-6.387l-0.041,-2.263c-0.017,-0.958 -0.037,-1.915 -0.061,-2.872l-0.06,-2.35l10.013,-6.397l-10.595,-5.862l-0.157,-2.26c-0.066,-0.943 -0.135,-1.885 -0.207,-2.826l-0.181,-2.342l9.692,-6.932l-10.912,-5.311l-0.275,-2.25c-0.113,-0.928 -0.23,-1.856 -0.35,-2.783l-0.302,-2.329l9.335,-7.445l-11.196,-4.741l-0.392,-2.233c-0.161,-0.913 -0.325,-1.826 -0.492,-2.737l-0.423,-2.31l8.949,-7.938l-11.452,-4.158l-0.509,-2.207c-0.206,-0.896 -0.415,-1.79 -0.628,-2.683l-0.544,-2.285l8.539,-8.413l-11.682,-3.561l-0.624,-2.177c-0.25,-0.873 -0.503,-1.745 -0.759,-2.615l-0.664,-2.254l8.108,-8.872l-11.887,-2.953l-0.738,-2.141c-0.291,-0.846 -0.586,-1.69 -0.883,-2.533l-0.782,-2.217l7.658,-9.313l-12.069,-2.336l-0.848,-2.098c-0.33,-0.815 -0.663,-1.628 -0.998,-2.44l-0.897,-2.173l7.185,-9.738l-12.222,-1.707l-0.958,-2.05c-0.364,-0.78 -0.732,-1.56 -1.102,-2.337l-1.01,-2.124c-0,0 6.694,-10.141 6.694,-10.141l-12.348,-1.07l-1.063,-1.996c-0.397,-0.744 -0.796,-1.487 -1.198,-2.228l-1.119,-2.067l6.18,-10.523l-12.44,-0.425l-1.167,-1.937c-0.425,-0.706 -0.853,-1.411 -1.283,-2.115l-1.226,-2.005c0,-0 5.645,-10.878 5.645,-10.878l-12.496,0.228l-1.267,-1.874c-0.452,-0.668 -0.905,-1.335 -1.361,-2.001l-1.329,-1.938c0,-0 5.088,-11.203 5.088,-11.203l-12.514,0.885l-1.363,-1.806c-0.476,-0.631 -0.955,-1.26 -1.435,-1.888l-1.427,-1.867c0,0 4.511,-11.495 4.511,-11.495l-12.491,1.544l-1.455,-1.733c-0.5,-0.595 -1.002,-1.188 -1.505,-1.779l-1.521,-1.789l3.915,-11.751l-12.426,2.201l-1.544,-1.655c-0.523,-0.56 -1.047,-1.118 -1.572,-1.675l-1.612,-1.707l3.303,-11.968l-12.318,2.854l-1.629,-1.573c-0.545,-0.526 -1.091,-1.051 -1.639,-1.574l-1.698,-1.62l2.677,-12.145l-12.168,3.499l-1.709,-1.487c-0.567,-0.493 -1.136,-0.985 -1.707,-1.476l-1.778,-1.528c-0,-0 2.039,-12.283 2.039,-12.283l-11.977,4.135l-1.785,-1.396c-0.59,-0.462 -1.181,-0.922 -1.774,-1.38l-1.855,-1.433l1.394,-12.381l-11.749,4.758l-1.855,-1.301c-0.612,-0.429 -1.225,-0.856 -1.84,-1.282l-1.927,-1.334l0.745,-12.441l-11.488,5.368l-1.921,-1.202c-0.632,-0.396 -1.265,-0.79 -1.9,-1.182l-1.995,-1.231l0.093,-12.467l-11.196,5.964l-1.981,-1.099c-0.65,-0.361 -1.301,-0.72 -1.954,-1.077l-2.057,-1.125l-0.56,-12.462l-10.878,6.548l-2.035,-0.993c-0.664,-0.324 -1.33,-0.646 -1.996,-0.967l-2.114,-1.016l-1.213,-12.429l-10.538,7.12l-2.083,-0.884c-0.674,-0.285 -1.348,-0.568 -2.023,-0.85l-2.166,-0.904l-1.865,-12.372l-10.177,7.682l-2.126,-0.772c-0.675,-0.245 -1.352,-0.488 -2.029,-0.729l-2.213,-0.789l-2.517,-12.294l-9.798,8.235l-2.162,-0.657c-0.671,-0.204 -1.342,-0.406 -2.014,-0.606l-2.253,-0.67l-3.171,-12.196l-9.4,8.779l-2.192,-0.54c-0.657,-0.162 -1.316,-0.323 -1.975,-0.482l-2.287,-0.55l-3.825,-12.079l-8.983,9.317l-2.216,-0.423c-0.637,-0.121 -1.275,-0.241 -1.913,-0.36l-2.314,-0.429l-4.481,-11.94l-8.545,9.846l-2.233,-0.305c-0.61,-0.083 -1.22,-0.165 -1.831,-0.246l-2.334,-0.307c0,0 -5.138,-11.776 -5.138,-11.776l-8.081,10.361l-2.245,-0.187c-0.577,-0.048 -1.155,-0.095 -1.733,-0.141l-2.347,-0.184c-0,0 -5.793,-11.582 -5.793,-11.582l-7.587,10.854l-2.252,-0.069c-0.543,-0.017 -1.087,-0.032 -1.631,-0.047l-2.352,-0.062l-6.44,-11.349l-7.058,11.316l-2.255,0.047c-0.511,0.011 -1.023,0.023 -1.534,0.036l-2.35,0.059l-7.073,-11.07l-6.495,11.74l-2.249,0.165c-0.483,0.036 -0.965,0.072 -1.447,0.109l-2.344,0.182l-7.686,-10.748l-5.906,12.134l-2.237,0.283c-0.453,0.057 -0.906,0.115 -1.359,0.174l-2.33,0.304l-8.286,-10.39l-5.295,12.501l-2.217,0.401c-0.421,0.076 -0.842,0.152 -1.262,0.23l-2.312,0.426l-8.874,-10.004l-4.664,12.848l-2.192,0.517c-0.384,0.09 -0.768,0.182 -1.152,0.274l-2.287,0.547l-9.451,-9.593l-4.016,13.176l-2.159,0.632c-0.343,0.1 -0.686,0.201 -1.028,0.302l-2.257,0.668c0,-0 -10.018,-9.157 -10.018,-9.157l-3.35,13.483l-2.121,0.745c-0.297,0.105 -0.594,0.209 -0.891,0.315l-2.219,0.786l-10.577,-8.696l-2.665,13.769l-2.076,0.856c-0.248,0.102 -0.497,0.205 -0.745,0.307l-2.175,0.902l-11.123,-8.208l-1.96,14.03l-2.027,0.964c-0.198,0.094 -0.395,0.188 -0.593,0.282l-2.125,1.015l-11.655,-7.693l-1.236,14.262l-1.972,1.069c-0.147,0.079 -0.293,0.159 -0.44,0.238l-2.069,1.125l-12.167,-7.146l-0.493,14.458l-1.913,1.171c-0.097,0.059 -0.194,0.119 -0.292,0.178l-2.007,1.231l-12.655,-6.567l0.267,14.613l-1.849,1.269l-0.153,0.106l-1.94,1.333l-13.113,-5.956l1.041,14.723l-1.78,1.364l-1.896,1.453l-13.536,-5.312l1.54,12.457l-5.452,4.464l-11.596,-3.864l2.19,12.359l-5.211,4.744l-11.783,-3.251l2.834,12.227l-4.956,5.01l-11.936,-2.63l3.469,12.062l-4.686,5.262l-12.058,-2.002l4.096,11.865l-0.02,0.025c0.062,0.123 0.122,0.269 0.18,0.437c0.354,1.026 -3.589,5.172 -3.915,5.512l3.343,-1.698l-1.226,0.67l1.16,-0.57l-0.154,0.2l-3.3,1.623l-0.252,-0.494l-0.299,-0.214l-12.067,-1.359l4.711,11.634l-0.019,0.025c0.069,0.122 0.136,0.265 0.203,0.429c0.308,0.759 -1.737,3.342 -2.962,4.79l0.373,0.248l2.221,-1.206l-0.144,0.222l0.102,-0.054c-0.393,0.568 -0.785,1.137 -1.175,1.707c-0.019,0.027 -0.037,0.055 -0.056,0.082l-0.961,-0.64l-1.234,0.646Zm0.874,-1.005l-0.573,-0.382c-0.009,0.034 -0.018,0.068 -0.026,0.101l0.535,0.357l0.064,-0.076Zm-0.573,-0.382c0.028,-0.102 0.056,-0.208 0.086,-0.317l-0.182,0.253l0.096,0.064Zm-0.096,-0.064l-1.086,-0.724l0.066,0.163l0.962,0.642l0.058,-0.081Zm-1.02,-0.561l-0.368,-0.245l0.83,1.583l0.051,-0.071l-0.513,-1.267Zm0.462,1.338l-0.106,0.148l-0.275,-0.017l0.695,0.469l-0.314,-0.6Zm0.314,0.6l0.039,0.074c0,0 0.051,-0.055 0.14,-0.156l-0.167,0.09l-0.012,-0.008Zm1.286,-0.683l-0.099,0.053l0.086,0.058l0.1,-0.053l-0.087,-0.058Zm310.823,-161.177c206.126,-0 373.463,167.94 373.463,374.781c-0,206.842 -167.337,374.782 -373.463,374.782c-206.125,-0 -373.462,-167.94 -373.462,-374.782c-0,-206.841 167.337,-374.781 373.462,-374.781Zm0,4.166c-203.83,0 -369.296,166.077 -369.296,370.615c0,204.538 165.466,370.615 369.296,370.615c203.83,-0 369.296,-166.077 369.296,-370.615c0,-204.538 -165.466,-370.615 -369.296,-370.615Zm-379.653,400.626l-0.505,0.046l1.252,0.692c0,0 -0.004,-0.018 -0.012,-0.053l-0.735,-0.685Zm0.735,0.685l0.033,0.031l0.23,-0.256c0.062,-0.15 0.142,-0.344 0.233,-0.573l-0.657,0.06c0.075,0.369 0.136,0.631 0.161,0.738Zm0.263,-0.225c-0.089,0.215 -0.142,0.339 -0.142,0.339l0.895,-0.959l-0.212,0.019l-0.541,0.601Zm0.541,-0.601l0.113,-0.125l-0.373,0.034c-0.017,0.041 -0.032,0.08 -0.048,0.119l0.308,-0.028Zm-0.965,0.088c-0.007,-0.036 -0.015,-0.074 -0.023,-0.113l-0.663,0.061l0.112,0.105l0.574,-0.053Zm-0.633,-29.958l-0,6.863l-0.115,-0.072l0.345,6.59c-0.153,-4.441 -0.23,-8.902 -0.23,-13.381Zm-0,0c-0,-47.601 8.717,-93.175 24.636,-135.201l-2.301,5.994l-0.082,-0.108l-6.145,18.911l-0.087,-0.104l-5.146,19.207l-0.093,-0.099l-4.134,19.45l-0.098,-0.094l-3.11,19.64l-0.103,-0.089l-2.078,19.775l-0.107,-0.083l-1.041,19.857l-0.111,-0.078l-0,13.022Zm0.499,-60.474l0.896,-5.656l-5.175,1.943l4.279,3.713Zm78.469,-169.187l0.386,0.786c0.017,-0.067 0.245,-0.93 0.593,-2.009l-0.979,1.223Zm-11.353,12.582l-1.217,1.875c0.413,-0.605 0.828,-1.208 1.244,-1.809l-0.027,-0.066Zm11.739,-15.962l-0.153,0.212l0.156,-0.203l-0.003,-0.009Zm-70.56,133.408l1.482,-5.532l-5.35,1.391l3.868,4.141Zm5.672,-19.201l1.77,-5.446l-5.415,1.109l3.645,4.337Zm-18.633,118.187l-0,-5.727l-4.808,2.729l4.808,2.998Z" style="fill:#f2f2f2;"/><path d="M573.141,989.08l-19.059,-11.806l19.208,-10.825l-18.411,-12.78l19.752,-9.812l-17.713,-13.719l20.242,-8.772l-16.965,-14.621l20.677,-7.707l-16.171,-15.484l21.054,-6.622l-15.333,-16.302l21.374,-5.519l-14.453,-17.077l21.636,-4.4l-13.533,-17.805l21.838,-3.27l-12.576,-18.483l21.981,-2.131l-11.585,-19.112l22.062,-0.984l-10.561,-19.689l22.084,0.164l-9.51,-20.21l22.046,1.311l-8.432,-20.677l21.946,2.455l-7.33,-21.087l21.786,3.592l-6.209,-21.438l21.568,4.719l-5.071,-21.731l21.289,5.834l-3.918,-21.966l20.952,6.932l-2.755,-22.139l20.522,7.998c0.011,-0.008 0.022,-0.017 0.034,-0.026l-1.583,-22.212l19.927,8.988c0.059,-0.041 0.118,-0.081 0.178,-0.122l-0.407,-22.1l19.277,9.934c0.113,-0.069 0.226,-0.138 0.339,-0.206l0.753,-21.921l18.58,10.837c0.17,-0.092 0.34,-0.183 0.511,-0.275l1.892,-21.679l17.844,11.696c0.229,-0.108 0.458,-0.217 0.688,-0.325l3.008,-21.382l17.073,12.512c0.289,-0.118 0.577,-0.237 0.866,-0.355l4.099,-21.036l16.275,13.289c0.345,-0.121 0.69,-0.242 1.035,-0.363l5.166,-20.646l15.452,14.025c0.397,-0.117 0.796,-0.234 1.194,-0.349l6.206,-20.218l14.606,14.723c0.446,-0.106 0.892,-0.211 1.339,-0.316l7.22,-19.752l13.74,15.383c0.488,-0.089 0.977,-0.178 1.466,-0.266l8.21,-19.251l12.851,16.003c0.526,-0.068 1.052,-0.135 1.579,-0.201l9.171,-18.713l11.939,16.578c0.56,-0.043 1.121,-0.085 1.682,-0.126l10.101,-18.132l11.001,17.1c0.594,-0.014 1.188,-0.028 1.783,-0.041l10.994,-17.504l10.035,17.56c0.631,0.016 1.263,0.034 1.894,0.054l11.84,-16.823l9.044,17.955c0.671,0.052 1.342,0.106 2.013,0.162l12.638,-16.092l8.038,18.295c0.71,0.093 1.419,0.187 2.127,0.283l13.391,-15.323l7.025,18.586c0.741,0.137 1.482,0.275 2.223,0.416l14.104,-14.528l6.007,18.837c0.766,0.183 1.531,0.368 2.295,0.555l14.782,-13.71l4.987,19.049c0.781,0.231 1.561,0.464 2.34,0.699l15.426,-12.875l3.965,19.227c0.787,0.278 1.573,0.559 2.357,0.841l16.037,-12.021l2.94,19.366c0.785,0.325 1.568,0.652 2.35,0.981l16.615,-11.149l1.913,19.466c0.774,0.37 1.547,0.742 2.319,1.115l17.158,-10.257l0.884,19.524c0.758,0.412 1.514,0.826 2.27,1.242l17.663,-9.345l-0.146,19.536c0.737,0.453 1.473,0.907 2.207,1.363l18.125,-8.411l-1.175,19.497c0.714,0.491 1.426,0.984 2.136,1.479l18.54,-7.456l-2.201,19.404c0.689,0.528 1.375,1.058 2.061,1.591l18.901,-6.481l-3.219,19.254c0.663,0.565 1.324,1.133 1.983,1.702l19.207,-5.486l-4.226,19.043c0.637,0.604 1.272,1.209 1.905,1.816l19.452,-4.476l-5.217,18.773c0.611,0.642 1.22,1.286 1.826,1.932l19.634,-3.454l-6.187,18.443c0.585,0.682 1.167,1.366 1.747,2.053l19.753,-2.425l-7.135,18.055c0.558,0.725 1.113,1.451 1.667,2.179l19.807,-1.392l-8.055,17.613c0.53,0.768 1.057,1.537 1.582,2.308l19.8,-0.359l-8.946,17.12c0.499,0.811 0.996,1.624 1.49,2.439l19.733,0.669l-9.805,16.58c0.466,0.855 0.93,1.711 1.39,2.57l19.61,1.688l-10.633,15.998c0.43,0.897 0.856,1.796 1.28,2.697l19.434,2.696l-11.428,15.378c0.389,0.937 0.776,1.876 1.159,2.816l19.209,3.692l-12.191,14.724c0.346,0.973 0.688,1.948 1.026,2.924l18.939,4.673l-12.921,14.038c0.298,1.004 0.592,2.01 0.883,3.017l18.625,5.639l-13.617,13.323c0.247,1.03 0.49,2.062 0.73,3.095l18.269,6.587l-14.279,12.579c0.194,1.051 0.384,2.104 0.571,3.158l17.871,7.516l-14.903,11.804c0.14,1.069 0.275,2.139 0.407,3.211l17.427,8.423l-15.481,10.996c0.084,1.086 0.165,2.172 0.241,3.259l16.932,9.304l-16.004,10.154c0.028,1.103 0.052,2.207 0.071,3.312l16.382,10.148l-16.462,9.277c-0.03,1.128 -0.064,2.256 -0.102,3.383l15.767,10.944l-16.85,8.37c-0.09,1.158 -0.185,2.314 -0.285,3.469l15.095,11.693l-17.176,7.442c-0.156,1.187 -0.316,2.372 -0.482,3.556l14.381,12.394l-17.45,6.505c-0.224,1.212 -0.454,2.423 -0.689,3.632l13.634,13.054l-17.676,5.559c-0.296,1.233 -0.598,2.464 -0.905,3.692l12.86,13.673l-17.859,4.611c-0.37,1.246 -0.746,2.489 -1.127,3.73l12.064,14.255l-17.999,3.661c-0.445,1.251 -0.896,2.499 -1.352,3.745l11.249,14.799l-18.099,2.71c-0.521,1.249 -1.046,2.494 -1.578,3.737l10.415,15.307l-18.157,1.759c-0.594,1.239 -1.195,2.475 -1.801,3.708l9.562,15.775l-18.169,0.811c-0.669,1.223 -1.343,2.443 -2.024,3.66l8.692,16.202l-18.135,-0.134c-0.742,1.202 -1.49,2.401 -2.243,3.596l7.803,16.584l-18.052,-1.073c-0.815,1.178 -1.635,2.351 -2.461,3.52l6.9,16.919l-17.919,-2.004c-0.887,1.148 -1.78,2.293 -2.678,3.432l5.981,17.204l-17.733,-2.924c-0.959,1.117 -1.924,2.228 -2.894,3.335l5.049,17.435l-17.495,-3.828c-1.031,1.081 -2.068,2.157 -3.111,3.228l4.11,17.613l-17.206,-4.715c-1.104,1.042 -2.214,2.079 -3.329,3.111l3.164,17.735l-16.868,-5.581c-1.176,1.001 -2.358,1.995 -3.545,2.983l2.216,17.805l-16.484,-6.424c-1.248,0.953 -2.501,1.9 -3.759,2.841l1.269,17.823l-16.058,-7.243c-1.317,0.901 -2.64,1.796 -3.967,2.683l0.327,17.795l-15.596,-8.038c-1.383,0.843 -2.771,1.679 -4.163,2.508l-0.609,17.722l-15.103,-8.809c-1.443,0.78 -2.89,1.551 -4.343,2.315l-1.537,17.611l-14.582,-9.558c-1.496,0.709 -2.996,1.41 -4.501,2.102l-2.457,17.468l-14.038,-10.288c-1.539,0.632 -3.082,1.256 -4.63,1.871l-3.37,17.295l-13.473,-11.001c-1.571,0.551 -3.147,1.092 -4.726,1.625l-4.277,17.096l-12.889,-11.699c-1.591,0.464 -3.185,0.92 -4.783,1.366l-5.18,16.875l-12.287,-12.384c-1.596,0.375 -3.196,0.741 -4.799,1.099l-6.08,16.63l-11.663,-13.057c-1.588,0.285 -3.18,0.562 -4.775,0.831l-6.977,16.36l-11.015,-13.716c-1.569,0.198 -3.141,0.387 -4.715,0.567l-7.871,16.06l-10.338,-14.354c-1.54,0.112 -3.082,0.217 -4.626,0.313l-8.758,15.721l-9.626,-14.962c-1.505,0.031 -3.011,0.054 -4.519,0.07l-9.634,15.338l-8.874,-15.531c-1.471,-0.045 -2.941,-0.099 -4.408,-0.159l-10.487,14.898l-8.087,-16.055c-1.432,-0.12 -2.862,-0.247 -4.29,-0.38l-11.318,14.41l-7.27,-16.548c-1.387,-0.189 -2.772,-0.385 -4.154,-0.588l-12.131,13.882l-6.43,-17.012c-1.333,-0.254 -2.663,-0.515 -3.992,-0.782l-12.93,13.319l-5.566,-17.451c-1.269,-0.313 -2.535,-0.631 -3.8,-0.955l-13.718,12.725l-4.678,-17.87c-1.196,-0.363 -2.388,-0.731 -3.579,-1.103l-14.496,12.099l-3.767,-18.265c-1.112,-0.403 -2.222,-0.81 -3.331,-1.223l-15.262,11.441l-2.828,-18.632c-1.023,-0.434 -2.044,-0.871 -3.062,-1.312l-16.015,10.746l-1.864,-18.969c-0.927,-0.452 -1.853,-0.908 -2.777,-1.367l-16.749,10.012l-0.872,-19.268c-0.83,-0.461 -1.659,-0.924 -2.486,-1.39l-17.458,9.237l0.146,-19.523c-0.733,-0.458 -1.464,-0.919 -2.194,-1.382l-18.139,8.417l1.19,-19.726c-0.638,-0.447 -1.274,-0.896 -1.91,-1.346l-18.78,7.553l2.254,-19.872c-0.547,-0.427 -1.093,-0.857 -1.637,-1.287l-19.378,6.644l3.335,-19.953c-0.461,-0.402 -0.922,-0.805 -1.381,-1.208l-19.925,5.691l4.43,-19.967c-0.383,-0.371 -0.765,-0.742 -1.147,-1.113l-20.414,4.697l5.532,-19.91c-0.312,-0.335 -0.624,-0.671 -0.935,-1.007l-20.841,3.667l6.636,-19.781c-0.249,-0.298 -0.498,-0.595 -0.747,-0.893l-21.201,2.602l7.737,-19.579c-0.195,-0.257 -0.388,-0.515 -0.582,-0.773l-21.495,1.51l8.83,-19.306c-0.146,-0.216 -0.292,-0.433 -0.438,-0.65l-21.718,0.394l9.909,-18.963c-0.105,-0.174 -0.21,-0.349 -0.315,-0.524l-21.871,-0.74l10.972,-18.554c-0.07,-0.131 -0.14,-0.263 -0.209,-0.395l-21.958,-1.89l12.017,-18.08c-0.041,-0.087 -0.081,-0.174 -0.122,-0.262l-21.976,-3.049l13.039,-17.547c-0.016,-0.041 -0.033,-0.083 -0.05,-0.124l-21.929,-4.215l14.026,-16.941l-21.8,-5.379l14.899,-16.19l-21.486,-6.504l15.732,-15.393l-21.115,-7.613l16.522,-14.554l-20.684,-8.699l17.266,-13.675l-20.198,-9.763l17.964,-12.759l-19.656,-10.8l18.611,-11.807Zm0.609,-22.312l-0,22.688l-0.132,-0.081l0.396,7.519c-0.175,-5.068 -0.264,-10.158 -0.264,-15.268c-0,-54.312 10.015,-106.312 28.305,-154.263l-2.644,6.839l-0.094,-0.123l-7.059,21.577l-0.101,-0.118l-5.913,21.915l-0.106,-0.113l-4.75,22.192l-0.112,-0.107l-3.574,22.408l-0.118,-0.101l-2.388,22.563l-0.123,-0.095l-1.195,22.657l-0.128,-0.089Zm33.849,-153.747l-4.16,10.76c1.961,-5.005 4.012,-9.965 6.151,-14.878l-1.904,4.247l-0.087,-0.129Zm9.379,-20.598l-3.569,7.961c1.6,-3.467 3.243,-6.909 4.931,-10.325l-1.281,2.497l-0.081,-0.133Zm10.452,-20.082l-3.042,5.93c1.204,-2.261 2.428,-4.511 3.671,-6.748l-0.555,0.954l-0.074,-0.136Zm11.497,-19.512l-2.344,4.03c0.794,-1.306 1.595,-2.608 2.402,-3.905l-0.058,-0.125Zm12.508,-18.888l-1.399,2.14c0.475,-0.69 0.952,-1.378 1.43,-2.064l-0.031,-0.076Zm13.487,-18.211l-0.176,0.241c0.06,-0.077 0.12,-0.154 0.18,-0.232l-0.004,-0.009Zm-87.997,318.723l0.083,0.523c-0.021,-0.171 -0.042,-0.342 -0.063,-0.514l-0.02,-0.009Zm-2.248,-22.496l0.395,3.731c-0.095,-1.219 -0.185,-2.44 -0.27,-3.663l-0.125,-0.068Zm435.335,-453.197c-234.186,-0 -424.294,189.491 -424.294,422.866c-0,233.375 190.108,422.867 424.294,422.867c234.186,-0 424.294,-189.492 424.294,-422.867c-0,-233.375 -190.108,-422.866 -424.294,-422.866Z" style="fill:#f2f2f2;"/><path d="M573.141,989.08l-19.059,-11.806l19.208,-10.825l-18.411,-12.78l19.752,-9.812l-17.713,-13.719l20.242,-8.772l-16.965,-14.621l20.677,-7.707l-16.171,-15.484l21.054,-6.622l-15.333,-16.302l21.374,-5.519l-14.453,-17.077l21.636,-4.4l-13.533,-17.805l21.838,-3.27l-12.576,-18.483l21.981,-2.131l-11.585,-19.112l22.062,-0.984l-10.561,-19.689l22.084,0.164l-9.51,-20.21l22.046,1.311l-8.432,-20.677l21.946,2.455l-7.33,-21.087l21.786,3.592l-6.209,-21.438l21.568,4.719l-5.071,-21.731l21.289,5.834l-3.918,-21.966l20.952,6.932l-2.755,-22.139l20.522,7.998l0.034,-0.026l-1.583,-22.212l19.927,8.988l0.178,-0.122l-0.407,-22.1l19.277,9.934c0.113,-0.069 0.226,-0.138 0.339,-0.206l0.753,-21.921l18.58,10.837c0.17,-0.092 0.34,-0.183 0.511,-0.275l1.892,-21.679l17.844,11.696c0.229,-0.108 0.458,-0.217 0.688,-0.325l3.008,-21.382l17.073,12.512c0.289,-0.118 0.577,-0.237 0.866,-0.355l4.099,-21.036l16.275,13.289c0.345,-0.121 0.69,-0.242 1.035,-0.363l5.166,-20.646l15.452,14.025c0.397,-0.117 0.796,-0.234 1.194,-0.349l6.206,-20.218l14.606,14.723c0.446,-0.106 0.892,-0.211 1.339,-0.316l7.22,-19.752l13.74,15.383c0.488,-0.089 0.977,-0.178 1.466,-0.266l8.21,-19.251l12.851,16.003c0.526,-0.068 1.052,-0.135 1.579,-0.201l9.171,-18.713l11.939,16.578c0.56,-0.043 1.121,-0.085 1.682,-0.126l10.101,-18.132l11.001,17.1c0.594,-0.014 1.188,-0.028 1.783,-0.041l10.994,-17.504l10.035,17.56c0.631,0.016 1.263,0.034 1.894,0.054l11.84,-16.823l9.044,17.955c0.671,0.052 1.342,0.106 2.013,0.162l12.638,-16.092l8.038,18.295c0.71,0.093 1.419,0.187 2.127,0.283l13.391,-15.323l7.025,18.586c0.741,0.137 1.482,0.275 2.223,0.416l14.104,-14.528l6.007,18.837c0.766,0.183 1.531,0.368 2.295,0.555l14.782,-13.71l4.987,19.049c0.781,0.231 1.561,0.464 2.34,0.699l15.426,-12.875l3.965,19.227c0.787,0.278 1.573,0.559 2.357,0.841l16.037,-12.021l2.94,19.366c0.785,0.325 1.568,0.652 2.35,0.981l16.615,-11.149l1.913,19.466c0.774,0.37 1.547,0.742 2.319,1.115l17.158,-10.257l0.884,19.524c0.758,0.412 1.514,0.826 2.27,1.242l17.663,-9.345l-0.146,19.536c0.737,0.453 1.473,0.907 2.207,1.363l18.125,-8.411l-1.175,19.497c0.714,0.491 1.426,0.984 2.136,1.479l18.54,-7.456l-2.201,19.404c0.689,0.528 1.375,1.058 2.061,1.591l18.901,-6.481l-3.219,19.254c0.663,0.565 1.324,1.133 1.983,1.702l19.207,-5.486l-4.226,19.043c0.637,0.604 1.272,1.209 1.905,1.816l19.452,-4.476l-5.217,18.773c0.611,0.642 1.22,1.286 1.826,1.932l19.634,-3.454l-6.187,18.443c0.585,0.682 1.167,1.366 1.747,2.053l19.753,-2.425l-7.135,18.055c0.558,0.725 1.113,1.451 1.667,2.179l19.807,-1.392l-8.055,17.613c0.53,0.768 1.057,1.537 1.582,2.308l19.8,-0.359l-8.946,17.12c0.499,0.811 0.996,1.624 1.49,2.439l19.733,0.669l-9.805,16.58c0.466,0.855 0.93,1.711 1.39,2.57l19.61,1.688l-10.633,15.998c0.43,0.897 0.856,1.796 1.28,2.697l19.434,2.696l-11.428,15.378c0.389,0.937 0.776,1.876 1.159,2.816l19.209,3.692l-12.191,14.724c0.346,0.973 0.688,1.948 1.026,2.924l18.939,4.673l-12.921,14.038c0.298,1.004 0.592,2.01 0.883,3.017l18.625,5.639l-13.617,13.323c0.247,1.03 0.49,2.062 0.73,3.095l18.269,6.587l-14.279,12.579c0.194,1.051 0.384,2.104 0.571,3.158l17.871,7.516l-14.903,11.804c0.14,1.069 0.275,2.139 0.407,3.211l17.427,8.423l-15.481,10.996c0.084,1.086 0.165,2.172 0.241,3.259l16.932,9.304l-16.004,10.154c0.028,1.103 0.052,2.207 0.071,3.312l16.382,10.148l-16.462,9.277c-0.03,1.128 -0.064,2.256 -0.102,3.383l15.767,10.944l-16.85,8.37c-0.09,1.158 -0.185,2.314 -0.285,3.469l15.095,11.693l-17.176,7.442c-0.156,1.187 -0.316,2.372 -0.482,3.556l14.381,12.394l-17.45,6.505c-0.224,1.212 -0.454,2.423 -0.689,3.632l13.634,13.054l-17.676,5.559c-0.296,1.233 -0.598,2.464 -0.905,3.692l12.86,13.673l-17.859,4.611c-0.37,1.246 -0.746,2.489 -1.127,3.73l12.064,14.255l-17.999,3.661c-0.445,1.251 -0.896,2.499 -1.352,3.745l11.249,14.799l-18.099,2.71c-0.521,1.249 -1.046,2.494 -1.578,3.737l10.415,15.307l-18.157,1.759c-0.594,1.239 -1.195,2.475 -1.801,3.708l9.562,15.775l-18.169,0.811c-0.669,1.223 -1.343,2.443 -2.024,3.66l8.692,16.202l-18.135,-0.134c-0.742,1.202 -1.49,2.401 -2.243,3.596l7.803,16.584l-18.052,-1.073c-0.815,1.178 -1.635,2.351 -2.461,3.52l6.9,16.919l-17.919,-2.004c-0.887,1.148 -1.78,2.293 -2.678,3.432l5.981,17.204l-17.733,-2.924c-0.959,1.117 -1.924,2.228 -2.894,3.335l5.049,17.435l-17.495,-3.828c-1.031,1.081 -2.068,2.157 -3.111,3.228l4.11,17.613l-17.206,-4.715c-1.104,1.042 -2.214,2.079 -3.329,3.111l3.164,17.735l-16.868,-5.581c-1.176,1.001 -2.358,1.995 -3.545,2.983l2.216,17.805l-16.484,-6.424c-1.248,0.953 -2.501,1.9 -3.759,2.841l1.269,17.823l-16.058,-7.243c-1.317,0.901 -2.64,1.796 -3.967,2.683l0.327,17.795l-15.596,-8.038c-1.383,0.843 -2.771,1.679 -4.163,2.508l-0.609,17.722l-15.103,-8.809c-1.443,0.78 -2.89,1.551 -4.343,2.315l-1.537,17.611l-14.582,-9.558c-1.496,0.709 -2.996,1.41 -4.501,2.102l-2.457,17.468l-14.038,-10.288c-1.539,0.632 -3.082,1.256 -4.63,1.871l-3.37,17.295l-13.473,-11.001c-1.571,0.551 -3.147,1.092 -4.726,1.625l-4.277,17.096l-12.889,-11.699c-1.591,0.464 -3.185,0.92 -4.783,1.366l-5.18,16.875l-12.287,-12.384c-1.596,0.375 -3.196,0.741 -4.799,1.099l-6.08,16.63l-11.663,-13.057c-1.588,0.285 -3.18,0.562 -4.775,0.831l-6.977,16.36l-11.015,-13.716c-1.569,0.198 -3.141,0.387 -4.715,0.567l-7.871,16.06l-10.338,-14.354c-1.54,0.112 -3.082,0.217 -4.626,0.313l-8.758,15.721l-9.626,-14.962c-1.505,0.031 -3.011,0.054 -4.519,0.07l-9.634,15.338l-8.874,-15.531c-1.471,-0.045 -2.941,-0.099 -4.408,-0.159l-10.487,14.898l-8.087,-16.055c-1.432,-0.12 -2.862,-0.247 -4.29,-0.38l-11.318,14.41l-7.27,-16.548c-1.387,-0.189 -2.772,-0.385 -4.154,-0.588l-12.131,13.882l-6.43,-17.012c-1.333,-0.254 -2.663,-0.515 -3.992,-0.782l-12.93,13.319l-5.566,-17.451c-1.269,-0.313 -2.535,-0.631 -3.8,-0.955l-13.718,12.725l-4.678,-17.87c-1.196,-0.363 -2.388,-0.731 -3.579,-1.103l-14.496,12.099l-3.767,-18.265c-1.112,-0.403 -2.222,-0.81 -3.331,-1.223l-15.262,11.441l-2.828,-18.632c-1.023,-0.434 -2.044,-0.871 -3.062,-1.312l-16.015,10.746l-1.864,-18.969c-0.927,-0.452 -1.853,-0.908 -2.777,-1.367l-16.749,10.012l-0.872,-19.268c-0.83,-0.461 -1.659,-0.924 -2.486,-1.39l-17.458,9.237l0.146,-19.523c-0.733,-0.458 -1.464,-0.919 -2.194,-1.382l-18.139,8.417l1.19,-19.726c-0.638,-0.447 -1.274,-0.896 -1.91,-1.346l-18.78,7.553l2.254,-19.872c-0.547,-0.427 -1.093,-0.857 -1.637,-1.287l-19.378,6.644l3.335,-19.953c-0.461,-0.402 -0.922,-0.805 -1.381,-1.208l-19.925,5.691l4.43,-19.967c-0.383,-0.371 -0.765,-0.742 -1.147,-1.113l-20.414,4.697l5.532,-19.91c-0.312,-0.335 -0.624,-0.671 -0.935,-1.007l-20.841,3.667l6.636,-19.781c-0.249,-0.298 -0.498,-0.595 -0.747,-0.893l-21.201,2.602l7.737,-19.579c-0.195,-0.257 -0.388,-0.515 -0.582,-0.773l-21.495,1.51l8.83,-19.306c-0.146,-0.216 -0.292,-0.433 -0.438,-0.65l-21.718,0.394l9.909,-18.963c-0.105,-0.174 -0.21,-0.349 -0.315,-0.524l-21.871,-0.74l10.972,-18.554c-0.07,-0.131 -0.14,-0.263 -0.209,-0.395l-21.958,-1.89l12.017,-18.08l-0.122,-0.262l-21.976,-3.049l13.039,-17.547l-0.05,-0.124l-21.929,-4.215l14.026,-16.941l-21.8,-5.379l14.899,-16.19l-21.486,-6.504l15.732,-15.393l-21.115,-7.613l16.522,-14.554l-20.684,-8.699l17.266,-13.675l-20.198,-9.763l17.964,-12.759l-19.656,-10.8l18.611,-11.807Zm34.458,-176.059l-4.16,10.76c1.961,-5.005 4.012,-9.965 6.151,-14.878l-1.904,4.247l-0.087,-0.129Zm-33.849,168.605l-0,7.83l-0.132,-0.081l0.396,7.519c-0.175,-5.068 -0.264,-10.158 -0.264,-15.268Zm-0,0c-0,-54.312 10.015,-106.312 28.305,-154.263l-2.644,6.839l-0.094,-0.123l-7.059,21.577l-0.101,-0.118l-5.913,21.915l-0.106,-0.113l-4.75,22.192l-0.112,-0.107l-3.574,22.408l-0.118,-0.101l-2.388,22.563l-0.123,-0.095l-1.195,22.657l-0.128,-0.089l-0,14.858Zm-1.911,-45.201l0.911,-8.607l-7.709,3.341l6.798,5.266Zm45.139,-144.002l-3.569,7.961c1.6,-3.467 3.243,-6.909 4.931,-10.325l-1.281,2.497l-0.081,-0.133Zm-26.36,54.846l2.693,-8.23l-8.24,1.676l5.547,6.554Zm-21.035,134.705l0,-0.348l0,-8.305l-7.315,4.122l7.315,4.531Zm5.483,33.657c-0.093,-1.201 -0.181,-2.402 -0.264,-3.606l-0.125,-0.068l0.389,3.674Zm-0.675,0.178l-0.245,0.022l0.531,0.292c-0,0 -0.005,-0.021 -0.015,-0.062l-0.271,-0.252Zm0.271,0.252l0.038,0.036l0.261,-0.29l0.022,-0.053l-0.383,0.036c0.027,0.123 0.049,0.215 0.062,0.271Zm0.299,-0.254c-0.099,0.244 -0.159,0.385 -0.159,0.385l0.429,-0.46l-0.22,0.02l-0.05,0.055Zm0.05,-0.055l0.06,-0.065l0.054,-0.061l-0.094,0.008c-0.017,0.042 -0.033,0.083 -0.048,0.12l0.028,-0.002Zm-0.411,0.038c-0.008,-0.036 -0.016,-0.074 -0.025,-0.114l-0.297,0.027l0.113,0.106l0.209,-0.019Zm2.325,18.663l0.083,0.523c-0.021,-0.171 -0.042,-0.342 -0.063,-0.514l-0.02,-0.009Zm1.951,-143.094l1.812,-8.465l-8.018,2.522l6.206,5.943Zm-4.112,22.441l1.363,-8.548l-7.875,2.936l6.512,5.612Zm89.745,-194.748l0.413,0.843c0.018,-0.07 0.265,-1.012 0.64,-2.162l-1.053,1.319Zm-13.043,19.131l-0.911,-0.624l-14.618,-0.869l6.522,13.86l-0.023,0.035c0.087,0.13 0.175,0.287 0.262,0.473c0.43,0.912 -2.559,4.66 -3.46,5.759l3.291,-1.894l-0.197,0.338l0.191,-0.106c-0.785,1.262 -1.565,2.528 -2.337,3.799c-0.014,0.023 -0.028,0.046 -0.042,0.07l-4.296,-2.554c-4.358,-0.033 -12.252,-0.091 -12.252,-0.091l7.242,13.5l-0.021,0.036c0.095,0.127 0.19,0.279 0.287,0.46c0.4,0.744 -1.531,3.527 -2.721,5.124l3.318,-1.953c-0.018,0.033 -0.037,0.065 -0.055,0.098c-1.202,2.165 -2.386,4.342 -3.551,6.529c-0.01,0.019 -0.02,0.038 -0.03,0.057l-7.385,-3.861l0.031,-0.059l-8.402,0.372l7.943,13.104l-0.019,0.037c0.101,0.122 0.205,0.269 0.311,0.444c0.106,0.175 0.079,0.472 -0.04,0.846l1.572,0.791c-0.01,0.019 -0.019,0.038 -0.029,0.057c-1.654,3.351 -3.267,6.727 -4.836,10.127c-0.006,0.014 -0.012,0.027 -0.018,0.041l-7.586,-3.45l0.019,-0.041l0.854,-1.905l-8.372,0.812l7.81,11.478l3.492,1.543c-0.006,0.014 -0.012,0.028 -0.018,0.042c-2.11,4.846 -4.132,9.739 -6.066,14.676l-0.007,0.017l-7.766,-3.022l0.007,-0.017l1.777,-4.599l-8.317,1.245l5.341,7.027l7.587,2.913l-0.007,0.017c-18.109,47.485 -28.024,98.978 -28.024,152.761c-0,5.037 0.086,10.053 0.259,15.048c0,0.025 0.002,0.05 0.003,0.075l-8.325,0.364l-0.004,-0.075l-0.048,-0.907c-3.396,2.155 -7.088,4.499 -7.088,4.499l13.478,7.405l0.002,0.039c0.154,0.06 0.318,0.137 0.493,0.233c0.519,0.285 0.221,1.836 -0.278,3.487l0.13,2.259l2.281,-2.535l0.035,0.329l0.104,-0.11c0.081,1.172 0.166,2.343 0.257,3.513c0.003,0.038 0.007,0.076 0.01,0.115l-3.472,0.319l-11.373,8.077l13.852,6.696l0.005,0.039c0.156,0.051 0.323,0.119 0.501,0.205c0.498,0.241 0.289,1.611 -0.132,3.146l0.102,0.922c0.958,-1.736 2.008,-2.991 2.333,-0.958l0.026,0.163l0.013,-0.015c0.015,0.116 0.027,0.232 0.041,0.348c0.008,0.054 0.015,0.107 0.022,0.16c0.497,3.907 -4.136,4.675 -4.136,4.675c0,0 -0.035,-0 -0.1,-0.005c-3.377,2.675 -9.643,7.638 -9.643,7.638l14.189,5.968l1.138,6.967l-11.235,9.897l14.487,5.223l1.501,6.898c-0,0 -10.698,10.467 -10.698,10.467l14.746,4.465l1.858,6.809l-10.132,11.009l14.965,3.692l2.211,6.703l-9.538,11.521l17.248,3.315l0.899,2.229l0.874,2.167l-10.238,13.778l17.257,2.394l0.957,2.058l0.121,0.259l0.987,2.119l-9.42,14.173l17.214,1.482l1.064,2.004c0.069,0.131 0.138,0.261 0.207,0.391l1.098,2.065l-8.586,14.518l17.117,0.58l1.166,1.946c0.103,0.173 0.207,0.346 0.311,0.519l1.205,2.004c-0,0 -7.74,14.812 -7.74,14.812l16.966,-0.308l1.265,1.883c0.144,0.215 0.289,0.43 0.434,0.644l1.307,1.938l-6.883,15.05l16.759,-1.178l1.361,1.816c0.192,0.255 0.384,0.511 0.576,0.766l1.406,1.866l-6.018,15.23l16.495,-2.024l1.454,1.742c0.246,0.296 0.493,0.59 0.74,0.885l1.501,1.789l-5.151,15.352l16.176,-2.846l1.543,1.666c0.309,0.333 0.617,0.665 0.927,0.997l1.591,1.708c-0,-0 -4.283,15.412 -4.283,15.412l15.804,-3.636l1.628,1.585c0.378,0.368 0.757,0.735 1.136,1.102l1.677,1.621l-3.42,15.414l15.383,-4.394l1.708,1.5c0.455,0.399 0.911,0.798 1.368,1.196l1.758,1.531l-2.567,15.356l14.915,-5.114l1.784,1.41c0.54,0.426 1.08,0.851 1.622,1.275l1.834,1.436l-1.729,15.244l14.409,-5.795l1.855,1.316c0.629,0.447 1.26,0.891 1.891,1.334l1.907,1.337l-0.909,15.082l13.868,-6.436l1.922,1.218c0.723,0.459 1.447,0.915 2.173,1.369l1.974,1.235l-0.112,14.874l13.303,-7.038l1.982,1.117c0.819,0.461 1.64,0.92 2.463,1.377l2.035,1.129l0.662,14.628l12.717,-7.602l2.038,1.012c0.915,0.455 1.832,0.906 2.751,1.354l2.092,1.02l1.411,14.351l12.116,-8.13l2.088,0.903c1.009,0.437 2.02,0.87 3.032,1.299l2.145,0.909l2.132,14.048l11.509,-8.627l2.132,0.793c1.097,0.408 2.197,0.812 3.299,1.211l2.19,0.794l2.831,13.728l10.896,-9.095l2.169,0.679c1.18,0.369 2.361,0.734 3.545,1.093l2.23,0.677c0,-0 3.506,13.392 3.506,13.392l10.283,-9.537l2.201,0.563c1.252,0.321 2.507,0.636 3.763,0.946l2.264,0.558l4.161,13.046l9.667,-9.958l2.227,0.447c1.316,0.264 2.634,0.522 3.954,0.774l2.291,0.438l4.796,12.688l9.049,-10.355l2.247,0.329c1.369,0.201 2.741,0.395 4.114,0.583l2.312,0.316l5.412,12.318l8.426,-10.728l2.261,0.211c1.415,0.133 2.832,0.258 4.25,0.376l2.325,0.195l6.009,11.93l7.793,-11.072l2.271,0.094c1.454,0.06 2.91,0.112 4.367,0.158l2.331,0.073l6.582,11.519l7.146,-11.378l2.275,-0.024c1.495,-0.015 2.987,-0.038 4.477,-0.069l2.33,-0.048l7.125,11.076l6.484,-11.639l2.273,-0.141c1.529,-0.095 3.057,-0.198 4.582,-0.309l2.322,-0.169l7.636,10.602l5.814,-11.863l2.264,-0.26c1.559,-0.179 3.116,-0.366 4.67,-0.562l2.311,-0.29l8.119,10.109l5.143,-12.06l2.247,-0.378c1.58,-0.266 3.156,-0.54 4.73,-0.823l2.293,-0.413c0,0 8.582,9.608 8.582,9.609l4.474,-12.239l2.223,-0.496c1.588,-0.354 3.173,-0.717 4.754,-1.089l2.269,-0.533l9.029,9.101l3.807,-12.402l2.194,-0.613c1.582,-0.442 3.161,-0.893 4.737,-1.353l2.239,-0.653l9.464,8.59l3.141,-12.554l2.157,-0.728c1.564,-0.528 3.124,-1.064 4.68,-1.609l2.204,-0.772c0,-0 9.889,8.074 9.889,8.074l2.474,-12.695l2.115,-0.841c1.533,-0.609 3.062,-1.227 4.586,-1.853l2.161,-0.888c0,-0 10.304,7.551 10.304,7.551l1.804,-12.823l2.068,-0.951c1.49,-0.686 2.976,-1.38 4.457,-2.082l2.114,-1.002l10.708,7.02l1.129,-12.935l2.014,-1.059c1.439,-0.757 2.873,-1.521 4.302,-2.293l2.058,-1.112l11.1,6.474l0.448,-13.026l1.955,-1.164c1.38,-0.82 2.754,-1.649 4.123,-2.484l1.999,-1.219l11.474,5.913l-0.241,-13.093l1.892,-1.265c1.315,-0.879 2.625,-1.765 3.929,-2.657l1.932,-1.323c0,0 11.828,5.335 11.828,5.335l-0.935,-13.129l1.824,-1.363c1.246,-0.931 2.487,-1.869 3.723,-2.814l1.861,-1.422l12.155,4.737l-1.634,-13.131l1.75,-1.457c1.176,-0.978 2.347,-1.963 3.512,-2.954l1.784,-1.517c0,-0 12.453,4.12 12.453,4.12l-2.336,-13.095l1.673,-1.547c1.104,-1.022 2.203,-2.049 3.297,-3.082l1.703,-1.608l12.716,3.485l-3.038,-13.018l1.591,-1.634c1.032,-1.06 2.06,-2.126 3.081,-3.197l1.617,-1.695l12.943,2.832l-3.736,-12.9l1.504,-1.715c0.961,-1.096 1.916,-2.197 2.866,-3.303l1.527,-1.777l13.13,2.165l-4.429,-12.74l1.413,-1.792c0.889,-1.129 1.773,-2.262 2.652,-3.4l1.432,-1.854l13.278,1.485l-5.113,-12.539l1.317,-1.864c0.818,-1.158 1.631,-2.32 2.437,-3.487l1.334,-1.927c0,-0 13.387,0.796 13.387,0.796l-5.787,-12.3l1.217,-1.931c0.746,-1.184 1.487,-2.371 2.222,-3.562l1.231,-1.996l13.459,0.099l-6.451,-12.025l1.114,-1.992c0.673,-1.205 1.341,-2.413 2.004,-3.625l1.125,-2.059l13.494,-0.602l-7.102,-11.718l1.007,-2.047c0.6,-1.221 1.195,-2.445 1.784,-3.672l1.017,-2.118l13.496,-1.307l-7.743,-11.38l0.897,-2.097c0.526,-1.23 1.047,-2.464 1.562,-3.7l0.905,-2.171l13.466,-2.016l-8.37,-11.013l0.783,-2.14c0.452,-1.234 0.899,-2.47 1.339,-3.709l0.789,-2.217l13.409,-2.727l-8.988,-10.621l0.668,-2.177c0.378,-1.229 0.75,-2.46 1.116,-3.694l0.672,-2.258l13.322,-3.44l-9.595,-10.201l0.552,-2.208c0.304,-1.216 0.602,-2.435 0.896,-3.656l0.551,-2.293c0,0 13.207,-4.154 13.207,-4.154l-10.188,-9.754l0.433,-2.232c0.233,-1.197 0.46,-2.396 0.682,-3.597l0.43,-2.321l13.06,-4.868l-10.765,-9.278l0.315,-2.25c0.163,-1.172 0.322,-2.346 0.477,-3.521l0.307,-2.342c0,0 12.878,-5.58 12.878,-5.58l-11.32,-8.768l0.196,-2.262c0.098,-1.144 0.193,-2.289 0.283,-3.435l0.184,-2.356l12.653,-6.285l-11.842,-8.22l0.077,-2.269c0.038,-1.116 0.071,-2.233 0.101,-3.351l0.062,-2.362l12.379,-6.976l-12.321,-7.632l-0.041,-2.271c-0.019,-1.095 -0.043,-2.188 -0.071,-3.281l-0.06,-2.36l12.047,-7.643l-12.747,-7.003l-0.159,-2.266c-0.075,-1.077 -0.155,-2.153 -0.238,-3.228l-0.183,-2.353l11.66,-8.281l-13.127,-6.345l-0.277,-2.255c-0.131,-1.061 -0.265,-2.121 -0.404,-3.18l-0.305,-2.34l11.229,-8.894l-13.468,-5.664l-0.395,-2.235c-0.185,-1.044 -0.373,-2.087 -0.566,-3.128l-0.428,-2.322l10.765,-9.483l-13.776,-4.966l-0.512,-2.209c-0.237,-1.023 -0.478,-2.045 -0.723,-3.065l-0.551,-2.298c-0,0 10.272,-10.05 10.272,-10.05l-14.052,-4.254l-0.628,-2.176c-0.288,-0.998 -0.579,-1.994 -0.874,-2.988l-0.673,-2.267l9.754,-10.598l-14.299,-3.528l-0.742,-2.137c-0.335,-0.967 -0.674,-1.932 -1.016,-2.895l-0.792,-2.23l9.211,-11.126l-14.517,-2.79l-0.853,-2.092c-0.379,-0.932 -0.762,-1.861 -1.147,-2.789l-0.909,-2.185l8.644,-11.633l-14.702,-2.039l-0.962,-2.043c-0.42,-0.892 -0.842,-1.782 -1.268,-2.671l-1.023,-2.135l8.052,-12.115l-14.852,-1.278l-1.067,-1.988c-0.456,-0.85 -0.915,-1.698 -1.377,-2.545l-1.134,-2.079l7.434,-12.57l-14.964,-0.507l-1.168,-1.927c-0.49,-0.807 -0.982,-1.612 -1.477,-2.416l-1.24,-2.016l6.79,-12.995l-15.032,0.273l-1.268,-1.862c-0.52,-0.764 -1.042,-1.526 -1.566,-2.286l-1.344,-1.948c-0,0 6.121,-13.384 6.121,-13.384l-15.055,1.058l-1.363,-1.793c-0.548,-0.721 -1.098,-1.44 -1.65,-2.158l-1.443,-1.873c-0,-0 5.427,-13.734 5.427,-13.734l-15.028,1.845l-1.454,-1.72c-0.575,-0.679 -1.152,-1.357 -1.731,-2.033l-1.537,-1.795l4.711,-14.041l-14.951,2.631l-1.541,-1.641c-0.601,-0.64 -1.204,-1.278 -1.809,-1.914l-1.628,-1.711c0,-0 3.974,-14.302 3.974,-14.302l-14.822,3.411l-1.624,-1.559c-0.627,-0.601 -1.256,-1.201 -1.887,-1.798l-1.712,-1.623l3.22,-14.517l-14.643,4.183l-1.704,-1.472c-0.653,-0.564 -1.307,-1.126 -1.964,-1.686l-1.793,-1.531l2.455,-14.683l-14.417,4.943l-1.778,-1.381c-0.679,-0.527 -1.36,-1.052 -2.041,-1.576l-1.87,-1.434c0,0 1.679,-14.803 1.679,-14.803l-14.146,5.689l-1.847,-1.286c-0.704,-0.49 -1.409,-0.978 -2.116,-1.465l-1.94,-1.333l0.897,-14.879l-13.834,6.42l-1.911,-1.188c-0.728,-0.452 -1.456,-0.902 -2.187,-1.35l-2.006,-1.23c0,0 0.112,-14.912 0.112,-14.912l-13.485,7.135l-1.971,-1.086c-0.747,-0.413 -1.497,-0.823 -2.247,-1.231l-2.067,-1.123l-0.675,-14.908l-13.104,7.834l-2.024,-0.981c-0.764,-0.37 -1.53,-0.738 -2.297,-1.104l-2.122,-1.013l-1.461,-14.871l-12.695,8.519l-2.072,-0.873c-0.775,-0.326 -1.55,-0.65 -2.327,-0.972l-2.172,-0.899l-2.248,-14.804l-12.261,9.191l-2.114,-0.762c-0.777,-0.28 -1.556,-0.558 -2.335,-0.833l-2.216,-0.784l-3.034,-14.711l-11.804,9.853l-2.15,-0.649c-0.772,-0.232 -1.544,-0.463 -2.318,-0.692l-2.254,-0.666l-3.821,-14.592l-11.324,10.504l-2.18,-0.534c-0.757,-0.185 -1.514,-0.368 -2.273,-0.55l-2.286,-0.546l-4.608,-14.45l-10.821,11.146l-2.204,-0.418c-0.733,-0.139 -1.467,-0.276 -2.201,-0.411l-2.312,-0.426l-5.397,-14.28l-10.29,11.775l-2.222,-0.301c-0.702,-0.095 -1.404,-0.189 -2.106,-0.281l-2.33,-0.304l-6.187,-14.08l-9.728,12.387l-2.235,-0.185c-0.664,-0.055 -1.329,-0.108 -1.994,-0.16l-2.341,-0.183l-6.973,-13.843l-9.131,12.973l-2.243,-0.069c-0.625,-0.019 -1.25,-0.037 -1.876,-0.053l-2.344,-0.062l-7.75,-13.561l-8.492,13.521l-2.246,0.047c-0.589,0.013 -1.177,0.026 -1.766,0.041l-2.341,0.058c0,0 -8.507,-13.224 -8.507,-13.224l-7.813,14.024l-2.242,0.164c-0.556,0.04 -1.111,0.082 -1.666,0.125l-2.332,0.179l-9.244,-12.835l-7.102,14.489l-2.232,0.281c-0.521,0.065 -1.042,0.132 -1.563,0.199l-2.319,0.3l-9.962,-12.404l-6.365,14.924l-2.214,0.398c-0.485,0.086 -0.969,0.174 -1.452,0.263l-2.3,0.42l-10.664,-11.939l-5.606,15.333l-2.19,0.513c-0.442,0.104 -0.884,0.208 -1.325,0.313l-2.275,0.54l-11.353,-11.443l-4.825,15.717l-2.16,0.628c-0.394,0.114 -0.789,0.23 -1.183,0.345l-2.243,0.66c-0,-0 -12.03,-10.919 -12.03,-10.919l-4.022,16.076l-2.124,0.741c-0.342,0.12 -0.684,0.239 -1.025,0.36l-2.207,0.776c0,-0 -12.693,-10.365 -12.693,-10.364l-3.198,16.409l-2.081,0.852c-0.286,0.116 -0.572,0.234 -0.857,0.351l-2.163,0.891l-13.342,-9.778l-2.351,16.711l-2.033,0.96c-0.228,0.108 -0.455,0.215 -0.682,0.323l-2.113,1.002l-13.971,-9.157l-1.482,16.976l-1.981,1.066c-0.169,0.091 -0.337,0.182 -0.506,0.273l-2.058,1.111l-14.577,-8.502l-0.59,17.2l-1.923,1.168c-0.112,0.068 -0.224,0.137 -0.336,0.205l-1.997,1.216l-15.152,-7.809l0.319,17.375l-1.86,1.268l-0.177,0.12l-1.931,1.318l-15.691,-7.078l1.246,17.495l-1.793,1.364l-1.893,1.441l-16.188,-6.309l1.892,15.205l-5.443,4.47c-0,0 -14.314,-4.736 -14.314,-4.736l2.69,15.082l-5.203,4.75l-14.54,-3.985l3.481,14.918l-4.949,5.017c0,-0 -14.726,-3.223 -14.726,-3.223l4.261,14.712l-4.68,5.271c-0,-0 -14.873,-2.452 -14.873,-2.452l5.03,14.467l-0.027,0.033c0.072,0.135 0.142,0.299 0.21,0.494c0.356,1.023 -3.566,5.161 -3.909,5.519l3.331,-1.684l-1.137,0.624l1.073,-0.525l-0.179,0.23l-3.291,1.612l-0.285,-0.563l-0.35,-0.25l-14.812,-1.657l5.784,14.183l-0.025,0.035c0.08,0.133 0.159,0.293 0.236,0.484c0.329,0.805 -1.986,3.67 -3.166,5.054l0.255,0.171l2.54,-1.373l-0.157,0.239l0.118,-0.062c-0.455,0.653 -0.908,1.307 -1.36,1.962c-0.019,0.028 -0.037,0.055 -0.056,0.083l-1.094,-0.735l-0.908,0.474Zm0.662,-0.759l-0.453,-0.304c-0.009,0.035 -0.018,0.069 -0.026,0.102l0.414,0.278l0.065,-0.076Zm-0.453,-0.304c0.061,-0.241 0.134,-0.516 0.216,-0.811l-0.463,0.646l0.247,0.165Zm-0.247,-0.165l-0.637,-0.428l0.067,0.165l0.512,0.344l0.058,-0.081Zm-0.57,-0.263l-0.262,-0.176l0.483,0.926l0.054,-0.075l-0.275,-0.675Zm0.221,0.75l-0.102,0.142l-0.353,-0.021l0.798,0.536l-0.343,-0.657Zm0.343,0.657l0.044,0.084c0,0 0.057,-0.063 0.158,-0.177l-0.189,0.102l-0.013,-0.009Zm0.961,-0.504l-0.099,0.054l0.09,0.06l0.101,-0.052l-0.092,-0.062Zm357.629,-183.002c236.489,0 428.461,191.363 428.461,427.033c-0,235.671 -191.972,427.033 -428.461,427.033c-236.489,0 -428.461,-191.362 -428.461,-427.033c0,-235.67 191.972,-427.033 428.461,-427.033Zm-0,4.167c-234.186,-0 -424.294,189.491 -424.294,422.866c-0,233.375 190.108,422.867 424.294,422.867c234.186,-0 424.294,-189.492 424.294,-422.867c-0,-233.375 -190.108,-422.866 -424.294,-422.866Zm-371.085,194.069l-2.344,4.03c0.794,-1.306 1.595,-2.608 2.402,-3.905l-0.058,-0.125Zm25.995,-37.099l-0.176,0.241l0.18,-0.232l-0.004,-0.009Zm-13.487,18.211l-1.399,2.14c0.475,-0.69 0.952,-1.378 1.43,-2.064l-0.031,-0.076Zm-12.759,22.522l0.251,0.532c-0,0 0.104,-0.567 0.289,-1.377l-0.54,0.845Zm25.446,-37.137l0.333,0.238l-0.137,-0.272l-0.042,0.052l-0.154,-0.018Zm-36.692,53.015l-3.042,5.93c1.204,-2.261 2.428,-4.511 3.671,-6.748l-0.555,0.954l-0.074,-0.136Zm-43.264,96.82l2.255,-8.359l-8.14,2.102l5.885,6.257Zm-14.055,90.009l0.456,-8.642l-7.522,3.737l7.066,4.905Z" style="fill:#f2f2f2;"/><g transform="matrix(4.16667,0,0,4.16667,-15.3778,-77.3678)"><g transform="matrix(0.773936,-0.633264,0.633264,0.773936,-86.8002,172.694)"><text x="198.481px" y="207.922px" style="font-family:'Arial-BoldMT', 'Arial', sans-serif;font-weight:700;font-size:12px;fill:#f2f2f2;">C</text></g><g transform="matrix(0.840129,-0.542386,0.542386,0.840129,-77.4644,143.28)"><text x="204.317px" y="203.045px" style="font-family:'Arial-BoldMT', 'Arial', sans-serif;font-weight:700;font-size:12px;fill:#f2f2f2;">O</text></g><g transform="matrix(0.892959,-0.450137,0.450137,0.892959,-66.7575,116.347)"><text x="211.258px" y="198.541px" style="font-family:'Arial-BoldMT', 'Arial', sans-serif;font-weight:700;font-size:12px;fill:#f2f2f2;">L</text></g><g transform="matrix(0.933167,-0.359444,0.359444,0.933167,-55.8227,91.0024)"><text x="216.804px" y="195.614px" style="font-family:'Arial-BoldMT', 'Arial', sans-serif;font-weight:700;font-size:12px;fill:#f2f2f2;">O</text></g><g transform="matrix(0.969014,-0.247007,0.247007,0.969014,-40.6101,61.4227)"><text x="224.511px" y="192.573px" style="font-family:'Arial-BoldMT', 'Arial', sans-serif;font-weight:700;font-size:12px;fill:#f2f2f2;">R</text></g><g transform="matrix(0.99561,-0.0935968,0.0935968,0.99561,-16.733,22.9529)"><text x="236.327px" y="189.862px" style="font-family:'Arial-BoldMT', 'Arial', sans-serif;font-weight:700;font-size:12px;fill:#f2f2f2;">T</text></g><g transform="matrix(0.999921,0.0125643,-0.0125643,0.999921,2.39571,-3.03686)"><text x="242.893px" y="189.149px" style="font-family:'Arial-BoldMT', 'Arial', sans-serif;font-weight:700;font-size:12px;fill:#f2f2f2;">R</text></g><g transform="matrix(0.996799,0.0799436,-0.0799436,0.996799,15.9359,-19.4441)"><text x="250.802px" y="189.298px" style="font-family:'Arial-BoldMT', 'Arial', sans-serif;font-weight:700;font-size:12px;fill:#f2f2f2;">I</text></g><g transform="matrix(0.98836,0.152135,-0.152135,0.98836,31.7609,-36.3436)"><text x="253.38px" y="189.38px" style="font-family:'Arial-BoldMT', 'Arial', sans-serif;font-weight:700;font-size:12px;fill:#f2f2f2;">N</text></g><g transform="matrix(0.974181,0.225769,-0.225769,0.974181,49.7882,-54.0472)"><text x="261.195px" y="190.657px" style="font-family:'Arial-BoldMT', 'Arial', sans-serif;font-weight:700;font-size:12px;fill:#f2f2f2;">I</text></g><g transform="matrix(0.953304,0.302013,-0.302013,0.953304,70.029,-70.732)"><text x="263.748px" y="191.094px" style="font-family:'Arial-BoldMT', 'Arial', sans-serif;font-weight:700;font-size:12px;fill:#f2f2f2;">O</text></g><g transform="matrix(0.911931,0.410344,-0.410344,0.911931,103.418,-94.531)"><text x="271.935px" y="193.663px" style="font-family:'Arial-BoldMT', 'Arial', sans-serif;font-weight:700;font-size:12px;fill:#f2f2f2;">N</text></g><g transform="matrix(0.874543,0.484949,-0.484949,0.874543,130.531,-110.649)"><text x="279.119px" y="196.956px" style="font-family:'Arial-BoldMT', 'Arial', sans-serif;font-weight:700;font-size:12px;fill:#f2f2f2;">-</text></g><g transform="matrix(0.838808,0.544428,-0.544428,0.838808,153.501,-121.553)"><text x="282.024px" y="198.449px" style="font-family:'Arial-BoldMT', 'Arial', sans-serif;font-weight:700;font-size:12px;fill:#f2f2f2;">L</text></g><g transform="matrix(0.781658,0.623707,-0.623707,0.781658,188.753,-135.27)"><text x="287.58px" y="201.958px" style="font-family:'Arial-BoldMT', 'Arial', sans-serif;font-weight:700;font-size:12px;fill:#f2f2f2;">A</text></g><g transform="matrix(0.707306,0.706908,-0.706908,0.707306,232.236,-147.141)"><text x="293.803px" y="206.875px" style="font-family:'Arial-BoldMT', 'Arial', sans-serif;font-weight:700;font-size:12px;fill:#f2f2f2;">N</text></g><g transform="matrix(0.630933,0.775837,-0.775837,0.630933,275.33,-153.871)"><text x="299.395px" y="212.458px" style="font-family:'Arial-BoldMT', 'Arial', sans-serif;font-weight:700;font-size:12px;fill:#f2f2f2;">T</text></g><g transform="matrix(0.54793,0.836524,-0.836524,0.54793,319.221,-155.64)"><text x="303.611px" y="217.528px" style="font-family:'Arial-BoldMT', 'Arial', sans-serif;font-weight:700;font-size:12px;fill:#f2f2f2;">H</text></g><g transform="matrix(0.449658,0.893201,-0.893201,0.449658,369.696,-151.743)"><text x="307.987px" y="224.135px" style="font-family:'Arial-BoldMT', 'Arial', sans-serif;font-weight:700;font-size:12px;fill:#f2f2f2;">A</text></g><g transform="matrix(0.34514,0.938551,-0.938551,0.34514,421.014,-141.042)"><text x="311.578px" y="231.18px" style="font-family:'Arial-BoldMT', 'Arial', sans-serif;font-weight:700;font-size:12px;fill:#f2f2f2;">N</text></g><g transform="matrix(0.182728,0.983164,-0.983164,0.182728,497.452,-111.207)"><text x="315.616px" y="243.61px" style="font-family:'Arial-BoldMT', 'Arial', sans-serif;font-weight:700;font-size:12px;fill:#f2f2f2;">1</text></g><g transform="matrix(0.110046,0.993927,-0.993927,0.110046,529.729,-92.7501)"><text x="316.658px" y="249.433px" style="font-family:'Arial-BoldMT', 'Arial', sans-serif;font-weight:700;font-size:12px;fill:#f2f2f2;">:</text></g><g transform="matrix(0.0467861,0.998905,-0.998905,0.0467861,554.611,-75.9017)"><text x="317.075px" y="252.647px" style="font-family:'Arial-BoldMT', 'Arial', sans-serif;font-weight:700;font-size:12px;fill:#f2f2f2;">2</text></g><g transform="matrix(-0.0144056,0.999896,-0.999896,-0.0144056,580.417,-55.0032)"><text x="317.317px" y="258.556px" style="font-family:'Arial-BoldMT', 'Arial', sans-serif;font-weight:700;font-size:12px;fill:#f2f2f2;">,</text></g><g transform="matrix(-0.0760941,0.997101,-0.997101,-0.0760941,601.891,-35.4089)"><text x="317.35px" y="261.149px" style="font-family:'Arial-BoldMT', 'Arial', sans-serif;font-weight:700;font-size:12px;fill:#f2f2f2;">8</text></g><g transform="matrix(-0.137297,0.99053,-0.99053,-0.137297,624.897,-10.1562)"><text x="316.871px" y="267.049px" style="font-family:'Arial-BoldMT', 'Arial', sans-serif;font-weight:700;font-size:12px;fill:#f2f2f2;">/</text></g><g transform="matrix(-0.197488,0.980305,-0.980305,-0.197488,643.41,12.4949)"><text x="316.591px" y="269.606px" style="font-family:'Arial-BoldMT', 'Arial', sans-serif;font-weight:700;font-size:12px;fill:#f2f2f2;">4</text></g><g transform="matrix(-0.282622,0.959231,-0.959231,-0.282622,668.809,50.6796)"><text x="315.454px" y="275.43px" style="font-family:'Arial-BoldMT', 'Arial', sans-serif;font-weight:700;font-size:12px;fill:#f2f2f2;">5</text></g><g transform="matrix(-0.569177,0.822215,-0.822215,-0.569177,724.959,210.462)"><text x="307.341px" y="295.162px" style="font-family:'Arial-BoldMT', 'Arial', sans-serif;font-weight:700;font-size:12px;fill:#f2f2f2;">P</text></g><g transform="matrix(-0.691339,0.722531,-0.722531,-0.691339,728.954,296.125)"><text x="301.225px" y="303.765px" style="font-family:'Arial-BoldMT', 'Arial', sans-serif;font-weight:700;font-size:12px;fill:#f2f2f2;">R</text></g><g transform="matrix(-0.796079,0.605192,-0.605192,-0.796079,715.594,382.424)"><text x="293.368px" y="311.772px" style="font-family:'Arial-BoldMT', 'Arial', sans-serif;font-weight:700;font-size:12px;fill:#f2f2f2;">O</text></g><g transform="matrix(-0.883517,0.468399,-0.468399,-0.883517,683.767,467.531)"><text x="283.75px" y="318.786px" style="font-family:'Arial-BoldMT', 'Arial', sans-serif;font-weight:700;font-size:12px;fill:#f2f2f2;">N</text></g><g transform="matrix(-0.943592,0.331111,-0.331111,-0.943592,639.243,538.743)"><text x="273.731px" y="323.822px" style="font-family:'Arial-BoldMT', 'Arial', sans-serif;font-weight:700;font-size:12px;fill:#f2f2f2;">T</text></g><g transform="matrix(-0.982713,0.185137,-0.185137,-0.982713,585.1,599.226)"><text x="264.573px" y="326.93px" style="font-family:'Arial-BoldMT', 'Arial', sans-serif;font-weight:700;font-size:12px;fill:#f2f2f2;">O</text></g><g transform="matrix(-0.999815,0.0192375,-0.0192375,-0.999815,511.991,652.924)"><text x="252.855px" y="328.925px" style="font-family:'Arial-BoldMT', 'Arial', sans-serif;font-weight:700;font-size:12px;fill:#f2f2f2;">R</text></g><g transform="matrix(-0.979872,-0.199625,0.199625,-0.979872,401.328,697.025)"><text x="235.803px" y="328.28px" style="font-family:'Arial-BoldMT', 'Arial', sans-serif;font-weight:700;font-size:12px;fill:#f2f2f2;">5</text></g><g transform="matrix(-0.9461,-0.323873,0.323873,-0.9461,335.702,708.431)"><text x="226.8px" y="326.281px" style="font-family:'Arial-BoldMT', 'Arial', sans-serif;font-weight:700;font-size:12px;fill:#f2f2f2;">0</text></g><g transform="matrix(-0.895748,-0.444563,0.444563,-0.895748,269.855,709.537)"><text x="218.123px" y="323.127px" style="font-family:'Arial-BoldMT', 'Arial', sans-serif;font-weight:700;font-size:12px;fill:#f2f2f2;">0</text></g><g transform="matrix(-0.775818,-0.630957,0.630957,-0.775818,164.926,689.899)"><text x="205.025px" y="315.65px" style="font-family:'Arial-BoldMT', 'Arial', sans-serif;font-weight:700;font-size:12px;fill:#f2f2f2;">S</text></g><g transform="matrix(-0.690531,-0.723303,0.723303,-0.690531,109.722,664.525)"><text x="197.021px" y="308.79px" style="font-family:'Arial-BoldMT', 'Arial', sans-serif;font-weight:700;font-size:12px;fill:#f2f2f2;">-</text></g><g transform="matrix(-0.599651,-0.800261,0.800261,-0.599651,64.6143,640.4)"><text x="192.494px" y="304.037px" style="font-family:'Arial-BoldMT', 'Arial', sans-serif;font-weight:700;font-size:12px;fill:#f2f2f2;">E</text></g><g transform="matrix(-0.308561,-0.951205,0.951205,-0.308561,-34.2886,545.09)"><text x="180.971px" y="285.007px" style="font-family:'Arial-BoldMT', 'Arial', sans-serif;font-weight:700;font-size:12px;fill:#f2f2f2;">R</text></g><g transform="matrix(-0.2002,-0.979755,0.979755,-0.2002,-57.7973,508.081)"><text x="178.481px" y="277.631px" style="font-family:'Arial-BoldMT', 'Arial', sans-serif;font-weight:700;font-size:12px;fill:#f2f2f2;">O</text></g><g transform="matrix(-0.0824607,-0.996594,0.996594,-0.0824607,-77.1069,467.702)"><text x="176.747px" y="269.346px" style="font-family:'Arial-BoldMT', 'Arial', sans-serif;font-weight:700;font-size:12px;fill:#f2f2f2;">D</text></g><g transform="matrix(0.0236059,-0.999721,0.999721,0.0236059,-89.6123,431.43)"><text x="176.063px" y="261.592px" style="font-family:'Arial-BoldMT', 'Arial', sans-serif;font-weight:700;font-size:12px;fill:#f2f2f2;">E</text></g><g transform="matrix(0.127835,-0.991795,0.991795,0.127835,-98.7218,396.641)"><text x="176.162px" y="254.452px" style="font-family:'Arial-BoldMT', 'Arial', sans-serif;font-weight:700;font-size:12px;fill:#f2f2f2;">N</text></g><g transform="matrix(0.233319,-0.9724,0.9724,0.233319,-104.116,361.408)"><text x="177.133px" y="246.73px" style="font-family:'Arial-BoldMT', 'Arial', sans-serif;font-weight:700;font-size:12px;fill:#f2f2f2;">S</text></g><g transform="matrix(0.328681,-0.944441,0.944441,0.328681,-106.481,329.828)"><text x="178.768px" y="239.815px" style="font-family:'Arial-BoldMT', 'Arial', sans-serif;font-weight:700;font-size:12px;fill:#f2f2f2;">T</text></g><g transform="matrix(0.425905,-0.904768,0.904768,0.425905,-107.851,297.774)"><text x="180.719px" y="233.873px" style="font-family:'Arial-BoldMT', 'Arial', sans-serif;font-weight:700;font-size:12px;fill:#f2f2f2;">O</text></g><g transform="matrix(0.527552,-0.849523,0.849523,0.527552,-105.115,263.433)"><text x="184.286px" y="226.221px" style="font-family:'Arial-BoldMT', 'Arial', sans-serif;font-weight:700;font-size:12px;fill:#f2f2f2;">C</text></g><g transform="matrix(0.623651,-0.781703,0.781703,0.623651,-100.738,229.855)"><text x="188.343px" y="219.548px" style="font-family:'Arial-BoldMT', 'Arial', sans-serif;font-weight:700;font-size:12px;fill:#f2f2f2;">K</text></g></g><path d="M380.908,720.028l-8.873,-53.464l136.814,0l-13.632,53.464l-114.309,0Zm7.064,-8.333l100.77,-0l9.382,-36.798l-116.258,0.001l6.106,36.797Z" style="fill:#f2f2f2;"/><path d="M1020.43,327.032l-108.349,0l0,-73.955l108.349,-0l0,73.955Zm-6.25,-67.705l-95.849,-0l0,61.455l95.849,0l0,-61.455Z" style="fill:#f2f2f2;"/><path d="M693.289,341.655l-409.156,-0l-0,-96.803l409.156,0l0,96.803Zm-6.25,-90.553l-396.656,0l-0,84.303l396.656,-0l0,-84.303Z" style="fill:#f2f2f2;"/><g transform="matrix(4.16667,0,0,4.16667,-29.6726,-94.1975)"><text x="85.154px" y="98.464px" style="font-family:'Arial-BoldMT', 'Arial', sans-serif;font-weight:700;font-size:16px;fill:#f2f2f2;">e<tspan x="92.869px 96.13px 103.845px 111.559px 115.703px 120.746px 124.007px " y="98.464px 98.464px 98.464px 98.464px 98.464px 98.464px 98.464px ">lectric</tspan></text><g transform="matrix(17.4572,0,0,17.4572,166.022,98.4643)"></g><text x="134.983px" y="98.464px" style="font-family:'Arial-BoldMT', 'Arial', sans-serif;font-weight:700;font-size:17.457px;fill:#f2f2f2;">-<tspan x="139.504px 143.063px 153.415px " y="98.464px 98.464px 98.464px "> SR</tspan></text></g><path d="M789.365,417.008l-603.821,-0l0,-251.563l603.821,-0l0,251.563Zm-6.25,-245.313l-591.321,-0l0,239.063l591.321,-0l0,-239.063Z" style="fill:#f2f2f2;"/><path d="M1304.61,426.672l407.251,-0l0,-281.236l-1550.89,0l-0,281.236l960.673,-0" style="fill:none;stroke:#f2f2f2;stroke-width:6.25px;stroke-linecap:square;stroke-miterlimit:100;"/><path d="M1303.65,198.96l0,283.47l-182.001,-0l-0,-283.47l182.001,-0Zm-6.25,6.25c0,-0 -169.501,-0 -169.501,-0l-0,270.97c-0,-0 169.502,-0 169.501,-0l0,-270.97Z" style="fill:#f2f2f2;"/><path d="M1305.08,410.758l372.314,-0l-0,-239.063l-870.345,-0l0,239.063l314.598,-0" style="fill:none;stroke:#f2f2f2;stroke-width:6.25px;stroke-linecap:square;stroke-miterlimit:100;"/><path d="M1274.88,238.47l-0,119.611l-126.902,0l-0,-119.611l126.902,0Zm-6.25,6.25l-114.402,0l-0,107.111l114.402,0l0,-107.111Z" style="fill:#f2f2f2;"/><path d="M1256.05,255.948l-0,83.63l-84.72,-0l0,-83.63l84.72,0Zm-6.25,6.25c-0,0 -72.22,0 -72.22,-0l0,71.13c0,-0 72.22,-0 72.22,-0l-0,-71.13Z" style="fill:#f2f2f2;"/><path d="M1213.69,263.94c18.91,-0 34.263,15.155 34.263,33.823c0,18.667 -15.353,33.823 -34.263,33.823c-18.911,-0 -34.264,-15.156 -34.264,-33.823c0,-18.668 15.353,-33.823 34.264,-33.823Zm-0,6.25c-15.439,-0 -28.014,12.332 -28.014,27.573c0,15.24 12.575,27.573 28.014,27.573c15.439,-0 28.013,-12.333 28.013,-27.573c0,-15.241 -12.574,-27.573 -28.013,-27.573Z" style="fill:#f2f2f2;"/><g transform="matrix(0.55,0,0,1,229.52,0)"><g transform="matrix(60.1941,0,0,60.1941,1870.55,415.802)"></g><text x="1717.55px" y="415.802px" style="font-family:'Arial-BoldMT', 'Arial', sans-serif;font-weight:700;font-size:60.194px;fill:#f2f2f2;">B<tspan x="1759.63px 1798.4px 1853.83px " y="415.802px 415.802px 415.802px ">EWI</tspan></text></g><path d="M1549.23,208.139l0,73.592l-132.23,0l0,-73.592l132.23,0Zm-6.25,6.25l-119.73,0l0,61.092l119.73,0l0,-61.092Z" style="fill:#f2f2f2;"/><path d="M1627.4,184.557c0,-0 4.167,51.521 4.167,77.338c-0,29.936 -4.167,102.279 -4.167,102.279c0,-0 -91.812,8.333 -137.202,8.333c-45.132,0 -135.139,-8.333 -135.139,-8.333c0,-0 -4.166,-77.023 -4.166,-106.959c-0,-24.259 4.166,-72.658 4.166,-72.658l272.341,-0Zm-5.782,6.25l-260.805,-0c-1.087,13.449 -3.67,47.396 -3.67,66.408c-0,25.062 2.932,83.23 3.872,101.221c19.994,1.776 90.847,7.821 129.183,7.821c38.633,0 111.036,-6.068 131.266,-7.832c0.957,-17.282 3.853,-71.628 3.853,-96.53c-0,-20.413 -2.626,-57.001 -3.699,-71.088Z" style="fill:#f2f2f2;"/><path d="M493.669,468.07l-387.122,0c-74.092,0 -96.061,-7.397 -96.061,-7.397" style="fill:none;stroke:#f2f2f2;stroke-width:16.67px;stroke-miterlimit:100;"/><path d="M1227.28,46.971l-54.695,0l-0,41.259" style="fill:none;stroke:#f2f2f2;stroke-width:8.33px;stroke-miterlimit:100;"/><path d="M1227.28,46.971l-5.763,-34.21l-52.167,0l3.235,34.21" style="fill:none;stroke:#f2f2f2;stroke-width:8.33px;stroke-miterlimit:100;"/><rect x="1437.86" y="46.971" width="54.696" height="44.023" style="fill:#f2f2f2;"/><path d="M1437.86,46.971l54.695,0l0,44.023l-54.695,0l-0,-44.023Zm8.333,8.333l0,27.357c0,-0 38.029,-0 38.029,-0l0,-27.357l-38.029,0Z" style="fill:#f2f2f2;"/><path d="M1437.86,46.971l-10.904,-34.21l52.168,0l13.431,34.21" style="fill:none;stroke:#f2f2f2;stroke-width:8.33px;stroke-miterlimit:100;"/><ellipse cx="1918.28" cy="81.198" rx="34.927" ry="7.032" style="fill:#f2f2f2;stroke:#f2f2f2;stroke-width:8.33px;"/><path d="M142.095,93.886c-39.557,-2.988 -64.876,-7.564 -64.876,-12.688c0,-8.994 78.009,-16.297 174.095,-16.297c96.086,0 174.095,7.303 174.095,16.297c0,4.812 -22.325,9.139 -57.8,12.124c-19.783,-8.594 -62.576,-14.55 -112.128,-14.55c-50.63,-0 -94.203,6.218 -113.386,15.114Z" style="fill:none;stroke:#f2f2f2;stroke-width:8.33px;"/><path d="M367.609,93.322c-30.837,2.594 -71.612,4.173 -116.295,4.173c-41.345,0 -79.343,-1.352 -109.219,-3.609c19.183,-8.896 62.756,-15.114 113.386,-15.114c49.552,-0 92.345,5.956 112.128,14.55Z" style="fill:#f2f2f2;stroke:#f2f2f2;stroke-width:8.33px;"/></g></svg>