<?xml version="1.0" encoding="UTF-8" standalone="no"?>
<!DOCTYPE svg PUBLIC "-//W3C//DTD SVG 1.1//EN" "http://www.w3.org/Graphics/SVG/1.1/DTD/svg11.dtd">
<svg width="100%" height="100%" viewBox="0 0 710 480" version="1.1" xmlns="http://www.w3.org/2000/svg" xmlns:xlink="http://www.w3.org/1999/xlink" xml:space="preserve" xmlns:serif="http://www.serif.com/" style="fill-rule:evenodd;clip-rule:evenodd;stroke-linejoin:round;">
    <g transform="matrix(1,0,0,1,-45.2267,-60.3212)">
        <g id="Minolta" transform="matrix(1.49777,0,0,1.49777,-199.108,-149.331)">
            <g transform="matrix(1,0,0,1,-253.115,-86.1009)">
                <path d="M837.328,263.809L838.659,261.939L844.456,261.511L846.548,259.875L846.738,263.766" style="fill:none;stroke:white;stroke-width:1.85px;"/>
            </g>
            <g transform="matrix(1,0,0,1,-253.115,-86.1009)">
                <path d="M778.721,290.486L778.721,286.594L862.305,286.594L862.305,290.745" style="fill:none;stroke:white;stroke-width:1.85px;"/>
            </g>
            <g transform="matrix(1,0,0,1,-253.115,-86.1009)">
                <path d="M780.919,286.594L780.919,283.13L859.429,283.13L859.429,286.594" style="fill:none;stroke:white;stroke-width:1.85px;"/>
            </g>
            <g transform="matrix(1,0,0,1,-253.115,-86.1009)">
                <path d="M783.163,283.13L790.44,273.048L850.216,273.048L858.235,283.13" style="fill:none;stroke:white;stroke-width:1.85px;"/>
            </g>
            <g transform="matrix(1,0,0,1,-253.115,-86.1009)">
                <path d="M791.331,272.911C791.331,272.911 791.706,270.18 792.405,268.187C793.142,266.085 794.078,263.989 794.078,263.989L847.765,263.766C847.765,263.766 849.622,269.061 849.622,272.911" style="fill:none;stroke:white;stroke-width:1.85px;"/>
            </g>
            <g transform="matrix(1,0,0,1,-253.115,-86.1009)">
                <path d="M597.65,293.877C597.65,293.877 597.106,295.823 596.515,297.939C596.165,299.194 596.421,300.539 597.208,301.577C597.996,302.614 599.223,303.223 600.525,303.223C624.276,303.223 718.02,303.223 739.908,303.223C740.848,303.223 741.715,302.72 742.181,301.903C742.646,301.087 742.639,300.084 742.16,299.275C740.827,297.02 739.418,294.637 739.418,294.637" style="fill:none;stroke:white;stroke-width:1.85px;"/>
            </g>
            <g transform="matrix(1,0,0,1,-253.115,-86.1009)">
                <path d="M599.933,288.032C599.933,288.032 599.45,290.51 598.992,292.862C598.793,293.883 599.061,294.94 599.723,295.744C600.385,296.547 601.371,297.012 602.412,297.012C623.127,297.012 713.813,297.012 736.152,297.012C737.191,297.012 738.152,296.462 738.678,295.566C739.204,294.671 739.217,293.564 738.711,292.656C737.12,289.801 735.333,286.594 735.333,286.594" style="fill:none;stroke:white;stroke-width:1.85px;"/>
            </g>
            <g transform="matrix(1,0,0,1,-253.115,-86.1009)">
                <path d="M611.89,262.228L722.957,262.228" style="fill:none;stroke:white;stroke-width:1.85px;"/>
            </g>
            <g transform="matrix(1,0,0,1,-253.115,-86.1009)">
                <path d="M725,266.251L609.755,266.251" style="fill:none;stroke:white;stroke-width:1.85px;"/>
            </g>
            <g transform="matrix(1,0,0,1,-253.115,-86.6087)">
                <path d="M607.414,270.606L727.384,270.606" style="fill:none;stroke:white;stroke-width:1.85px;"/>
            </g>
            <g transform="matrix(1,0,0,1,-253.115,-86.1009)">
                <path d="M633.361,229.391C633.361,229.391 633.584,228.564 633.766,227.883C633.906,227.365 634.375,227.005 634.912,227.005C642.515,227.005 695.396,227.005 702.689,227.005C703.205,227.004 703.681,227.28 703.938,227.727C704.338,228.421 704.881,229.366 704.881,229.366" style="fill:none;stroke:white;stroke-width:1.85px;"/>
            </g>
            <g transform="matrix(1,0,0,1,-253.115,-86.1009)">
                <path d="M426.501,524.569L426.501,540.185" style="fill:none;stroke:white;stroke-width:1.85px;"/>
            </g>
            <g transform="matrix(1,0,0,1,-253.115,-86.1009)">
                <path d="M426.501,526.824L417.175,526.824" style="fill:none;stroke:white;stroke-width:1.85px;"/>
            </g>
            <g transform="matrix(1,0,0,1,-253.115,-86.1009)">
                <path d="M426.501,530.337L417.175,530.337" style="fill:none;stroke:white;stroke-width:1.85px;"/>
            </g>
            <g transform="matrix(1,0,0,1,-253.115,-86.1009)">
                <path d="M575.147,356.409L524.48,356.409L524.48,413.414C524.48,415.536 526.201,417.257 528.323,417.257C537.914,417.257 562.136,417.257 562.136,417.257" style="fill:none;stroke:white;stroke-width:1.85px;"/>
            </g>
            <g transform="matrix(1,0,0,1,-253.115,-86.1009)">
                <path d="M524.48,356.409L524.48,354.301C524.48,351.964 522.585,350.07 520.248,350.07C518.605,350.07 517.111,350.07 517.111,350.07" style="fill:none;stroke:white;stroke-width:1.85px;"/>
            </g>
            <g transform="matrix(1,0,0,1,-253.115,-86.1009)">
                <path d="M880.24,379.523C880.24,379.523 889.038,373.425 889.056,367.716C889.072,362.446 882.872,357.826 882.872,357.826L872.525,357.826L867.703,360.628L867.703,374.79L871.974,379.523L880.24,379.523Z" style="fill:none;stroke:white;stroke-width:1.85px;"/>
            </g>
            <g transform="matrix(0.695275,0,0,0.889481,13.1321,-45.0175)">
                <path d="M880.24,379.523C880.24,379.523 886.861,372.698 886.878,366.988C886.895,361.719 882.872,357.826 882.872,357.826L872.525,357.826L867.703,360.628L867.703,374.79L871.974,379.523L880.24,379.523Z" style="fill:none;stroke:white;stroke-width:2.32px;"/>
            </g>
            <g transform="matrix(1,0,0,1.39588,-253.115,-231.755)">
                <path d="M873.172,361.792L873.172,375.85" style="fill:none;stroke:white;stroke-width:1.53px;"/>
            </g>
            <g transform="matrix(1,0,0,1.1028,-253.477,-123.481)">
                <ellipse cx="878.741" cy="367.27" rx="2.257" ry="5.147" style="fill:none;stroke:white;stroke-width:1.76px;"/>
            </g>
            <g transform="matrix(1,0,0,1,-253.115,-86.1009)">
                <path d="M756.981,524.937L888.232,524.937L888.232,346.956C888.232,345.907 887.381,345.056 886.332,345.056C885.323,345.056 884.288,345.056 884.288,345.056" style="fill:none;stroke:white;stroke-width:1.85px;"/>
            </g>
            <g transform="matrix(1,0,0,1,-253.115,-86.1009)">
                <path d="M888.232,350.95L772.814,350.95" style="fill:none;stroke:white;stroke-width:1.85px;stroke-linejoin:bevel;"/>
            </g>
            <g transform="matrix(1,0,0,1,-253.115,-86.1009)">
                <path d="M761.012,508.348C761.012,508.348 767.095,506.613 769.588,505.902C770.228,505.719 770.705,505.185 770.815,504.529C771.884,498.163 777.459,464.97 780.808,445.023C782.5,434.948 782.412,424.654 780.547,414.61C776.118,390.756 767.899,346.486 766.605,339.516C766.505,338.974 766.032,338.582 765.482,338.582C763.901,338.582 760.902,338.582 760.902,338.582" style="fill:none;stroke:white;stroke-width:1.85px;stroke-linejoin:bevel;"/>
            </g>
            <g transform="matrix(1,0,0,1,-253.115,-86.1009)">
                <path d="M741.138,295.606L815.425,295.606L824.944,304.939L866.918,304.939" style="fill:none;stroke:white;stroke-width:1.85px;stroke-linejoin:bevel;"/>
            </g>
            <g transform="matrix(1,0,0,1,-253.115,-86.1009)">
                <path d="M777.954,295.606L777.954,290.486L862.318,290.486C863.271,290.486 864.096,291.147 864.302,292.077C865.237,296.283 867.703,307.373 867.703,307.373" style="fill:none;stroke:white;stroke-width:1.85px;stroke-linejoin:bevel;"/>
            </g>
            <g transform="matrix(1,0,0,1,-253.115,-86.1009)">
                <path d="M757.491,321.501L882.581,321.501C883.524,321.501 884.288,322.266 884.288,323.209C884.288,329.491 884.288,350.95 884.288,350.95" style="fill:none;stroke:white;stroke-width:1.85px;stroke-linejoin:bevel;"/>
            </g>
            <g transform="matrix(1,0,0,1,-253.115,-86.1009)">
                <path d="M745.7,307.511L877.778,307.511C880.591,307.511 882.872,309.792 882.872,312.605C882.872,316.699 882.872,321.769 882.872,321.769" style="fill:none;stroke:white;stroke-width:1.85px;stroke-linejoin:bevel;"/>
            </g>
            <g transform="matrix(1,0,0,1,-253.115,-86.1009)">
                <path d="M417.175,343.876L426.501,343.876" style="fill:none;stroke:white;stroke-width:1.85px;stroke-linejoin:bevel;"/>
            </g>
            <g transform="matrix(1,0,0,1,-253.115,-86.1009)">
                <path d="M417.175,347.388L426.501,347.388" style="fill:none;stroke:white;stroke-width:1.85px;stroke-linejoin:bevel;"/>
            </g>
            <g transform="matrix(1,0,0,1,-253.115,-86.9853)">
                <ellipse cx="431.573" cy="366.589" rx="2.862" ry="5.076" style="fill:none;stroke:white;stroke-width:1.85px;stroke-linejoin:bevel;"/>
            </g>
            <g transform="matrix(1.08347,0,0,1,-283.854,-86.1009)">
                <ellipse cx="426.501" cy="365.704" rx="11.374" ry="9.086" style="fill:none;stroke:white;stroke-width:1.78px;stroke-linejoin:bevel;"/>
            </g>
            <g transform="matrix(0.796891,0,0,1,-158.368,-86.1009)">
                <ellipse cx="426.501" cy="365.704" rx="11.374" ry="9.086" style="fill:none;stroke:white;stroke-width:2.05px;stroke-linejoin:bevel;"/>
            </g>
            <g transform="matrix(1,0,0,1,-253.115,-86.1009)">
                <rect x="436.953" y="358.644" width="4.919" height="14.12" style="fill:none;stroke:white;stroke-width:1.85px;stroke-linejoin:bevel;"/>
            </g>
            <g transform="matrix(1,0,0,1,-253.115,-86.1009)">
                <path d="M619.149,326.344L622.064,330.37L630.454,326.153L628.85,321.815" style="fill:none;stroke:white;stroke-width:1.85px;stroke-linejoin:bevel;"/>
            </g>
            <g transform="matrix(1,0,0,1,-253.115,-86.1009)">
                <path d="M523.049,307.373C523.049,307.373 524.656,305.974 525.589,305.162C526.008,304.797 526.545,304.596 527.1,304.596L538.335,304.596C538.829,304.596 539.303,304.792 539.653,305.142C540.462,305.951 541.885,307.373 541.885,307.373" style="fill:none;stroke:white;stroke-width:1.85px;stroke-linejoin:miter;"/>
            </g>
            <g transform="matrix(1,0,0,1,-253.115,-86.1009)">
                <path d="M596.733,296.342L486.336,296.342C485.929,296.342 485.539,296.18 485.251,295.892C484.963,295.605 484.801,295.214 484.801,294.807L484.801,292.932" style="fill:none;stroke:white;stroke-width:1.85px;stroke-linejoin:miter;"/>
            </g>
            <g transform="matrix(1,0,0,1,-253.115,-86.1009)">
                <path d="M484.801,307.373L484.801,292.755C484.801,291.944 484.144,291.287 483.333,291.287C477.797,291.287 458.308,291.287 454.603,291.287C454.441,291.287 454.286,291.351 454.171,291.466C454.057,291.58 453.992,291.736 453.992,291.897C453.992,293.82 453.992,299.763 453.992,302.182C453.992,302.757 454.458,303.223 455.033,303.223C460.412,303.223 484.801,303.223 484.801,303.223" style="fill:none;stroke:white;stroke-width:1.85px;stroke-linejoin:miter;"/>
            </g>
            <g transform="matrix(1,0,0,1,-253.115,-86.1009)">
                <path d="M615.172,328.127C620.132,324.882 625.834,322.101 631.721,319.922L643.257,324.837L642.669,327.203C642.669,327.203 632.538,330.571 628.11,332.628C623.919,334.574 616.097,339.546 616.097,339.546L613.331,338.088L615.172,328.127ZM640.893,325.845C638.059,326.808 630.883,329.295 627.328,330.946C623.944,332.518 618.229,336.027 616.016,337.407C616.016,337.407 615.402,337.083 615.402,337.083C615.402,337.083 616.85,329.251 616.85,329.251L616.85,329.251C621.345,326.388 626.426,323.91 631.676,321.92L640.893,325.845Z" style="fill:white;"/>
            </g>
            <g transform="matrix(1,0,0,1,-253.115,-86.1009)">
                <path d="M426.662,321.501C426.662,321.501 418.696,328.948 417.363,330.194C417.243,330.306 417.175,330.463 417.175,330.627C417.175,338.411 417.175,520.224 417.175,531.287C417.175,531.622 417.319,531.941 417.569,532.163C419.328,533.724 426.512,540.1 429.533,542.781C430.402,543.551 431.523,543.977 432.685,543.977L661.486,543.977" style="fill:none;stroke:white;stroke-width:1.85px;stroke-linejoin:bevel;"/>
            </g>
            <g transform="matrix(1,0,0,1,-253.115,-86.1009)">
                <path d="M678.545,543.977L883.746,543.977C884.582,543.977 885.26,543.299 885.26,542.463C885.26,538.094 885.26,525.771 885.26,525.771" style="fill:none;stroke:white;stroke-width:1.85px;stroke-linejoin:bevel;"/>
            </g>
            <g transform="matrix(1,0,0,1,-253.115,-86.1009)">
                <path d="M661.486,538.956L661.486,544.331C661.486,544.56 661.577,544.781 661.74,544.943C661.902,545.106 662.123,545.197 662.352,545.197C665.205,545.197 674.301,545.197 677.455,545.197C677.744,545.197 678.021,545.082 678.226,544.878C678.43,544.674 678.545,544.397 678.545,544.108C678.545,542.334 678.545,539.019 678.545,539.019" style="fill:none;stroke:white;stroke-width:1.85px;stroke-linejoin:bevel;"/>
            </g>
            <g transform="matrix(1,0,0,1,-253.115,-86.1009)">
                <path d="M456.716,303.223L456.716,307.373" style="fill:none;stroke:white;stroke-width:1.85px;stroke-linejoin:miter;"/>
            </g>
            <g transform="matrix(1,0,0,1,-253.115,-86.1009)">
                <path d="M455.118,291.287L455.118,288.388C455.118,287.739 455.6,287.191 456.244,287.107C462.863,286.25 496.427,281.901 496.427,281.901L601.896,281.901" style="fill:none;stroke:white;stroke-width:1.85px;stroke-linejoin:miter;"/>
            </g>
            <g transform="matrix(1,0,0,1,-253.115,-86.1009)">
                <path d="M496.427,296.342L496.427,281.901" style="fill:none;stroke:white;stroke-width:1.85px;stroke-linejoin:miter;"/>
            </g>
            <g transform="matrix(1,0,0,1,-253.115,-86.1009)">
                <path d="M496.427,287.407L558.542,287.407L558.542,296.342" style="fill:none;stroke:white;stroke-width:1.85px;stroke-linejoin:miter;"/>
            </g>
            <g transform="matrix(1,0,0,1,-253.115,-86.1009)">
                <path d="M499.783,296.342L499.783,290.486L555.826,290.486L555.826,296.342" style="fill:none;stroke:white;stroke-width:1.85px;stroke-linejoin:miter;"/>
            </g>
            <g transform="matrix(1,0,0,1,-253.115,-86.1009)">
                <path d="M522.083,411.68L522.083,419.37C522.083,420.037 522.348,420.677 522.82,421.149C523.292,421.621 523.932,421.886 524.599,421.886C531.566,421.886 550.985,421.886 556.88,421.886C557.829,421.886 558.599,422.655 558.599,423.605C558.599,425.851 558.599,429.954 558.599,433.815C558.599,439.949 559.477,446.052 561.207,451.937C565.651,467.054 574.511,497.194 577.628,507.798C577.891,508.694 577.717,509.661 577.157,510.408C576.598,511.156 575.719,511.596 574.786,511.596C564.719,511.596 538.378,511.596 530.484,511.596C529.231,511.596 528.216,510.58 528.216,509.328C528.216,496.982 528.216,437.936 528.216,424.591C528.216,423.109 529.418,421.907 530.9,421.907C532.096,421.907 533.239,421.907 533.239,421.907" style="fill:none;stroke:white;stroke-width:1.85px;stroke-linecap:round;stroke-miterlimit:1.5;"/>
            </g>
            <g transform="matrix(0.782441,0,0,0.782441,223.944,32.6798)">
                <path d="M183.498,224.969L183.498,199.18L194.815,224.969L205.85,199.18L205.85,224.969" style="fill:none;stroke:white;stroke-width:2.37px;stroke-linecap:round;stroke-miterlimit:1.5;"/>
            </g>
            <g transform="matrix(0.782441,0,0,0.782441,223.944,32.6798)">
                <path d="M212.074,199.18L212.074,224.969" style="fill:none;stroke:white;stroke-width:2.37px;stroke-linecap:round;stroke-miterlimit:1.5;"/>
            </g>
            <g transform="matrix(0.782441,0,0,0.782441,223.944,32.6798)">
                <path d="M218.299,224.969L218.299,199.18L235.133,224.969L235.133,199.18" style="fill:none;stroke:white;stroke-width:2.37px;stroke-linecap:round;stroke-miterlimit:1.5;"/>
            </g>
            <g transform="matrix(0.782441,0,0,0.782441,223.944,32.6798)">
                <path d="M264.31,215.817C262.704,221.112 257.783,224.969 251.968,224.969C246.153,224.969 241.231,221.112 239.626,215.817L251.968,216.282L264.31,215.817ZM239.574,215.641C239.446,215.196 239.341,214.74 239.261,214.277L251.968,214.74L264.675,214.277C264.595,214.74 264.49,215.196 264.362,215.641L251.968,215.158L239.574,215.641ZM239.231,214.097C239.161,213.652 239.114,213.198 239.09,212.739L251.968,213.199L264.845,212.739C264.822,213.198 264.775,213.652 264.704,214.097L251.968,213.616L239.231,214.097ZM264.832,211.188C264.852,211.481 264.862,211.777 264.862,212.075C264.862,212.234 264.859,212.393 264.854,212.55L251.968,212.075L239.082,212.55C239.076,212.393 239.073,212.234 239.073,212.075C239.073,211.777 239.083,211.481 239.103,211.188L251.968,211.657L264.832,211.188ZM264.632,209.638C264.718,210.09 264.781,210.55 264.819,211.018L251.968,210.533L239.116,211.018C239.154,210.55 239.217,210.09 239.304,209.638L251.968,210.116L264.632,209.638ZM239.334,209.484C240.535,203.607 245.738,199.18 251.968,199.18C258.197,199.18 263.401,203.607 264.601,209.484L251.968,208.992L239.334,209.484Z" style="fill:rgb(242,242,242);"/>
            </g>
            <g transform="matrix(0.782441,0,0,0.782441,223.944,32.6798)">
                <path d="M268.802,199.18L268.802,224.969L281.826,224.969" style="fill:none;stroke:white;stroke-width:2.37px;stroke-linecap:round;stroke-miterlimit:1.5;"/>
            </g>
            <g transform="matrix(0.782441,0,0,0.782441,223.944,32.6798)">
                <path d="M275.314,200.304L294.429,200.304" style="fill:none;stroke:white;stroke-width:2.37px;stroke-linecap:round;stroke-miterlimit:1.5;"/>
            </g>
            <g transform="matrix(0.782441,0,0,0.782441,223.944,32.6798)">
                <path d="M284.872,200.304L284.872,224.969" style="fill:none;stroke:white;stroke-width:2.37px;stroke-linecap:round;stroke-miterlimit:1.5;"/>
            </g>
            <g transform="matrix(0.782441,0,0,0.782441,223.944,32.6798)">
                <path d="M289.432,224.969L300.369,199.18L311.871,224.969" style="fill:none;stroke:white;stroke-width:2.37px;stroke-linecap:round;stroke-miterlimit:1.5;"/>
            </g>
            <g transform="matrix(0.782441,0,0,0.782441,223.944,32.6798)">
                <path d="M295.554,210.533L305.425,210.533" style="fill:none;stroke:white;stroke-width:2.37px;stroke-linecap:round;stroke-miterlimit:1.5;"/>
            </g>
            <g transform="matrix(1,0,0,1,-253.115,-86.1009)">
                <path d="M445.031,527.869L445.077,541.22" style="fill:none;stroke:white;stroke-width:1.85px;stroke-linecap:round;stroke-miterlimit:1.5;"/>
            </g>
            <g transform="matrix(1,0,0,1,-253.115,-86.1009)">
                <path d="M516.06,350.07L518.867,350.07C520.541,350.07 521.9,351.424 521.905,353.099C521.968,373.793 522.334,494.276 522.412,519.814C522.416,521.074 521.918,522.283 521.029,523.175C520.139,524.068 518.931,524.569 517.671,524.569C514.849,524.569 511.816,524.569 511.816,524.569" style="fill:none;stroke:white;stroke-width:1.85px;stroke-linecap:round;stroke-miterlimit:1.5;"/>
            </g>
            <g transform="matrix(1,0,0,1,-253.115,-86.1009)">
                <path d="M518.584,363.588C518.59,361.36 516.797,359.544 514.569,359.521C509.599,359.471 501.429,359.388 498.374,359.357C497.589,359.349 496.816,359.559 496.142,359.963C493.758,361.395 487.852,364.941 485.056,366.62C484.065,367.215 482.93,367.528 481.775,367.525C476.977,367.512 463.737,367.476 458.795,367.462C457.619,367.459 456.526,368.068 455.909,369.069C453.637,372.757 448.092,381.762 445.947,385.244C445.408,386.119 444.454,386.651 443.427,386.651L430.445,386.651C429.985,386.651 429.544,386.834 429.219,387.159C428.893,387.485 428.71,387.926 428.71,388.386C428.71,401.69 428.71,487.445 428.71,503.663C428.71,505.124 429.895,506.308 431.355,506.308C441.106,506.308 474.86,506.308 482.249,506.308C483.197,506.308 484.135,506.501 485.006,506.875C487.434,507.918 492.569,510.123 494.857,511.105C495.611,511.429 496.422,511.596 497.242,511.596C500.571,511.596 509.773,511.596 514.792,511.596C516.655,511.596 518.168,510.088 518.173,508.224C518.23,488.224 518.522,385.304 518.584,363.588Z" style="fill:none;stroke:white;stroke-width:1.85px;stroke-linecap:round;stroke-miterlimit:1.5;"/>
            </g>
            <g transform="matrix(1,0,0,1,-253.115,-86.1009)">
                <path d="M584.994,524.569L424.605,524.569L424.605,374.79" style="fill:none;stroke:white;stroke-width:1.85px;stroke-linecap:round;stroke-miterlimit:1.5;"/>
            </g>
            <g transform="matrix(1,0,0,1,-253.115,-86.1009)">
                <path d="M424.605,356.409L424.605,350.07" style="fill:none;stroke:white;stroke-width:1.85px;stroke-linecap:round;stroke-miterlimit:1.5;"/>
            </g>
            <g transform="matrix(1,0,0,1,-253.115,-86.1009)">
                <path d="M424.605,350.07L576.052,350.07" style="fill:none;stroke:white;stroke-width:1.85px;stroke-linecap:round;stroke-miterlimit:1.5;"/>
            </g>
            <g transform="matrix(1,0,0,1,-253.115,-86.1009)">
                <path d="M426.662,350.07L426.662,321.501L582.244,321.501" style="fill:none;stroke:white;stroke-width:1.85px;stroke-linecap:round;stroke-miterlimit:1.5;"/>
            </g>
            <g transform="matrix(1,0,0,1,-253.115,-86.1009)">
                <path d="M592.647,307.373L438.207,307.373C437.364,307.373 436.537,307.601 435.812,308.031C434.279,308.941 431.52,310.578 429.93,311.522C429.174,311.971 428.71,312.785 428.71,313.664C428.71,316.257 428.71,321.501 428.71,321.501" style="fill:none;stroke:white;stroke-width:1.85px;stroke-linecap:round;stroke-miterlimit:1.5;"/>
            </g>
            <g transform="matrix(1,0,0,1,-253.115,-86.1009)">
                <path d="M441.333,310.069L441.333,318.982" style="fill:none;stroke:white;stroke-width:1.85px;stroke-linecap:round;stroke-miterlimit:1.5;"/>
            </g>
            <g transform="matrix(1,0,0,1,-253.115,-86.1009)">
                <path d="M441.333,326.153L441.333,344.544" style="fill:none;stroke:white;stroke-width:1.85px;stroke-linecap:round;stroke-miterlimit:1.5;"/>
            </g>
            <g transform="matrix(0.988899,0,0,1.01737,-245.727,-94.111)">
                <circle cx="668.957" cy="427.69" r="99.043" style="fill:none;stroke:white;stroke-width:1.85px;stroke-linecap:round;stroke-miterlimit:1.5;"/>
            </g>
            <g transform="matrix(0.993816,0,0,1.01325,-248.686,-91.6536)">
                <path d="M641.493,326.421C649.855,324.272 659.929,322.776 668.957,322.776C726.861,322.776 773.871,369.786 773.871,427.69C773.871,485.593 726.861,532.604 668.957,532.604C611.054,532.604 564.043,485.593 564.043,427.69C564.043,390.483 584.455,356.955 613.692,338.326" style="fill:none;stroke:white;stroke-width:1.85px;stroke-linecap:round;stroke-miterlimit:1.5;"/>
            </g>
            <g transform="matrix(1,0,0,1,-253.115,-86.1009)">
                <path d="M589.361,317.113C589.361,317.113 587.552,317.113 586.025,317.113C584.81,317.113 583.758,317.956 583.492,319.141C580.961,330.447 568.476,386.202 562.079,414.772C559.589,425.892 559.918,437.458 563.036,448.418C569.62,471.56 581.277,512.533 586.336,530.317C587.79,535.428 592.458,538.953 597.772,538.954C618.908,538.955 670.03,538.957 670.03,538.957" style="fill:none;stroke:white;stroke-width:1.85px;stroke-linecap:round;stroke-miterlimit:1.5;"/>
            </g>
            <g transform="matrix(-0.98943,0,0,1,1080.02,-86.1009)">
                <path d="M589.029,317.113L584.836,317.113C583.587,317.113 582.511,317.985 582.265,319.196C579.885,330.906 568.079,388.983 562.429,416.781C560.437,426.579 560.641,436.69 563.026,446.402C568.562,468.949 578.969,511.325 583.524,529.874C584.833,535.204 589.658,538.957 595.202,538.957L670.03,538.957" style="fill:none;stroke:white;stroke-width:1.86px;stroke-linecap:round;stroke-miterlimit:1.5;"/>
            </g>
            <g transform="matrix(1.00377,0,0,1.00377,-255.637,-88.1474)">
                <path d="M612.958,326.888C629.543,317.648 648.64,312.382 668.957,312.382C689.426,312.382 708.656,317.726 725.327,327.095" style="fill:none;stroke:white;stroke-width:1.85px;stroke-linecap:round;stroke-miterlimit:1.5;"/>
            </g>
            <g transform="matrix(1,0,0,1,-253.115,-86.1009)">
                <path d="M612.375,321.501C629.244,312.486 648.508,307.373 668.957,307.373C689.406,307.373 708.67,312.486 725.54,321.501" style="fill:none;stroke:white;stroke-width:1.85px;stroke-linecap:round;stroke-miterlimit:1.5;"/>
            </g>
            <g transform="matrix(1,0,0,1,-251.725,-86.1009)">
                <path d="M491.607,350.07C484.175,354.127 475.803,356.409 466.951,356.409C458.099,356.409 449.727,354.127 442.295,350.07" style="fill:none;stroke:white;stroke-width:1.85px;stroke-linecap:round;stroke-miterlimit:1.5;"/>
            </g>
            <g transform="matrix(1,0,0,1,-252.021,197.73)">
                <path d="M441.574,240.738C449.184,236.43 457.812,233.998 466.951,233.998C476.091,233.998 484.719,236.43 492.329,240.738" style="fill:none;stroke:white;stroke-width:1.85px;stroke-linecap:round;stroke-miterlimit:1.5;"/>
            </g>
            <g transform="matrix(1,0,0,1,-253.115,-86.1009)">
                <rect x="532.049" y="391.123" width="29.284" height="12.025" style="fill:none;stroke:white;stroke-width:1.85px;stroke-linecap:round;stroke-miterlimit:1.5;"/>
            </g>
            <g transform="matrix(1,0,0,1,-253.115,-86.1009)">
                <rect x="529.644" y="372.765" width="36.356" height="6.758" style="fill:none;stroke:white;stroke-width:1.85px;stroke-linecap:round;stroke-miterlimit:1.5;"/>
            </g>
            <g transform="matrix(1,0,0,1.17148,-253.115,-157.941)">
                <rect x="529.644" y="372.765" width="36.356" height="6.758" style="fill:none;stroke:white;stroke-width:1.7px;stroke-linecap:round;stroke-miterlimit:1.5;"/>
            </g>
            <g transform="matrix(1,0,0,1.24865,-253.115,-195.145)">
                <rect x="529.644" y="372.765" width="36.356" height="6.758" style="fill:none;stroke:white;stroke-width:1.64px;stroke-linecap:round;stroke-miterlimit:1.5;"/>
            </g>
            <g transform="matrix(1.02034,0,0,1.02034,-265.033,-101.286)">
                <circle cx="667.299" cy="434.045" r="81.488" style="fill:none;stroke:white;stroke-width:1.82px;stroke-linecap:round;stroke-miterlimit:1.5;"/>
            </g>
            <g transform="matrix(0.95253,0,0,0.95253,-219.781,-71.8517)">
                <circle cx="667.299" cy="434.045" r="81.488" style="fill:none;stroke:white;stroke-width:1.95px;stroke-linecap:round;stroke-miterlimit:1.5;"/>
            </g>
            <g transform="matrix(1,0,0,1,-253.115,-86.1009)">
                <path d="M706.142,371.887C724.149,383.917 736.018,404.428 736.018,427.69C736.018,435.997 734.505,443.953 731.738,451.298" style="fill:none;stroke:white;stroke-width:1.85px;stroke-linecap:round;stroke-miterlimit:1.5;"/>
            </g>
            <g transform="matrix(1,0,0,1,-253.115,-86.1009)">
                <path d="M731.738,451.298L737.261,455.633" style="fill:none;stroke:white;stroke-width:1.85px;"/>
            </g>
            <g transform="matrix(1,0,0,1,-253.115,-86.1009)">
                <path d="M619.149,472.574L727.384,472.574" style="fill:none;stroke:white;stroke-width:1.85px;stroke-linecap:round;stroke-miterlimit:1.5;"/>
            </g>
            <g transform="matrix(1,0,0,1,-253.115,-86.1009)">
                <path d="M628.436,481.113L629.265,494.393" style="fill:none;stroke:white;stroke-width:1.85px;stroke-linecap:round;stroke-miterlimit:1.5;"/>
            </g>
            <g transform="matrix(1,0,0,1,-253.115,-86.1009)">
                <path d="M614.442,388.647L723.435,388.594" style="fill:none;stroke:white;stroke-width:1.85px;stroke-linecap:round;stroke-miterlimit:1.5;"/>
            </g>
            <g transform="matrix(1,0,0,1,-253.115,-86.1009)">
                <path d="M726.675,393.544C726.675,393.544 727.177,441.056 727.336,456.1C727.349,457.29 726.884,458.435 726.045,459.279C725.206,460.123 724.064,460.596 722.874,460.591C704.416,460.512 634.781,460.217 617.022,460.142C614.73,460.132 612.876,458.274 612.872,455.982C612.843,441.087 612.746,391.123 612.746,391.123" style="fill:none;stroke:white;stroke-width:1.85px;stroke-linecap:round;stroke-miterlimit:1.5;"/>
            </g>
            <g transform="matrix(1,0,0,1,-253.115,-86.1009)">
                <path d="M862.015,392.033L862.305,507.17" style="fill:none;stroke:white;stroke-width:1.85px;stroke-linecap:round;stroke-miterlimit:1.5;"/>
            </g>
            <g transform="matrix(1,0,0,1,-253.115,-86.1009)">
                <path d="M862.305,517.049L862.305,523.316" style="fill:none;stroke:white;stroke-width:1.85px;stroke-linecap:round;stroke-miterlimit:1.5;"/>
            </g>
            <g transform="matrix(1,0,0,1,-253.115,-86.1009)">
                <path d="M862.305,529.658L862.305,541.896" style="fill:none;stroke:white;stroke-width:1.85px;stroke-linecap:round;stroke-miterlimit:1.5;"/>
            </g>
            <g transform="matrix(1,0,0,1,-253.115,-86.1009)">
                <path d="M862.015,382.215L862.015,355.125" style="fill:none;stroke:white;stroke-width:1.85px;stroke-linecap:round;stroke-miterlimit:1.5;"/>
            </g>
            <g transform="matrix(1,0,0,1,-253.115,-86.1009)">
                <path d="M862.015,344.544L862.015,326.153" style="fill:none;stroke:white;stroke-width:1.85px;stroke-linecap:round;stroke-miterlimit:1.5;"/>
            </g>
            <g transform="matrix(1,0,0,1,-253.115,-86.1009)">
                <path d="M862.015,318.982L862.015,312.246" style="fill:none;stroke:white;stroke-width:1.85px;stroke-linecap:round;stroke-miterlimit:1.5;"/>
            </g>
            <g transform="matrix(1,0,0,1,-253.115,-86.1009)">
                <path d="M628.436,481.113C625.129,478.6 622.062,475.787 619.275,472.714C608.478,460.809 601.896,445.012 601.896,427.69C601.896,404.284 613.912,383.663 632.107,371.665" style="fill:none;stroke:white;stroke-width:1.85px;stroke-linecap:round;stroke-miterlimit:1.5;"/>
            </g>
            <g transform="matrix(1,0,0,1,-253.115,-86.1009)">
                <path d="M632.107,371.665L706.142,371.887" style="fill:none;stroke:white;stroke-width:1.85px;stroke-linecap:round;stroke-miterlimit:1.5;"/>
            </g>
            <g transform="matrix(1,0,0,1,-253.115,-86.1009)">
                <path d="M632.107,363.135C642.959,356.881 655.543,353.302 668.957,353.302C681.655,353.302 693.61,356.509 704.055,362.157" style="fill:none;stroke:white;stroke-width:1.85px;stroke-linecap:round;stroke-miterlimit:1.5;"/>
            </g>
            <g transform="matrix(1,0,0,1,-253.115,-86.1009)">
                <path d="M742.76,422.498C742.86,424.071 742.91,425.657 742.91,427.255C742.91,458.732 723.203,485.642 695.464,496.308" style="fill:none;stroke:white;stroke-width:1.85px;stroke-linecap:round;stroke-miterlimit:1.5;"/>
            </g>
            <g transform="matrix(1,0,0,1,-253.115,-86.1009)">
                <path d="M622.724,484.961C606.383,471.848 595.722,451.943 595.039,429.546" style="fill:none;stroke:white;stroke-width:1.85px;stroke-linecap:round;stroke-miterlimit:1.5;"/>
            </g>
            <g transform="matrix(1,0,0,1,-253.115,-86.1009)">
                <path d="M695.464,496.308L695.464,500.658" style="fill:none;stroke:white;stroke-width:1.85px;"/>
            </g>
            <g transform="matrix(1,0,0,1,-253.115,-86.1009)">
                <path d="M622.724,484.961L622.724,490.027" style="fill:none;stroke:white;stroke-width:1.85px;"/>
            </g>
            <g transform="matrix(1,0,0,1,-253.115,-86.1009)">
                <path d="M595.039,429.546L591.337,428.231" style="fill:none;stroke:white;stroke-width:1.85px;"/>
            </g>
            <g transform="matrix(1,0,0,1,-253.115,-86.1009)">
                <path d="M742.76,422.498L746.231,420.315" style="fill:none;stroke:white;stroke-width:1.85px;"/>
            </g>
            <g transform="matrix(1,0,0,1,-253.115,-86.1009)">
                <path d="M704.055,362.157L707.433,360.275" style="fill:none;stroke:white;stroke-width:1.85px;"/>
            </g>
            <g transform="matrix(1,0,0,1,-253.115,-86.1009)">
                <path d="M632.107,363.135L627.664,361.968" style="fill:none;stroke:white;stroke-width:1.85px;"/>
            </g>
            <g transform="matrix(1,0,0,1,-253.115,-86.1009)">
                <path d="M607.312,454.117L607.312,401.263" style="fill:none;stroke:white;stroke-width:1.85px;"/>
            </g>
            <g transform="matrix(1,0,0,1,-253.115,-86.1009)">
                <path d="M888.232,385.43L857.183,385.43C854.239,385.43 851.852,383.043 851.852,380.099C851.852,377.899 851.852,375.352 851.852,373.143C851.852,371.703 851.28,370.323 850.262,369.305C849.244,368.287 847.864,367.716 846.425,367.716C830.4,367.716 783.936,367.716 776.411,367.716C776.153,367.716 775.908,367.829 775.74,368.026C775.573,368.222 775.5,368.482 775.542,368.737C776.5,374.661 781.388,404.888 784.006,421.071C785.105,427.867 785.099,434.795 783.99,441.589C781.046,459.611 775.072,496.183 773.114,508.172C772.955,509.145 773.231,510.139 773.87,510.89C774.508,511.642 775.445,512.075 776.431,512.075C796.707,512.075 888.066,512.075 888.066,512.075" style="fill:none;stroke:white;stroke-width:1.85px;stroke-linejoin:bevel;"/>
            </g>
            <g transform="matrix(1,0,0,1,-253.115,-86.1009)">
                <path d="M767.33,343.417L771.122,343.417L775.402,363.956L771.206,364.299" style="fill:none;stroke:white;stroke-width:1.85px;"/>
            </g>
            <g transform="matrix(1,0,0,1,-253.115,-86.1009)">
                <path d="M749.071,295.606L749.071,292.147L769.265,292.147L769.265,295.606" style="fill:none;stroke:white;stroke-width:1.85px;"/>
            </g>
            <g transform="matrix(1,0,0,1,-253.115,-86.1009)">
                <path d="M751.526,292.147L751.526,289.025C751.526,288.477 751.971,288.032 752.519,288.032C755.311,288.032 763.22,288.032 766.187,288.032C766.818,288.032 767.33,288.544 767.33,289.175L767.33,292.147" style="fill:none;stroke:white;stroke-width:1.85px;"/>
            </g>
            <g transform="matrix(1,0,0,1,-253.115,-86.1009)">
                <path d="M506.673,281.901L506.673,279.996C506.673,279.338 507.207,278.805 507.864,278.805C513.868,278.805 540.757,278.805 546.67,278.805C547.306,278.805 547.822,279.321 547.822,279.957C547.822,280.838 547.822,281.901 547.822,281.901" style="fill:none;stroke:white;stroke-width:1.85px;"/>
            </g>
            <g transform="matrix(1,0,0,1,-253.115,-86.1009)">
                <path d="M557.663,281.901L557.663,279.975C557.663,279.367 558.155,278.875 558.763,278.875C564.6,278.875 591.892,278.875 597.265,278.875C597.509,278.875 597.742,278.972 597.915,279.144C598.087,279.317 598.184,279.551 598.184,279.794C598.184,280.685 598.184,281.901 598.184,281.901" style="fill:none;stroke:white;stroke-width:1.85px;"/>
            </g>
            <g transform="matrix(1,0,0,1,-253.115,-86.1009)">
                <path d="M725.54,326.344L749.598,326.344C750.575,326.344 751.489,325.862 752.04,325.056C752.592,324.25 752.71,323.223 752.356,322.313C750.819,318.359 748.705,312.92 748.705,312.92" style="fill:none;stroke:white;stroke-width:1.85px;"/>
            </g>
            <g transform="matrix(1,0,0,1,-253.115,-86.1009)">
                <path d="M725.54,321.501L747.858,321.501C748.969,321.501 749.999,320.924 750.58,319.978C751.161,319.031 751.209,317.85 750.706,316.86C742.055,299.828 712.28,241.207 706.959,230.732C706.458,229.745 705.445,229.123 704.338,229.123C696.41,229.123 665.05,229.123 665.05,229.123" style="fill:none;stroke:white;stroke-width:1.85px;"/>
            </g>
            <g transform="matrix(-1,0,0,1,1087.46,-86.1009)">
                <path d="M727.824,326.153C727.824,326.153 742.631,326.261 749.939,326.315C750.875,326.322 751.759,325.885 752.323,325.138C752.887,324.39 753.064,323.42 752.8,322.521C751.591,318.41 749.84,312.455 749.84,312.455" style="fill:none;stroke:white;stroke-width:1.85px;"/>
            </g>
            <g transform="matrix(-1,0,0,1,1087.46,-86.1009)">
                <path d="M728.196,321.501C728.196,321.501 741.378,321.501 748.547,321.501C749.585,321.501 750.559,320.996 751.158,320.147C751.756,319.298 751.904,318.211 751.555,317.233C748.041,307.373 739.162,282.932 733.259,270.814C727.083,258.137 712.632,236.035 708.937,230.44C708.392,229.618 707.472,229.124 706.486,229.124C699.973,229.123 675.521,229.123 675.521,229.123" style="fill:none;stroke:white;stroke-width:1.85px;"/>
            </g>
            <g transform="matrix(1,0,0,1,-253.115,-86.1009)">
                <path d="M734.5,284.954L740.43,284.717C740.43,284.717 740.222,287.386 741.626,290.09C743.029,292.793 746.747,292.147 746.747,292.147L746.747,295.606" style="fill:none;stroke:white;stroke-width:1.85px;"/>
            </g>
        </g>
    </g>
</svg>
