<?xml version="1.0" encoding="UTF-8" standalone="no"?>
<!DOCTYPE svg PUBLIC "-//W3C//DTD SVG 1.1//EN" "http://www.w3.org/Graphics/SVG/1.1/DTD/svg11.dtd">
<svg width="100%" height="100%" viewBox="0 0 800 800" version="1.1" xmlns="http://www.w3.org/2000/svg" xmlns:xlink="http://www.w3.org/1999/xlink" xml:space="preserve" xmlns:serif="http://www.serif.com/" style="fill-rule:evenodd;clip-rule:evenodd;stroke-linecap:round;stroke-linejoin:round;stroke-miterlimit:1.5;">
    <g transform="matrix(1,0,0,1,0,-1.35502)">
        <rect x="0" y="0" width="800" height="800" style="fill:none;"/>
    </g>
    <g id="Layer1" transform="matrix(1.15112,0,0,1.15112,-71.8086,-84.7516)">
        <g transform="matrix(1.0149,0,0,1.15812,-5.92584,-78.455)">
            <ellipse cx="409.143" cy="441.144" rx="149.763" ry="45.605" style="fill:none;stroke:rgb(242,242,242);stroke-width:3.55px;"/>
        </g>
        <g transform="matrix(1.24334,0,0,1.85007,-98.8354,-180.953)">
            <path d="M553.302,415.446C557.83,419.251 558.906,424.665 558.906,424.665L558.906,441.144C558.906,466.313 491.799,486.748 409.143,486.748C326.486,486.748 259.38,466.313 259.38,441.144" style="fill:none;stroke:rgb(242,242,242);stroke-width:2.45px;"/>
        </g>
        <g transform="matrix(1.06695,0.157546,-0.158775,1.07528,82.5911,-103.292)">
            <path d="M328.566,663.03C329.004,661.761 329.904,661.127 331.266,661.127C332.051,661.127 332.696,661.371 333.198,661.861C333.637,662.305 333.856,662.858 333.856,663.52C333.856,663.937 333.801,664.302 333.691,664.615C333.582,664.927 333.399,665.242 333.143,665.56C333.015,665.723 332.867,665.877 332.698,666.022C332.529,666.167 332.316,666.342 332.061,666.546C331.805,666.75 331.631,666.888 331.54,666.96C331.165,667.269 330.891,667.541 330.718,667.776C330.681,667.831 330.667,667.874 330.676,667.905C330.686,667.937 330.713,667.953 330.759,667.953L333.349,667.953C333.541,667.953 333.678,667.994 333.76,668.075C333.842,668.157 333.883,668.293 333.883,668.483L333.883,668.851C333.883,669.041 333.842,669.177 333.76,669.259C333.678,669.34 333.541,669.381 333.349,669.381L329.073,669.381C328.881,669.381 328.744,669.34 328.662,669.259C328.58,669.177 328.538,669.041 328.538,668.851C328.538,668.56 328.607,668.293 328.744,668.048C328.954,667.658 329.219,667.278 329.539,666.906C329.868,666.543 330.286,666.16 330.793,665.757C331.3,665.353 331.554,665.152 331.554,665.152C331.864,664.88 332.086,664.637 332.218,664.424C332.351,664.211 332.417,663.951 332.417,663.642C332.417,663.307 332.303,663.042 332.074,662.847C331.846,662.652 331.554,662.554 331.197,662.554C330.612,662.554 330.201,662.835 329.964,663.398C329.891,663.597 329.813,663.719 329.731,663.765C329.63,663.819 329.489,663.824 329.306,663.778L328.95,663.683C328.758,663.629 328.634,663.552 328.58,663.452C328.516,663.343 328.511,663.203 328.566,663.03Z" style="fill:rgb(242,242,242);fill-rule:nonzero;"/>
            <path d="M335.158,663.03C335.596,661.761 336.496,661.127 337.858,661.127C338.643,661.127 339.288,661.371 339.79,661.861C340.229,662.305 340.448,662.858 340.448,663.52C340.448,663.937 340.393,664.302 340.283,664.615C340.174,664.927 339.991,665.242 339.735,665.56C339.607,665.723 339.459,665.877 339.29,666.022C339.121,666.167 338.908,666.342 338.653,666.546C338.397,666.75 338.223,666.888 338.132,666.96C337.757,667.269 337.483,667.541 337.309,667.776C337.273,667.831 337.259,667.874 337.268,667.905C337.278,667.937 337.305,667.953 337.351,667.953L339.941,667.953C340.133,667.953 340.27,667.994 340.352,668.075C340.434,668.157 340.475,668.293 340.475,668.483L340.475,668.851C340.475,669.041 340.434,669.177 340.352,669.259C340.27,669.34 340.133,669.381 339.941,669.381L335.665,669.381C335.473,669.381 335.336,669.34 335.254,669.259C335.172,669.177 335.13,669.041 335.13,668.851C335.13,668.56 335.199,668.293 335.336,668.048C335.546,667.658 335.811,667.278 336.131,666.906C336.46,666.543 336.878,666.16 337.385,665.757C337.892,665.353 338.145,665.152 338.145,665.152C338.456,664.88 338.678,664.637 338.81,664.424C338.943,664.211 339.009,663.951 339.009,663.642C339.009,663.307 338.895,663.042 338.666,662.847C338.438,662.652 338.145,662.554 337.789,662.554C337.204,662.554 336.793,662.835 336.556,663.398C336.483,663.597 336.405,663.719 336.323,663.765C336.222,663.819 336.081,663.824 335.898,663.778L335.542,663.683C335.35,663.629 335.226,663.552 335.172,663.452C335.108,663.343 335.103,663.203 335.158,663.03Z" style="fill:rgb(242,242,242);fill-rule:nonzero;"/>
        </g>
        <g transform="matrix(1.06822,-0.148736,0.149896,1.07655,-3.46221,2.96988)">
            <path d="M328.591,663.169C329.045,661.856 329.976,661.2 331.384,661.2C332.197,661.2 332.863,661.453 333.383,661.959C333.837,662.419 334.063,662.991 334.063,663.676C334.063,664.107 334.007,664.484 333.893,664.808C333.78,665.132 333.591,665.457 333.326,665.786C333.194,665.955 333.04,666.114 332.865,666.264C332.691,666.414 332.471,666.595 332.206,666.806C331.941,667.017 331.762,667.16 331.667,667.235C331.28,667.554 330.996,667.835 330.817,668.079C330.779,668.135 330.765,668.18 330.774,668.212C330.784,668.245 330.812,668.262 330.859,668.262L333.539,668.262C333.737,668.262 333.879,668.304 333.964,668.388C334.049,668.473 334.092,668.613 334.092,668.81L334.092,669.19C334.092,669.387 334.049,669.528 333.964,669.612C333.879,669.697 333.737,669.739 333.539,669.739L329.115,669.739C328.917,669.739 328.775,669.697 328.69,669.612C328.605,669.528 328.563,669.387 328.563,669.19C328.563,668.89 328.633,668.613 328.775,668.36C328.993,667.957 329.267,667.563 329.598,667.178C329.938,666.803 330.37,666.407 330.895,665.99C331.419,665.572 331.682,665.364 331.682,665.364C332.003,665.082 332.232,664.831 332.369,664.611C332.506,664.391 332.575,664.121 332.575,663.802C332.575,663.455 332.457,663.181 332.22,662.979C331.984,662.778 331.682,662.677 331.313,662.677C330.708,662.677 330.283,662.968 330.037,663.549C329.961,663.755 329.881,663.882 329.796,663.929C329.692,663.985 329.546,663.99 329.356,663.943L328.988,663.844C328.789,663.788 328.662,663.708 328.605,663.605C328.539,663.493 328.534,663.347 328.591,663.169Z" style="fill:rgb(242,242,242);fill-rule:nonzero;"/>
            <path d="M335.41,663.169C335.864,661.856 336.795,661.2 338.203,661.2C339.016,661.2 339.682,661.453 340.202,661.959C340.656,662.419 340.883,662.991 340.883,663.676C340.883,664.107 340.826,664.484 340.713,664.808C340.599,665.132 340.41,665.457 340.145,665.786C340.013,665.955 339.86,666.114 339.685,666.264C339.51,666.414 339.29,666.595 339.025,666.806C338.761,667.017 338.581,667.16 338.487,667.235C338.099,667.554 337.816,667.835 337.636,668.079C337.598,668.135 337.584,668.18 337.594,668.212C337.603,668.245 337.631,668.262 337.679,668.262L340.358,668.262C340.557,668.262 340.698,668.304 340.783,668.388C340.868,668.473 340.911,668.613 340.911,668.81L340.911,669.19C340.911,669.387 340.868,669.528 340.783,669.612C340.698,669.697 340.557,669.739 340.358,669.739L335.935,669.739C335.736,669.739 335.595,669.697 335.509,669.612C335.424,669.528 335.382,669.387 335.382,669.19C335.382,668.89 335.453,668.613 335.595,668.36C335.812,667.957 336.086,667.563 336.417,667.178C336.757,666.803 337.189,666.407 337.714,665.99C338.239,665.572 338.501,665.364 338.501,665.364C338.822,665.082 339.051,664.831 339.188,664.611C339.326,664.391 339.394,664.121 339.394,663.802C339.394,663.455 339.276,663.181 339.04,662.979C338.803,662.778 338.501,662.677 338.132,662.677C337.527,662.677 337.102,662.968 336.856,663.549C336.781,663.755 336.7,663.882 336.615,663.929C336.511,663.985 336.365,663.99 336.176,663.943L335.807,663.844C335.609,663.788 335.481,663.708 335.424,663.605C335.358,663.493 335.353,663.347 335.41,663.169Z" style="fill:rgb(242,242,242);fill-rule:nonzero;"/>
        </g>
        <g transform="matrix(1.06926,0.14107,-0.14217,1.0776,88.0032,-96.2458)">
            <path d="M330.169,663.778L329.484,664.485C329.347,664.621 329.224,664.689 329.114,664.689C328.995,664.689 328.863,664.63 328.717,664.513L328.456,664.241C328.319,664.105 328.251,663.982 328.251,663.873C328.251,663.756 328.319,663.624 328.456,663.479L330.471,661.426C330.599,661.29 330.781,661.222 331.019,661.222L331.389,661.222C331.581,661.222 331.718,661.263 331.8,661.344C331.882,661.426 331.924,661.562 331.924,661.752L331.924,668.851C331.924,669.041 331.882,669.177 331.8,669.259C331.718,669.34 331.581,669.381 331.389,669.381L331.019,669.381C330.827,669.381 330.69,669.34 330.608,669.259C330.526,669.177 330.485,669.041 330.485,668.851L330.485,663.873C330.485,663.774 330.453,663.715 330.389,663.697C330.316,663.679 330.242,663.706 330.169,663.778Z" style="fill:rgb(242,242,242);fill-rule:nonzero;"/>
            <path d="M335.747,664.064C336.067,663.928 336.396,663.86 336.734,663.86C337.62,663.86 338.317,664.107 338.824,664.601C339.331,665.095 339.584,665.768 339.584,666.62C339.584,667.491 339.306,668.171 338.748,668.66C338.191,669.15 337.479,669.395 336.611,669.395C336.181,669.395 335.775,669.308 335.391,669.136C335.007,668.964 334.692,668.728 334.445,668.429C334.162,668.085 333.968,667.713 333.863,667.314C333.758,666.915 333.705,666.407 333.705,665.791C333.723,665.066 333.856,664.377 334.103,663.724C334.349,663.071 334.733,662.536 335.254,662.119C336.003,661.521 336.99,661.195 338.214,661.14C338.406,661.131 338.545,661.163 338.632,661.235C338.719,661.308 338.771,661.439 338.79,661.63L338.817,661.997C338.835,662.187 338.801,662.328 338.714,662.418C338.627,662.509 338.479,662.559 338.269,662.568C337.364,662.604 336.652,662.817 336.131,663.207C335.866,663.398 335.679,663.624 335.569,663.887C335.523,663.978 335.521,664.039 335.562,664.071C335.603,664.102 335.665,664.1 335.747,664.064ZM337.817,665.669C337.515,665.351 337.131,665.193 336.665,665.193C336.199,665.193 335.811,665.351 335.5,665.669C335.272,665.913 335.158,666.249 335.158,666.675C335.158,667.101 335.293,667.443 335.562,667.701C335.832,667.96 336.199,668.089 336.665,668.089C337.113,668.089 337.474,667.96 337.748,667.701C338.022,667.443 338.159,667.101 338.159,666.675C338.159,666.249 338.045,665.913 337.817,665.669Z" style="fill:rgb(242,242,242);fill-rule:nonzero;"/>
        </g>
        <g transform="matrix(1.07828,-0.0228077,0.0229856,1.08669,60.5983,-44.3344)">
            <path d="M330.169,663.778L329.484,664.485C329.347,664.621 329.224,664.689 329.114,664.689C328.995,664.689 328.863,664.63 328.717,664.513L328.456,664.241C328.319,664.105 328.251,663.982 328.251,663.873C328.251,663.756 328.319,663.624 328.456,663.479L330.471,661.426C330.599,661.29 330.781,661.222 331.019,661.222L331.389,661.222C331.581,661.222 331.718,661.263 331.8,661.344C331.882,661.426 331.924,661.562 331.924,661.752L331.924,668.851C331.924,669.041 331.882,669.177 331.8,669.259C331.718,669.34 331.581,669.381 331.389,669.381L331.019,669.381C330.827,669.381 330.69,669.34 330.608,669.259C330.526,669.177 330.485,669.041 330.485,668.851L330.485,663.873C330.485,663.774 330.453,663.715 330.389,663.697C330.316,663.679 330.242,663.706 330.169,663.778Z" style="fill:rgb(242,242,242);fill-rule:nonzero;"/>
            <path d="M335.747,664.064C336.067,663.928 336.396,663.86 336.734,663.86C337.62,663.86 338.317,664.107 338.824,664.601C339.331,665.095 339.584,665.768 339.584,666.62C339.584,667.491 339.306,668.171 338.748,668.66C338.191,669.15 337.479,669.395 336.611,669.395C336.181,669.395 335.775,669.308 335.391,669.136C335.007,668.964 334.692,668.728 334.445,668.429C334.162,668.085 333.968,667.713 333.863,667.314C333.758,666.915 333.705,666.407 333.705,665.791C333.723,665.066 333.856,664.377 334.103,663.724C334.349,663.071 334.733,662.536 335.254,662.119C336.003,661.521 336.99,661.195 338.214,661.14C338.406,661.131 338.545,661.163 338.632,661.235C338.719,661.308 338.771,661.439 338.79,661.63L338.817,661.997C338.835,662.187 338.801,662.328 338.714,662.418C338.627,662.509 338.479,662.559 338.269,662.568C337.364,662.604 336.652,662.817 336.131,663.207C335.866,663.398 335.679,663.624 335.569,663.887C335.523,663.978 335.521,664.039 335.562,664.071C335.603,664.102 335.665,664.1 335.747,664.064ZM337.817,665.669C337.515,665.351 337.131,665.193 336.665,665.193C336.199,665.193 335.811,665.351 335.5,665.669C335.272,665.913 335.158,666.249 335.158,666.675C335.158,667.101 335.293,667.443 335.562,667.701C335.832,667.96 336.199,668.089 336.665,668.089C337.113,668.089 337.474,667.96 337.748,667.701C338.022,667.443 338.159,667.101 338.159,666.675C338.159,666.249 338.045,665.913 337.817,665.669Z" style="fill:rgb(242,242,242);fill-rule:nonzero;"/>
        </g>
        <g transform="matrix(0.493379,0.0205805,-0.0453004,1.08599,235.859,-58.6427)">
            <path d="M340.142,663.972C340.022,664.033 340.042,664.09 340.202,664.141C340.92,664.397 341.499,664.722 341.938,665.117C342.377,665.511 342.596,665.944 342.596,666.415C342.596,667.388 341.938,668.162 340.621,668.736C339.443,669.238 337.892,669.488 335.966,669.488C334.041,669.488 332.489,669.238 331.312,668.736C329.995,668.162 329.336,667.388 329.336,666.415C329.336,665.442 330.114,664.684 331.671,664.141C331.791,664.1 331.801,664.049 331.701,663.987C330.783,663.526 330.324,662.988 330.324,662.374C330.324,662.005 330.489,661.659 330.818,661.337C331.147,661.014 331.601,660.75 332.18,660.545C333.158,660.207 334.4,660.038 335.906,660.038C337.413,660.038 338.655,660.207 339.633,660.545C340.212,660.75 340.666,661.014 340.995,661.337C341.324,661.659 341.489,662.005 341.489,662.374C341.489,662.978 341.04,663.511 340.142,663.972ZM334.11,663.303C334.599,663.514 335.198,663.619 335.906,663.619C336.615,663.619 337.213,663.514 337.702,663.303C338.191,663.093 338.436,662.837 338.436,662.535C338.436,662.233 338.196,661.979 337.717,661.775C337.238,661.57 336.635,661.467 335.906,661.467C335.178,661.467 334.574,661.57 334.095,661.775C333.616,661.979 333.377,662.233 333.377,662.535C333.377,662.837 333.621,663.093 334.11,663.303ZM338.466,665.432C337.787,665.155 336.954,665.017 335.966,665.017C334.978,665.017 334.145,665.155 333.467,665.432C332.788,665.708 332.449,666.062 332.449,666.492C332.449,666.953 332.763,667.312 333.392,667.568C334.021,667.824 334.874,667.952 335.951,667.952C337.009,667.952 337.862,667.824 338.51,667.568C339.159,667.312 339.483,666.953 339.483,666.492C339.483,666.062 339.144,665.708 338.466,665.432Z" style="fill:rgb(242,242,242);fill-rule:nonzero;"/>
        </g>
        <g transform="matrix(0.493748,-0.00767432,0.0168922,1.0868,237.59,-47.8897)">
            <path d="M340.142,663.972C340.022,664.033 340.042,664.09 340.202,664.141C340.92,664.397 341.499,664.722 341.938,665.117C342.377,665.511 342.596,665.944 342.596,666.415C342.596,667.388 341.938,668.162 340.621,668.736C339.443,669.238 337.892,669.488 335.966,669.488C334.041,669.488 332.489,669.238 331.312,668.736C329.995,668.162 329.336,667.388 329.336,666.415C329.336,665.442 330.114,664.684 331.671,664.141C331.791,664.1 331.801,664.049 331.701,663.987C330.783,663.526 330.324,662.988 330.324,662.374C330.324,662.005 330.489,661.659 330.818,661.337C331.147,661.014 331.601,660.75 332.18,660.545C333.158,660.207 334.4,660.038 335.906,660.038C337.413,660.038 338.655,660.207 339.633,660.545C340.212,660.75 340.666,661.014 340.995,661.337C341.324,661.659 341.489,662.005 341.489,662.374C341.489,662.978 341.04,663.511 340.142,663.972ZM334.11,663.303C334.599,663.514 335.198,663.619 335.906,663.619C336.615,663.619 337.213,663.514 337.702,663.303C338.191,663.093 338.436,662.837 338.436,662.535C338.436,662.233 338.196,661.979 337.717,661.775C337.238,661.57 336.635,661.467 335.906,661.467C335.178,661.467 334.574,661.57 334.095,661.775C333.616,661.979 333.377,662.233 333.377,662.535C333.377,662.837 333.621,663.093 334.11,663.303ZM338.466,665.432C337.787,665.155 336.954,665.017 335.966,665.017C334.978,665.017 334.145,665.155 333.467,665.432C332.788,665.708 332.449,666.062 332.449,666.492C332.449,666.953 332.763,667.312 333.392,667.568C334.021,667.824 334.874,667.952 335.951,667.952C337.009,667.952 337.862,667.824 338.51,667.568C339.159,667.312 339.483,666.953 339.483,666.492C339.483,666.062 339.144,665.708 338.466,665.432Z" style="fill:rgb(242,242,242);fill-rule:nonzero;"/>
        </g>
        <g transform="matrix(0.493754,0.00731699,-0.0167188,1.1282,227.009,-80.6427)">
            <path d="M335.562,661.996C335.023,662.415 334.594,662.987 334.275,663.714C334.095,664.112 333.796,664.515 333.377,664.923C333.277,665.013 333.267,665.088 333.347,665.147C333.427,665.207 333.557,665.237 333.736,665.237L336.999,665.237C337.198,665.237 337.328,665.22 337.388,665.185C337.448,665.15 337.478,665.088 337.478,664.998L337.478,661.802C337.478,661.633 337.308,661.553 336.969,661.563C336.39,661.563 335.921,661.708 335.562,661.996ZM329.426,665.133C329.905,664.943 330.294,664.689 330.593,664.371C330.793,664.152 331.047,663.761 331.357,663.199C331.666,662.636 332.01,662.166 332.389,661.787C332.948,661.23 333.656,660.797 334.514,660.488C335.373,660.179 336.54,660.025 338.017,660.025C339.334,660.025 340.112,660.08 340.351,660.189C340.531,660.279 340.621,660.428 340.621,660.637L340.621,664.998C340.621,665.157 340.77,665.237 341.07,665.237L341.938,665.237C342.377,665.237 342.676,665.277 342.836,665.357C343.015,665.446 343.105,665.595 343.105,665.805L343.105,666.163C343.105,666.372 343.015,666.521 342.836,666.611C342.676,666.691 342.377,666.73 341.938,666.73L341.07,666.73C340.77,666.73 340.621,666.81 340.621,666.969L340.621,668.418C340.621,668.627 340.531,668.776 340.351,668.866C340.172,668.956 339.872,669 339.453,669L338.645,669C338.226,669 337.927,668.956 337.747,668.866C337.568,668.776 337.478,668.627 337.478,668.418L337.478,666.969C337.478,666.81 337.328,666.73 337.029,666.73L329.905,666.73C329.466,666.73 329.167,666.691 329.007,666.611C328.827,666.521 328.738,666.372 328.738,666.163L328.738,665.73C328.738,665.541 328.967,665.342 329.426,665.133Z" style="fill:rgb(242,242,242);fill-rule:nonzero;"/>
        </g>
        <g transform="matrix(0.493748,-0.00768296,0.0175551,1.12818,225.971,-75.0115)">
            <path d="M335.562,661.996C335.023,662.415 334.594,662.987 334.275,663.714C334.095,664.112 333.796,664.515 333.377,664.923C333.277,665.013 333.267,665.088 333.347,665.147C333.427,665.207 333.557,665.237 333.736,665.237L336.999,665.237C337.198,665.237 337.328,665.22 337.388,665.185C337.448,665.15 337.478,665.088 337.478,664.998L337.478,661.802C337.478,661.633 337.308,661.553 336.969,661.563C336.39,661.563 335.921,661.708 335.562,661.996ZM329.426,665.133C329.905,664.943 330.294,664.689 330.593,664.371C330.793,664.152 331.047,663.761 331.357,663.199C331.666,662.636 332.01,662.166 332.389,661.787C332.948,661.23 333.656,660.797 334.514,660.488C335.373,660.179 336.54,660.025 338.017,660.025C339.334,660.025 340.112,660.08 340.351,660.189C340.531,660.279 340.621,660.428 340.621,660.637L340.621,664.998C340.621,665.157 340.77,665.237 341.07,665.237L341.938,665.237C342.377,665.237 342.676,665.277 342.836,665.357C343.015,665.446 343.105,665.595 343.105,665.805L343.105,666.163C343.105,666.372 343.015,666.521 342.836,666.611C342.676,666.691 342.377,666.73 341.938,666.73L341.07,666.73C340.77,666.73 340.621,666.81 340.621,666.969L340.621,668.418C340.621,668.627 340.531,668.776 340.351,668.866C340.172,668.956 339.872,669 339.453,669L338.645,669C338.226,669 337.927,668.956 337.747,668.866C337.568,668.776 337.478,668.627 337.478,668.418L337.478,666.969C337.478,666.81 337.328,666.73 337.029,666.73L329.905,666.73C329.466,666.73 329.167,666.691 329.007,666.611C328.827,666.521 328.738,666.372 328.738,666.163L328.738,665.73C328.738,665.541 328.967,665.342 329.426,665.133Z" style="fill:rgb(242,242,242);fill-rule:nonzero;"/>
        </g>
        <path d="M223.662,635.195L223.662,604.709C223.662,604.709 225.805,593.507 230.518,587.653" style="fill:none;stroke:rgb(242,242,242);stroke-width:3.86px;"/>
        <path d="M392.811,692.183L392.669,695.34L387.002,696.407" style="fill:none;stroke:rgb(242,242,242);stroke-width:2.9px;"/>
        <g transform="matrix(1.24334,0,0,1.85007,-98.8354,-211.438)">
            <path d="M558.906,441.144C558.906,447.277 554.921,453.129 547.698,458.473" style="fill:none;stroke:rgb(242,242,242);stroke-width:2.45px;"/>
        </g>
        <g transform="matrix(1.24334,0,0,1.85007,-98.8354,-211.438)">
            <path d="M509.584,474.96C483.009,482.285 447.774,486.748 409.143,486.748C326.486,486.748 259.38,466.313 259.38,441.144" style="fill:none;stroke:rgb(242,242,242);stroke-width:2.45px;"/>
        </g>
        <g transform="matrix(1.12546,0,0,1.33989,-51.07,-142.501)">
            <path d="M539.186,418.522C551.732,425.191 558.906,432.914 558.906,441.144C558.906,466.313 491.799,486.748 409.143,486.748C326.486,486.748 259.38,466.313 259.38,441.144C259.38,432.982 266.436,425.318 278.791,418.687" style="fill:none;stroke:rgb(242,242,242);stroke-width:3.12px;"/>
        </g>
        <g transform="matrix(1.13501,0,0,1.368,-54.3211,-128.38)">
            <path d="M558.906,441.144C558.906,466.313 491.799,486.748 409.143,486.748C326.486,486.748 259.38,466.313 259.38,441.144" style="fill:none;stroke:rgb(242,242,242);stroke-width:3.07px;"/>
        </g>
        <path d="M580.044,475.103L577.954,446.52" style="fill:none;stroke:rgb(242,242,242);stroke-width:3.86px;"/>
        <path d="M240.078,475.103L240.945,446.52" style="fill:none;stroke:rgb(242,242,242);stroke-width:3.86px;"/>
        <g transform="matrix(1.0149,0,0,1.15812,-5.92584,-78.455)">
            <path d="M499.825,477.43C474.648,483.276 443.217,486.748 409.143,486.748C375.069,486.748 343.638,483.276 318.46,477.43" style="fill:none;stroke:rgb(242,242,242);stroke-width:3.55px;"/>
        </g>
        <g transform="matrix(1.01605,0,0,1.15812,-6.56657,-64.3766)">
            <path d="M558.906,441.144C558.906,466.313 491.799,486.748 409.143,486.748C326.486,486.748 259.38,466.313 259.38,441.144" style="fill:none;stroke:rgb(242,242,242);stroke-width:3.54px;"/>
        </g>
        <path d="M256.976,446.52L257.32,432.441" style="fill:none;stroke:rgb(242,242,242);stroke-width:3.86px;"/>
        <path d="M561.31,446.52L561.31,432.441" style="fill:none;stroke:rgb(242,242,242);stroke-width:3.86px;"/>
        <g transform="matrix(0.996429,0,0,0.94375,4.1249,24.1387)">
            <path d="M314.322,477.167C298.217,469.475 288.587,459.73 288.587,449.135C288.587,424.295 341.525,404.129 406.73,404.129C471.935,404.129 524.873,424.295 524.873,449.135C524.873,459.672 515.348,469.368 499.403,477.04" style="fill:none;stroke:rgb(242,242,242);stroke-width:3.98px;"/>
        </g>
        <g transform="matrix(1.19993,0,0,1.21982,-78.6259,-96.4582)">
            <path d="M288.587,449.135C288.587,424.295 341.525,404.129 406.73,404.129C471.935,404.129 524.873,424.295 524.873,449.135" style="fill:none;stroke:rgb(242,242,242);stroke-width:3.19px;"/>
        </g>
        <g transform="matrix(0.88061,0,0,0.94375,51.2319,66.6984)">
            <path d="M298.976,430.666C317.496,415.026 358.799,404.129 406.73,404.129C455.086,404.129 496.695,415.22 514.97,431.082" style="fill:none;stroke:rgb(242,242,242);stroke-width:4.23px;"/>
        </g>
        <g transform="matrix(0.910478,0,0,0.94375,39.0837,60.0233)">
            <path d="M295.439,434.005C311.767,416.599 355.456,404.129 406.73,404.129C459.748,404.129 504.655,417.461 519.591,435.798" style="fill:none;stroke:rgb(242,242,242);stroke-width:4.16px;"/>
        </g>
        <g transform="matrix(0.944739,0,0,0.94375,25.1487,53.0856)">
            <path d="M293.026,436.881C307.048,417.989 352.674,404.129 406.73,404.129C460.789,404.129 506.417,417.99 520.436,436.884" style="fill:none;stroke:rgb(242,242,242);stroke-width:4.09px;"/>
        </g>
        <g transform="matrix(0.958012,0,0,0.94375,19.4908,46.0289)">
            <path d="M290.75,440.526C301.308,419.798 349.253,404.129 406.73,404.129C469.968,404.129 521.668,423.097 524.73,446.901" style="fill:none;stroke:rgb(242,242,242);stroke-width:4.06px;"/>
        </g>
        <g transform="matrix(0.971246,0,0,0.94375,14.1084,38.9)">
            <path d="M289.285,444.218C295.724,421.688 345.887,404.129 406.73,404.129C468.098,404.129 518.601,421.992 524.332,444.803C524.69,446.229 524.873,447.674 524.873,449.135" style="fill:none;stroke:rgb(242,242,242);stroke-width:4.03px;"/>
        </g>
        <g transform="matrix(0.971246,0,0,0.94375,14.1084,30.9971)">
            <path d="M288.797,451.84C288.657,450.945 288.587,450.043 288.587,449.135C288.587,424.295 341.525,404.129 406.73,404.129C471.935,404.129 524.873,424.295 524.873,449.135C524.873,450.439 524.727,451.731 524.441,453.007" style="fill:none;stroke:rgb(242,242,242);stroke-width:4.03px;"/>
        </g>
        <g transform="matrix(0.846429,0,0,0.94375,65.1344,73.3651)">
            <path d="M304.598,426.511C325.082,413.129 363.169,404.129 406.73,404.129C450.254,404.129 488.312,413.114 508.81,426.477" style="fill:none;stroke:rgb(242,242,242);stroke-width:4.31px;"/>
        </g>
        <g transform="matrix(0.76285,0,0,0.800729,99.1282,138.293)">
            <path d="M307.711,424.589C328.802,412.275 365.288,404.129 406.73,404.129C448.134,404.129 484.593,412.26 505.692,424.556" style="fill:none;stroke:rgb(242,242,242);stroke-width:4.94px;"/>
        </g>
        <g transform="matrix(0.76285,0,0,0.800729,99.1282,138.293)">
            <path d="M406.73,433.31L353.998,430.982L307.711,424.589C328.802,412.275 365.288,404.129 406.73,404.129C448.134,404.129 484.593,412.26 505.692,424.556C505.692,424.556 480.275,429.117 455.877,431.275C430.803,433.493 406.73,433.31 406.73,433.31Z" style="fill:rgb(248,248,248);fill-opacity:0.75;stroke:rgb(242,242,242);stroke-width:4.94px;"/>
        </g>
        <g transform="matrix(0.962,0,0,1.36134,26.0204,-172.808)">
            <path d="M573.653,455.19C585.778,462.17 592.573,469.991 592.573,478.247C592.573,507.672 506.284,531.56 400,531.56C293.716,531.56 207.427,507.672 207.427,478.247C207.427,470.682 213.132,463.482 223.414,456.96" style="fill:none;stroke:rgb(242,242,242);stroke-width:3.28px;"/>
        </g>
        <g transform="matrix(0.962,0,0,1.36134,26.0204,-172.808)">
            <path d="M592.573,478.247C592.573,507.672 506.284,531.56 400,531.56C293.716,531.56 207.427,507.672 207.427,478.247C207.427,478.247 207.427,526.135 207.427,526.135C207.427,555.56 293.716,579.448 400,579.448C506.284,579.448 592.573,555.56 592.573,526.135C592.573,526.135 592.573,478.247 592.573,478.247Z" style="fill:none;stroke:rgb(242,242,242);stroke-width:3.28px;"/>
        </g>
        <g transform="matrix(0.958651,0,0,1.36134,28.0048,-182.45)">
            <path d="M207.427,526.135C207.427,555.56 293.716,579.448 400,579.448C506.284,579.448 592.573,555.56 592.573,526.135" style="fill:none;stroke:rgb(242,242,242);stroke-width:3.28px;"/>
        </g>
        <g transform="matrix(0.958651,0,0,1.36134,28.0048,-197.154)">
            <path d="M207.427,526.135C207.427,555.56 293.716,579.448 400,579.448C506.284,579.448 592.573,555.56 592.573,526.135" style="fill:none;stroke:rgb(242,242,242);stroke-width:3.28px;"/>
        </g>
        <g transform="matrix(0.958651,0,0,1.36134,26.715,-209.537)">
            <path d="M207.427,526.135C207.427,555.56 293.716,579.448 400,579.448C506.284,579.448 592.573,555.56 592.573,526.135" style="fill:none;stroke:rgb(242,242,242);stroke-width:3.28px;"/>
        </g>
        <g transform="matrix(0.958651,0,0,1.36134,26.715,-227.76)">
            <path d="M207.427,526.135C207.427,555.56 293.716,579.448 400,579.448C506.284,579.448 592.573,555.56 592.573,526.135" style="fill:none;stroke:rgb(242,242,242);stroke-width:3.28px;"/>
        </g>
        <g transform="matrix(0.936279,0,0,1.56988,34.175,-150.794)">
            <path d="M511.805,521.648C480.275,527.887 441.675,531.56 400,531.56C293.716,531.56 207.427,507.672 207.427,478.247C207.427,474.872 208.563,471.569 210.734,468.366" style="fill:none;stroke:rgb(242,242,242);stroke-width:2.99px;"/>
        </g>
        <g transform="matrix(0.936279,0,0,1.36134,36.3087,-74.2782)">
            <path d="M592.573,466.272L592.573,478.247C592.573,507.672 506.284,531.56 400,531.56C293.716,531.56 207.427,507.672 207.427,478.247" style="fill:none;stroke:rgb(242,242,242);stroke-width:3.3px;"/>
        </g>
        <path d="M230.518,576.777L230.518,561.064" style="fill:none;stroke:rgb(242,242,242);stroke-width:3.86px;"/>
        <circle cx="407.23" cy="662.792" r="2.45" style="fill:rgb(230,230,230);"/>
        <path d="M512.009,668.166L510.768,644.333L547.881,641.106L578.999,623.853L582.14,607.096" style="fill:none;stroke:rgb(242,242,242);stroke-width:3.86px;"/>
        <path d="M512.009,668.166C512.009,668.166 531.372,663.325 535.965,668.166C540.558,673.006 541.923,674.115 541.923,674.115L551.605,673.131L551.329,639.194" style="fill:none;stroke:rgb(242,242,242);stroke-width:3.86px;"/>
        <path d="M578.999,623.853L578.999,656.655" style="fill:none;stroke:rgb(242,242,242);stroke-width:3.86px;"/>
        <g transform="matrix(1,0,0,1,0,0.291286)">
            <path d="M551.605,646.604L578.999,631.548" style="fill:none;stroke:rgb(242,242,242);stroke-width:3.86px;"/>
        </g>
        <g transform="matrix(1,0,0,1,0,8.42016)">
            <path d="M551.605,646.805L578.999,631.548" style="fill:none;stroke:rgb(242,242,242);stroke-width:3.86px;"/>
        </g>
        <g transform="matrix(1,0,0,1,0,17.1968)">
            <path d="M551.605,646.997L578.999,631.548" style="fill:none;stroke:rgb(242,242,242);stroke-width:3.86px;"/>
        </g>
        <g transform="matrix(1,0,0,1,0,26.6042)">
            <path d="M551.392,646.895L578.999,631.548" style="fill:none;stroke:rgb(242,242,242);stroke-width:3.86px;"/>
        </g>
        <path d="M245.843,612.766C245.547,612.489 245.11,612.424 244.746,612.603C242.586,613.709 235.522,617.91 237.374,624.526C239.374,631.667 246.962,632.55 249.37,632.648C249.806,632.657 250.197,632.383 250.337,631.97C250.801,630.419 251.767,626.439 251.028,621.965C250.294,617.517 247.084,613.987 245.843,612.766Z" style="fill:rgb(230,230,230);"/>
        <path d="M582.14,628.386C582.14,628.386 593.851,610.517 587.316,591.67" style="fill:none;stroke:rgb(242,242,242);stroke-width:3.86px;"/>
        <path d="M231.958,497.203L231.958,562.659" style="fill:none;stroke:rgb(242,242,242);stroke-width:2.9px;"/>
        <g transform="matrix(1,0,0,1,6.91627,7.55886)">
            <path d="M231.958,497.203L231.958,562.659" style="fill:none;stroke:rgb(242,242,242);stroke-width:2.9px;"/>
        </g>
        <g transform="matrix(1,0,0,1,15.8086,15.4632)">
            <path d="M231.958,497.203L231.958,562.659" style="fill:none;stroke:rgb(242,242,242);stroke-width:2.9px;"/>
        </g>
        <g transform="matrix(1,0,0,1,23.8541,20.8933)">
            <path d="M231.958,497.203L231.958,562.659" style="fill:none;stroke:rgb(242,242,242);stroke-width:2.9px;"/>
        </g>
        <g transform="matrix(1,0,0,1,34.2991,26.3981)">
            <path d="M231.958,497.203L231.958,562.659" style="fill:none;stroke:rgb(242,242,242);stroke-width:2.9px;"/>
        </g>
        <g transform="matrix(1,0,0,1,44.7441,30.5442)">
            <path d="M231.958,497.203L231.958,562.659" style="fill:none;stroke:rgb(242,242,242);stroke-width:2.9px;"/>
        </g>
        <g transform="matrix(1,0,0,1,59.7223,36.5943)">
            <path d="M231.958,497.203L231.958,562.659" style="fill:none;stroke:rgb(242,242,242);stroke-width:2.9px;"/>
        </g>
        <g transform="matrix(1,0,0,1,73.696,40.2868)">
            <path d="M231.958,497.203L231.958,562.659" style="fill:none;stroke:rgb(242,242,242);stroke-width:2.9px;"/>
        </g>
        <g transform="matrix(1,0,0,1,88.6743,43.7151)">
            <path d="M231.958,497.203L231.958,562.659" style="fill:none;stroke:rgb(242,242,242);stroke-width:2.9px;"/>
        </g>
        <g transform="matrix(1,0,0,1,105.753,47.3692)">
            <path d="M231.958,497.203L231.958,562.659" style="fill:none;stroke:rgb(242,242,242);stroke-width:2.9px;"/>
        </g>
        <g transform="matrix(1,0,0,1,122.832,49.9287)">
            <path d="M231.958,497.203L231.958,562.659" style="fill:none;stroke:rgb(242,242,242);stroke-width:2.9px;"/>
        </g>
        <g transform="matrix(1,0,0,1,139.911,51.6225)">
            <path d="M231.958,497.203L231.958,562.659" style="fill:none;stroke:rgb(242,242,242);stroke-width:2.9px;"/>
        </g>
        <g transform="matrix(1,0,0,1,159.39,53.357)">
            <path d="M231.958,497.203L231.958,562.659" style="fill:none;stroke:rgb(242,242,242);stroke-width:2.9px;"/>
        </g>
        <g transform="matrix(1,0,0,1,177.444,53.6213)">
            <path d="M231.958,497.203L231.958,562.659" style="fill:none;stroke:rgb(242,242,242);stroke-width:2.9px;"/>
        </g>
        <g transform="matrix(1,0,0,1,195.498,53.357)">
            <path d="M231.958,497.203L231.958,562.659" style="fill:none;stroke:rgb(242,242,242);stroke-width:2.9px;"/>
        </g>
        <g transform="matrix(1,0,0,1,214.292,51.6225)">
            <path d="M231.958,497.203L231.958,562.659" style="fill:none;stroke:rgb(242,242,242);stroke-width:2.9px;"/>
        </g>
        <g transform="matrix(1,0,0,1,232.346,50.7756)">
            <path d="M231.958,497.203L231.958,562.659" style="fill:none;stroke:rgb(242,242,242);stroke-width:2.9px;"/>
        </g>
        <g transform="matrix(1,0,0,1,249.425,48.1911)">
            <path d="M231.958,497.203L231.958,562.659" style="fill:none;stroke:rgb(242,242,242);stroke-width:2.9px;"/>
        </g>
        <g transform="matrix(1,0,0,1,266.504,44.4369)">
            <path d="M231.958,497.203L231.958,562.659" style="fill:none;stroke:rgb(242,242,242);stroke-width:2.9px;"/>
        </g>
        <g transform="matrix(1,0,0,1,281.482,40.9244)">
            <path d="M231.958,497.203L231.958,562.659" style="fill:none;stroke:rgb(242,242,242);stroke-width:2.9px;"/>
        </g>
        <g transform="matrix(1,0,0,1,297.149,36.5943)">
            <path d="M231.958,497.203L231.958,562.659" style="fill:none;stroke:rgb(242,242,242);stroke-width:2.9px;"/>
        </g>
        <g transform="matrix(1,0,0,1,311.123,31.1335)">
            <path d="M231.958,497.203L231.958,562.659" style="fill:none;stroke:rgb(242,242,242);stroke-width:2.9px;"/>
        </g>
        <g transform="matrix(1,0,0,1,321.568,27.5731)">
            <path d="M231.958,497.203L231.958,562.659" style="fill:none;stroke:rgb(242,242,242);stroke-width:2.9px;"/>
        </g>
        <g transform="matrix(1,0,0,1,330.602,23.1444)">
            <path d="M231.958,497.203L231.958,562.659" style="fill:none;stroke:rgb(242,242,242);stroke-width:2.9px;"/>
        </g>
        <g transform="matrix(1,0,0,1,341.047,15.4632)">
            <path d="M231.958,497.203L231.958,562.659" style="fill:none;stroke:rgb(242,242,242);stroke-width:2.9px;"/>
        </g>
        <g transform="matrix(1,0,0,1,349.092,10.0675)">
            <path d="M231.958,497.203L231.958,562.659" style="fill:none;stroke:rgb(242,242,242);stroke-width:2.9px;"/>
        </g>
        <g transform="matrix(1,0,0,1,355.02,3.86634)">
            <path d="M231.958,497.203L231.958,562.659" style="fill:none;stroke:rgb(242,242,242);stroke-width:2.9px;"/>
        </g>
        <g transform="matrix(1.06335,0,0,1,-20.631,8.38402)">
            <path d="M556.419,669.066C529.123,700.691 471.012,722.545 403.8,722.545C331.757,722.545 270.169,697.436 245.781,662.099" style="fill:none;stroke:rgb(242,242,242);stroke-width:3.74px;"/>
        </g>
        <path d="M330.461,721.93L354.791,733.292L359.143,739.129C359.143,739.129 374.461,741.241 394.529,741.877C416.333,742.567 436.242,740.499 436.242,740.499L436.242,735.304L449.884,733.859L453.744,737.683L464.304,735.304L467.03,730.929L481.383,727.471L484.895,722.093" style="fill:none;stroke:rgb(242,242,242);stroke-width:3.86px;"/>
        <path d="M582.14,607.096L582.14,645.377C582.14,645.377 579.527,647.66 578.999,657.624" style="fill:none;stroke:rgb(242,242,242);stroke-width:3.86px;"/>
        <path d="M333.866,642.421L334.151,655.561" style="fill:none;stroke:rgb(242,242,242);stroke-width:2.1px;"/>
        <g transform="matrix(1,0,0,1,16.4601,2.95643)">
            <path d="M333.866,642.421L334.151,655.561" style="fill:none;stroke:rgb(242,242,242);stroke-width:2.1px;"/>
        </g>
        <g transform="matrix(1,0,0,1,28.5256,4.4746)">
            <path d="M333.866,642.421L334.151,655.561" style="fill:none;stroke:rgb(242,242,242);stroke-width:2.1px;"/>
        </g>
        <g transform="matrix(1,0,0,1,37.2351,5.51334)">
            <path d="M333.866,642.421L334.151,655.561" style="fill:none;stroke:rgb(242,242,242);stroke-width:2.1px;"/>
        </g>
        <g transform="matrix(1,0,0,1,59.0746,6.23417)">
            <path d="M333.594,643.418L333.879,670.561" style="fill:none;stroke:rgb(242,242,242);stroke-width:4.92px;"/>
        </g>
        <g transform="matrix(1,0,0,1,47.9149,6.32465)">
            <path d="M333.866,642.421L334.151,655.561" style="fill:none;stroke:rgb(242,242,242);stroke-width:2.1px;"/>
        </g>
        <g transform="matrix(1,0,0,1,80.537,7.23154)">
            <path d="M333.866,642.421L334.151,655.561" style="fill:none;stroke:rgb(242,242,242);stroke-width:2.1px;"/>
        </g>
        <g transform="matrix(1,0,0,1,89.5336,6.93364)">
            <path d="M334.106,642.24L334.151,655.561" style="fill:none;stroke:rgb(242,242,242);stroke-width:2.1px;"/>
        </g>
        <g transform="matrix(1,0,0,1,102.137,6.32465)">
            <path d="M334.106,642.24L334.151,655.561" style="fill:none;stroke:rgb(242,242,242);stroke-width:2.1px;"/>
        </g>
        <g transform="matrix(1,0,0,1,119.638,4.94685)">
            <path d="M334.106,642.24L334.151,655.561" style="fill:none;stroke:rgb(242,242,242);stroke-width:2.1px;"/>
        </g>
        <g transform="matrix(1,0,0,1,69.6486,2.06313)">
            <path d="M333.972,647.291L334.151,655.561" style="fill:none;stroke:rgb(242,242,242);stroke-width:2.1px;"/>
        </g>
    </g>
</svg>
