<?xml version="1.0" encoding="UTF-8" standalone="no"?>
<!DOCTYPE svg PUBLIC "-//W3C//DTD SVG 1.1//EN" "http://www.w3.org/Graphics/SVG/1.1/DTD/svg11.dtd">
<svg width="100%" height="100%" viewBox="0 0 800 800" version="1.1" xmlns="http://www.w3.org/2000/svg" xmlns:xlink="http://www.w3.org/1999/xlink" xml:space="preserve" xmlns:serif="http://www.serif.com/" style="fill-rule:evenodd;clip-rule:evenodd;stroke-linecap:round;stroke-linejoin:round;stroke-miterlimit:1.5;">
    <g id="Sony_85">
        <path d="M265.281,330.454C265.281,330.454 307.059,349.496 397.518,349.515C477.751,349.532 536.079,331.117 536.079,331.117" style="fill:none;stroke:rgb(242,242,242);stroke-width:6.67px;"/>
        <g transform="matrix(1,0,0,1,-7.04507,-2.79043)">
            <path d="M195.386,492.98C199.94,492.98 203.637,506.215 203.637,522.516C203.637,538.817 199.94,552.052 195.386,552.052" style="fill:rgb(248,248,248);stroke:rgb(242,242,242);stroke-width:4.44px;"/>
        </g>
        <g transform="matrix(1,0,0,1,-3.48465,-2.79043)">
            <path d="M195.386,492.98C199.94,492.98 203.637,506.215 203.637,522.516C203.637,538.817 199.94,552.052 195.386,552.052" style="fill:none;stroke:rgb(242,242,242);stroke-width:4.44px;"/>
        </g>
        <g transform="matrix(1,0,0,1,0,-2.79043)">
            <path d="M188.34,492.98L188.34,552.052" style="fill:none;stroke:rgb(242,242,242);stroke-width:4.44px;"/>
        </g>
        <g transform="matrix(1,0,0,1,0,-2.79043)">
            <path d="M188.34,492.98L192.466,493.048" style="fill:none;stroke:rgb(242,242,242);stroke-width:4.44px;"/>
        </g>
        <g transform="matrix(1,0,0,1,0,-2.79043)">
            <path d="M188.416,552.051L191.901,552.052" style="fill:none;stroke:rgb(242,242,242);stroke-width:4.44px;"/>
        </g>
        <path d="M565.88,676.033L566.239,625.783L578.138,610.639" style="fill:none;stroke:rgb(242,242,242);stroke-width:4.44px;"/>
        <path d="M233.078,676.033L233.078,625.472L220.721,609.483" style="fill:none;stroke:rgb(242,242,242);stroke-width:4.44px;"/>
        <path d="M199.649,572.837L199.649,556.519L195.386,556.519L195.386,479.11" style="fill:none;stroke:rgb(242,242,242);stroke-width:4.44px;"/>
        <path d="M601.406,572.837L601.406,481.865" style="fill:none;stroke:rgb(242,242,242);stroke-width:4.44px;"/>
        <path d="M615.048,453.016L615.6,330.141C615.6,376.832 516.309,410.442 397.413,410.442C278.517,410.442 184.751,376.832 184.751,330.141L185.303,453.016C185.303,499.707 281.179,542.477 399.77,542.477C518.361,542.477 615.048,499.707 615.048,453.016Z" style="fill:rgb(242,242,242);stroke:rgb(242,242,242);stroke-width:4.44px;"/>
        <path d="M184.752,330.454L190.061,286.822" style="fill:none;stroke:rgb(242,242,242);stroke-width:4.44px;"/>
        <path d="M609.939,288.831L615.6,330.454" style="fill:none;stroke:rgb(242,242,242);stroke-width:4.44px;"/>
        <g transform="matrix(1,0,0,1.02286,0,-6.47102)">
            <ellipse cx="400" cy="265.642" rx="194.139" ry="69.86" style="fill:none;stroke:rgb(242,242,242);stroke-width:4.39px;"/>
        </g>
        <g transform="matrix(1.08138,0,0,1.15894,-32.5521,-17.9714)">
            <path d="M578.654,238.275C588.622,246.681 594.139,255.932 594.139,265.642C594.139,304.199 507.148,335.502 400,335.502C292.852,335.502 205.861,304.199 205.861,265.642C205.861,255.932 211.378,246.681 221.346,238.275" style="fill:none;stroke:rgb(242,242,242);stroke-width:3.97px;"/>
        </g>
        <g transform="matrix(1.09226,0,0,1.18414,-36.904,-19.7359)">
            <path d="M593.459,269.082C592.953,303.205 507.148,335.502 400,335.502C292.852,335.502 213.499,304.727 205.91,273.171" style="fill:none;stroke:rgb(242,242,242);stroke-width:3.9px;"/>
        </g>
        <g transform="matrix(1.09701,0,0,1.21097,-38.8053,4.15968)">
            <path d="M594.139,265.642C594.139,304.199 507.148,335.502 400,335.502C292.852,335.502 205.861,304.199 205.861,265.642" style="fill:none;stroke:rgb(242,242,242);stroke-width:3.85px;"/>
        </g>
        <g transform="matrix(1.03652,0,0,1.15894,-14.4331,264.973)">
            <path d="M594.139,265.642C594.139,304.199 507.148,335.502 400,335.502C292.852,335.502 205.861,304.199 205.861,265.642" style="fill:none;stroke:rgb(242,242,242);stroke-width:4.04px;"/>
        </g>
        <g transform="matrix(0.857122,0,0,1.02286,56.6302,404.319)">
            <path d="M594.139,265.642C594.139,304.199 507.148,335.502 400,335.502C292.852,335.502 205.861,304.199 205.861,265.642" style="fill:none;stroke:rgb(242,242,242);stroke-width:4.71px;"/>
        </g>
        <g transform="matrix(1.03471,0,0,1.21097,-13.3578,148.698)">
            <path d="M590.772,278.654C573.809,311.002 494.793,335.502 400,335.502C306.084,335.502 227.655,311.453 209.715,279.55" style="fill:none;stroke:rgb(242,242,242);stroke-width:3.95px;"/>
        </g>
        <path d="M399.77,384.497L399.77,391.951" style="fill:none;stroke:rgb(242,242,242);stroke-width:6.67px;"/>
        <g transform="matrix(0.919491,0,0,0.947429,32.2034,30.1277)">
            <path d="M211.149,281.892C207.691,276.677 205.861,271.236 205.861,265.642C205.861,227.085 292.852,195.782 400,195.782C507.148,195.782 594.139,227.085 594.139,265.642C594.139,271.236 592.309,276.677 588.851,281.892" style="fill:none;stroke:rgb(242,242,242);stroke-width:4.76px;"/>
        </g>
        <g transform="matrix(0.791182,0,0,0.782857,83.5273,80.8707)">
            <path d="M237.565,303.895C217.522,292.903 205.861,279.759 205.861,265.642C205.861,227.085 292.852,195.782 400,195.782C507.148,195.782 594.139,227.085 594.139,265.642C594.139,279.759 582.478,292.903 562.435,303.895" style="fill:none;stroke:rgb(242,242,242);stroke-width:5.65px;"/>
        </g>
        <g transform="matrix(0.766178,0,0,0.782857,93.5289,87.9764)">
            <path d="M208.598,277.387C206.798,273.568 205.861,269.644 205.861,265.642C205.861,227.085 292.852,195.782 400,195.782C507.148,195.782 594.139,227.085 594.139,265.642C594.139,274.153 589.901,282.311 582.142,289.856" style="fill:none;stroke:rgb(242,242,242);stroke-width:5.74px;"/>
        </g>
        <g transform="matrix(0.750386,0,0,0.782857,99.8457,94.7387)">
            <path d="M206.34,270.587C206.022,268.953 205.861,267.305 205.861,265.642C205.861,227.085 292.852,195.782 400,195.782C507.148,195.782 594.139,227.085 594.139,265.642C594.139,267.305 593.978,268.953 593.66,270.587" style="fill:none;stroke:rgb(242,242,242);stroke-width:5.8px;"/>
        </g>
        <g transform="matrix(0.72275,0,0,0.782857,110.9,101.517)">
            <path d="M205.949,267.771C205.89,267.064 205.861,266.354 205.861,265.642C205.861,227.085 292.852,195.782 400,195.782C507.148,195.782 594.139,227.085 594.139,265.642C594.139,266.354 594.11,267.064 594.051,267.771" style="fill:none;stroke:rgb(242,242,242);stroke-width:5.9px;"/>
        </g>
        <g transform="matrix(0.791182,0,0,1.86245,83.5725,-99.3911)">
            <path d="M241.784,225.1C276.953,207.204 334.51,196.512 399.999,196.512C465.17,196.512 522.884,207.363 558.102,225.112" style="fill:none;stroke:rgb(242,242,242);stroke-width:3.11px;"/>
        </g>
        <path d="M474.923,292.102L460.838,298.894L448.039,303.612L433.896,307.385L411.268,310.581L393.522,310.965L374.291,308.991L358.959,305.821L339.713,299.464L330.636,295.427L325.563,292.838L322.029,299.555L320.776,305.569L322.289,313.333L325.56,318.777L329.812,322.856L336.058,327.253L344.452,331.468L351.408,334.087L362.294,335.35L386.424,336.699L399.479,337.125L408.396,336.634L424.682,336.126L439.391,335.225L450.652,333.376L460.803,329L469.116,324.426L474.923,317.979L478.134,312.285L479.237,306.57L478.543,300.713L476.576,295.189L474.923,292.102Z" style="fill:rgb(201,201,201);fill-opacity:0.59;"/>
        <g transform="matrix(1.00236,0,0,1.01987,-0.944749,-3.91026)">
            <path d="M474.745,290.246C461.301,310.316 429.905,325.007 399.479,324.426C349.854,323.479 325.738,290.968 325.738,290.968L325.735,290.972C325.735,290.972 353.464,295.008 398.411,295.245C430.471,295.413 445.03,292.82 474.745,290.246Z" style="fill:rgb(201,201,201);fill-opacity:0.78;stroke:rgb(242,242,242);stroke-width:4.4px;"/>
        </g>
        <g transform="matrix(0.791182,0,0,1.86245,83.5273,-99.3911)">
            <path d="M293.448,207.505C324.044,200.467 360.663,196.512 399.999,196.512C439.087,196.512 475.492,200.415 505.97,207.369C504.62,207.735 503.258,208.095 501.884,208.447C472.592,215.965 438.064,220.332 400,220.332C360.15,220.332 323.597,215.682 293.448,207.505Z" style="fill:rgb(248,248,248);fill-opacity:0.56;stroke:rgb(242,242,242);stroke-width:3.11px;"/>
        </g>
        <g transform="matrix(1.00236,0,0,1.01987,-0.944749,-3.91026)">
            <path d="M474.745,290.246C461.301,310.316 429.905,325.007 399.479,324.426C349.854,323.479 325.738,290.968 325.738,290.968L325.735,290.972C325.735,290.972 353.464,295.008 398.411,295.245C430.471,295.413 445.03,292.82 474.745,290.246Z" style="fill:none;stroke:rgb(242,242,242);stroke-width:4.4px;"/>
        </g>
        <g transform="matrix(0.408143,0,0,0.525889,236.743,166.504)">
            <path d="M583.57,238.829C590.539,247.773 594.139,257.262 594.139,265.642C594.139,288.644 563.18,307.834 515.451,319.575" style="fill:none;stroke:rgb(242,242,242);stroke-width:9.44px;"/>
        </g>
        <g transform="matrix(0.408143,0,0,0.525889,236.743,166.504)">
            <path d="M284.549,319.575C236.82,307.834 205.861,288.644 205.861,265.642C205.861,257.545 210.034,248.875 217.62,240.23" style="fill:none;stroke:rgb(242,242,242);stroke-width:9.44px;"/>
        </g>
        <path d="M504.793,731.342C504.793,731.342 497.312,736.095 493.355,738.073C489.364,740.069 480.843,743.316 480.843,743.316L474.358,739.852C474.358,739.852 452.508,748.817 413.988,751.74C385.752,753.883 351.66,748.613 351.66,748.613L346.362,751.74C346.362,751.74 336.236,749.602 326.544,745.639C318.968,742.54 300.75,733.542 300.75,733.542" style="fill:none;stroke:rgb(242,242,242);stroke-width:4.44px;"/>
    </g>
</svg>
