<?xml version="1.0" encoding="UTF-8" standalone="no"?>
<!DOCTYPE svg PUBLIC "-//W3C//DTD SVG 1.1//EN" "http://www.w3.org/Graphics/SVG/1.1/DTD/svg11.dtd">
<svg width="100%" height="100%" viewBox="0 0 750 387" version="1.1" xmlns="http://www.w3.org/2000/svg" xmlns:xlink="http://www.w3.org/1999/xlink" xml:space="preserve" xmlns:serif="http://www.serif.com/" style="fill-rule:evenodd;clip-rule:evenodd;stroke-linejoin:round;">
    <g transform="matrix(1,0,0,1,-25.06,-106.518)">
        <g id="Sony" transform="matrix(1.54127,0,0,1.54127,-607.645,-354.145)">
            <path d="M435.5,300.834L872.779,300.834L872.779,301.869" style="fill:none;stroke:rgb(242,242,242);stroke-width:2.2px;"/>
            <path d="M790.013,329.98L861.55,329.98C861.55,329.98 868.569,330.108 872.779,331.159" style="fill:none;stroke:rgb(242,242,242);stroke-width:2.2px;stroke-linejoin:miter;"/>
            <path d="M461.549,340.97C461.549,340.97 444.316,371.886 456.8,407.727C469.285,443.569 467.505,468.091 461.549,492.678C455.592,517.265 448.674,528.941 453.981,537.377C456.578,541.503 487.568,541.218 502.857,541.088C520.393,540.939 538.127,542.214 547.138,540.325C551.837,539.341 555.271,536.027 556.924,529.759" style="fill:none;stroke:rgb(242,242,242);stroke-width:2.2px;stroke-linejoin:miter;"/>
            <path d="M441.267,532.291C441.267,532.291 440.902,538.511 448.259,539.269C457.232,540.192 466.071,540.325 466.071,540.325" style="fill:none;stroke:rgb(242,242,242);stroke-width:2.2px;stroke-linejoin:miter;"/>
            <path d="M433.145,328.042L421.282,328.042C419.627,328.042 418.04,328.7 416.87,329.87C415.7,331.04 415.042,332.627 415.042,334.282C415.042,337.13 415.042,340.492 415.042,343.335C415.042,346.758 417.817,349.533 421.24,349.533C426.482,349.533 433.145,349.533 433.145,349.533" style="fill:none;stroke:rgb(242,242,242);stroke-width:2.2px;stroke-linejoin:miter;"/>
            <g transform="matrix(-1.09008,-1.33497e-16,1.15977e-16,-0.947023,1344.94,662.828)">
                <path d="M433.145,328.042L420.767,328.042C419.248,328.042 417.792,328.737 416.719,329.972C415.645,331.208 415.042,332.884 415.042,334.632C415.042,337.285 415.042,340.339 415.042,342.988C415.042,344.724 415.641,346.388 416.708,347.616C417.774,348.843 419.22,349.533 420.728,349.533C426.036,349.533 433.145,349.533 433.145,349.533" style="fill:none;stroke:rgb(242,242,242);stroke-width:2.15px;stroke-linejoin:miter;"/>
            </g>
            <g transform="matrix(1.00068,0,0,1,-0.296337,0)">
                <path d="M556.281,547.431C545.724,547.069 545.027,548.856 545.027,548.856L444.598,548.856C441.561,548.856 438.648,547.648 436.501,545.499C434.353,543.35 433.147,540.436 433.147,537.397L433.147,327.814L435.5,327.814L435.5,303.234C435.5,301.909 436.574,300.834 437.899,300.834C472.613,300.834 872.482,300.834 872.482,300.834L872.482,541.087C872.482,544.591 869.643,547.431 866.142,547.431C821.507,547.431 556.281,547.431 556.281,547.431Z" style="fill:none;stroke:rgb(242,242,242);stroke-width:2.2px;"/>
            </g>
            <path d="M502.857,305.649C502.857,305.649 501.45,308.018 501.577,312.885" style="fill:none;stroke:rgb(242,242,242);stroke-width:2.2px;"/>
            <path d="M551.496,305.649C551.496,305.649 553.156,308.511 553.284,312.498" style="fill:none;stroke:rgb(242,242,242);stroke-width:2.2px;"/>
            <path d="M568.758,313.837C568.758,313.837 566.244,313.387 564.896,315.971C563.548,318.555 552.022,328.244 527.932,328.085C503.843,327.927 482.165,328.085 482.165,328.085C482.165,328.085 462.703,327.346 452.893,321.347C443.083,315.348 440.151,313.766 440.151,313.766L435.5,311.223L500.291,311.223" style="fill:none;stroke:rgb(242,242,242);stroke-width:2.2px;"/>
            <path d="M553.284,310.52L569.133,310.52L569.133,329.457" style="fill:none;stroke:rgb(242,242,242);stroke-width:2.2px;"/>
            <path d="M519.667,328.042L519.667,321.347L523.349,321.347L523.349,318.659L529.678,318.659L529.678,321.347L533.792,321.347L533.792,327.924" style="fill:none;stroke:rgb(242,242,242);stroke-width:2.2px;"/>
            <path d="M523.349,318.659L522.969,314.581L530.248,314.581L529.678,318.659" style="fill:none;stroke:rgb(242,242,242);stroke-width:2.2px;"/>
            <path d="M545.501,548.501C545.501,548.501 555.609,545.056 557.383,526.193C559.158,507.331 557.383,355.813 557.383,355.813C557.383,355.813 556.519,343.104 570.099,337.885" style="fill:none;stroke:rgb(242,242,242);stroke-width:2.2px;"/>
            <rect x="675.275" y="392.868" width="90.487" height="64.713" style="fill:none;stroke:rgb(242,242,242);stroke-width:2.2px;"/>
            <path d="M664.955,461.431C677.061,480.113 698.093,493.335 721.992,493.335C746.513,493.335 768.016,479.46 779.956,459.959L779.956,389.179C768.016,369.678 746.513,356.654 721.992,356.654C698.093,356.654 677.061,369.025 664.955,387.707L664.955,461.431Z" style="fill:none;stroke:rgb(242,242,242);stroke-width:2.2px;"/>
            <path d="M674.527,473.113L769.469,473.113" style="fill:none;stroke:rgb(242,242,242);stroke-width:2.2px;"/>
            <path d="M773.207,379.985L670.777,379.985" style="fill:none;stroke:rgb(242,242,242);stroke-width:2.2px;"/>
            <rect x="661.349" y="311.985" width="11.914" height="5.192" style="fill:none;stroke:rgb(242,242,242);stroke-width:2.2px;"/>
            <rect x="767.811" y="311.985" width="12.145" height="5.192" style="fill:none;stroke:rgb(242,242,242);stroke-width:2.2px;"/>
            <circle cx="790.678" cy="355.813" r="5.886" style="fill:none;stroke:rgb(242,242,242);stroke-width:2.2px;"/>
            <circle cx="778.956" cy="345.165" r="4.367" style="fill:rgb(242,242,242);"/>
            <circle cx="651.057" cy="354.794" r="6.123" style="fill:none;stroke:rgb(242,242,242);stroke-width:2.2px;"/>
            <circle cx="650.71" cy="494.854" r="6.471" style="fill:none;stroke:rgb(242,242,242);stroke-width:2.2px;"/>
            <circle cx="635.804" cy="477.338" r="4.225" style="fill:none;stroke:rgb(242,242,242);stroke-width:2.2px;"/>
            <circle cx="790.3" cy="494.854" r="5.935" style="fill:none;stroke:rgb(242,242,242);stroke-width:2.2px;"/>
            <circle cx="673.008" cy="480.314" r="1.519" style="fill:rgb(242,242,242);stroke:rgb(242,242,242);stroke-width:2.2px;"/>
            <g transform="matrix(1,0,0,1,7.77727,5.58991)">
                <circle cx="673.008" cy="480.314" r="1.519" style="fill:rgb(242,242,242);stroke:rgb(242,242,242);stroke-width:2.2px;"/>
            </g>
            <g transform="matrix(1,0,0,1,16.0406,10.8456)">
                <circle cx="673.008" cy="480.314" r="1.519" style="fill:rgb(242,242,242);stroke:rgb(242,242,242);stroke-width:2.2px;"/>
            </g>
            <g transform="matrix(1,0,0,1,24.6799,14.5399)">
                <circle cx="673.008" cy="480.314" r="1.519" style="fill:rgb(242,242,242);stroke:rgb(242,242,242);stroke-width:2.2px;"/>
            </g>
            <g transform="matrix(1,0,0,1,34.2923,17.032)">
                <circle cx="673.008" cy="480.314" r="1.519" style="fill:rgb(242,242,242);stroke:rgb(242,242,242);stroke-width:2.2px;"/>
            </g>
            <g transform="matrix(1,0,0,1,43.4894,18.1791)">
                <circle cx="673.008" cy="480.314" r="1.519" style="fill:rgb(242,242,242);stroke:rgb(242,242,242);stroke-width:2.2px;"/>
            </g>
            <g transform="matrix(1,0,0,1,52.6864,18.1791)">
                <circle cx="673.008" cy="480.314" r="1.519" style="fill:rgb(242,242,242);stroke:rgb(242,242,242);stroke-width:2.2px;"/>
            </g>
            <g transform="matrix(1,0,0,1,62.3582,17.032)">
                <circle cx="673.008" cy="480.314" r="1.519" style="fill:rgb(242,242,242);stroke:rgb(242,242,242);stroke-width:2.2px;"/>
            </g>
            <g transform="matrix(1,0,0,1,71.9706,14.5399)">
                <circle cx="673.008" cy="480.314" r="1.519" style="fill:rgb(242,242,242);stroke:rgb(242,242,242);stroke-width:2.2px;"/>
            </g>
            <g transform="matrix(1,0,0,1,80.5149,10.8456)">
                <circle cx="673.008" cy="480.314" r="1.519" style="fill:rgb(242,242,242);stroke:rgb(242,242,242);stroke-width:2.2px;"/>
            </g>
            <circle cx="579.748" cy="339.381" r="7.569" style="fill:none;stroke:rgb(242,242,242);stroke-width:2.2px;"/>
            <ellipse cx="473.008" cy="318.659" rx="11.459" ry="2.688" style="fill:none;stroke:rgb(242,242,242);stroke-width:2.2px;"/>
            <ellipse cx="526.765" cy="303.239" rx="15.844" ry="3.254" style="fill:none;stroke:rgb(242,242,242);stroke-width:2.2px;"/>
            <g transform="matrix(1.01721,0,0,1.33453,-8.65282,-101.487)">
                <ellipse cx="526.765" cy="305.078" rx="23.908" ry="4.244" style="fill:none;stroke:rgb(242,242,242);stroke-width:1.85px;"/>
            </g>
            <g transform="matrix(1.13859,0,0,1.33453,-72.6144,-86.2943)">
                <path d="M550.673,305.078C550.673,307.063 542.977,308.732 532.595,309.195" style="fill:none;stroke:rgb(242,242,242);stroke-width:1.77px;"/>
            </g>
            <g transform="matrix(1.13859,0,0,1.33453,-72.6144,-91.7883)">
                <path d="M550.673,305.078C550.673,307.063 542.254,309.111 531.872,309.573" style="fill:none;stroke:rgb(242,242,242);stroke-width:1.77px;"/>
            </g>
            <g transform="matrix(1.13859,0,0,1.33453,-72.6144,-86.2943)">
                <path d="M520.189,309.159C510.187,308.652 502.857,307.016 502.857,305.078" style="fill:none;stroke:rgb(242,242,242);stroke-width:1.77px;"/>
            </g>
            <g transform="matrix(1.13859,0,0,1.33453,-72.6144,-91.7883)">
                <path d="M520.189,309.573C510.187,309.066 502.857,307.016 502.857,305.078" style="fill:none;stroke:rgb(242,242,242);stroke-width:1.77px;"/>
            </g>
            <path d="M554.376,320.842L554.376,315.348C554.376,315.348 553.133,313.756 553.284,311.985" style="fill:none;stroke:rgb(242,242,242);stroke-width:2.2px;"/>
            <circle cx="881.671" cy="341.853" r="5.523" style="fill:none;stroke:rgb(242,242,242);stroke-width:2.2px;"/>
            <g transform="matrix(1,0,0,1,0.0754064,0.902432)">
                <circle cx="424.769" cy="337.885" r="5.472" style="fill:none;stroke:rgb(242,242,242);stroke-width:2.2px;"/>
            </g>
            <path d="M535.855,350.591C535.855,348.008 533.762,345.915 531.179,345.915C525.111,345.915 514.571,345.915 508.39,345.915C505.677,345.915 503.479,348.113 503.479,350.826C503.479,352.393 503.479,354.124 503.479,355.678C503.479,356.931 503.976,358.132 504.862,359.018C505.748,359.903 506.949,360.401 508.202,360.401L531.203,360.401C532.437,360.401 533.62,359.911 534.493,359.038C535.365,358.166 535.855,356.982 535.855,355.748C535.855,354.099 535.855,352.242 535.855,350.591Z" style="fill:none;stroke:rgb(242,242,242);stroke-width:2.2px;"/>
            <circle cx="721.992" cy="424.569" r="108.497" style="fill:none;stroke:rgb(242,242,242);stroke-width:2.2px;"/>
            <circle cx="721.992" cy="424.569" r="87.774" style="fill:none;stroke:rgb(242,242,242);stroke-width:2.2px;"/>
            <g transform="matrix(0.90974,0,0,0.94652,65.4949,18.0117)">
                <path d="M771.817,482.631C771.817,482.631 776.443,481.14 778.672,482.855C782.759,486.001 780.762,489.742 780.762,489.742C765.198,503.788 744.736,512.678 722.141,512.678C698.44,512.678 679.321,505.91 662.339,489.063C660.519,487.257 662.073,483.882 663.697,482.855C666.419,481.133 671.374,482.567 671.374,482.567" style="fill:none;stroke:rgb(242,242,242);stroke-width:2.37px;"/>
            </g>
            <path d="M759.424,345.165L760.676,353.158C779.781,363.537 794.265,381.36 800.227,402.722L807.351,404.051" style="fill:none;stroke:rgb(242,242,242);stroke-width:2.2px;"/>
            <path d="M792.399,476.964L786.472,473.925C771.623,493.288 748.255,505.781 721.992,505.781C709.045,505.781 696.801,502.745 685.934,497.346L680.785,502.075" style="fill:none;stroke:rgb(242,242,242);stroke-width:2.2px;"/>
            <path d="M634.252,427.046L640.817,427.046C640.792,426.223 640.78,425.397 640.78,424.569C640.78,396.911 654.636,372.463 675.779,357.796L676.271,349.533" style="fill:none;stroke:rgb(242,242,242);stroke-width:2.2px;stroke-linejoin:miter;"/>
            <path d="M669.997,474.938C657.366,461.901 649.587,444.137 649.587,424.569C649.587,384.608 682.031,352.164 721.992,352.164C761.953,352.164 794.397,384.608 794.397,424.569C794.397,444.19 786.576,461.998 773.883,475.044" style="fill:none;stroke:rgb(242,242,242);stroke-width:2.2px;"/>
            <circle cx="721.992" cy="424.569" r="116.519" style="fill:none;stroke:rgb(242,242,242);stroke-width:2.2px;"/>
            <circle cx="721.992" cy="424.569" r="111.684" style="fill:none;stroke:rgb(242,242,242);stroke-width:2.2px;"/>
            <path d="M675.275,392.868L667.306,384.31" style="fill:none;stroke:rgb(242,242,242);stroke-width:2.2px;"/>
            <path d="M765.762,392.868L778.494,386.895" style="fill:none;stroke:rgb(242,242,242);stroke-width:2.2px;"/>
            <path d="M765.762,457.581L772.561,469.884" style="fill:none;stroke:rgb(242,242,242);stroke-width:2.2px;"/>
            <path d="M675.275,457.581L669.953,468.19" style="fill:none;stroke:rgb(242,242,242);stroke-width:2.2px;"/>
            <path d="M570.085,329.457L570.413,532.304C570.413,532.304 566.806,544.456 556.363,547.431" style="fill:none;stroke:rgb(242,242,242);stroke-width:2.2px;"/>
            <path d="M570.413,532.304L677.409,532.304" style="fill:none;stroke:rgb(242,242,242);stroke-width:2.2px;"/>
            <path d="M766.423,532.304L855.898,532.304C855.898,532.304 864.706,531.493 871.196,542.464" style="fill:none;stroke:rgb(242,242,242);stroke-width:2.2px;"/>
            <path d="M441.267,532.291L440.319,358.696C440.319,358.696 438.001,341.636 450.556,340.798C463.111,339.96 550.673,339.381 550.673,339.381C550.673,339.381 559.978,338.995 568.216,335.155C568.226,335.151 568.211,329.457 568.211,329.457" style="fill:none;stroke:rgb(242,242,242);stroke-width:2.2px;"/>
            <path d="M654.702,329.457L566,329.457C566,329.457 564.007,334.422 545.577,334.523C527.146,334.625 490.864,335.092 471.653,334.878C455.432,334.697 447.927,336.234 435.5,327.384" style="fill:none;stroke:rgb(242,242,242);stroke-width:2.2px;"/>
            <path d="M499.933,320.842L499.933,315.348C499.933,315.348 501.604,314.009 501.571,312.603" style="fill:none;stroke:rgb(242,242,242);stroke-width:2.2px;"/>
            <g>
                <g transform="matrix(0.957312,0,0,1.05005,26.293,-17.2076)">
                    <g transform="matrix(1,0,0,1,0.0171113,-0.384191)">
                        <path d="M582.337,322.142L583.886,322.142L584.395,320.769C585.251,321.35 586.361,321.786 588.05,322.142C588.698,322.287 589.368,322.368 590.062,322.4C594.226,322.578 596.701,321.253 597.048,319.364C597.325,317.668 596.123,316.457 593.208,315.779C592.954,315.714 592.676,315.665 592.398,315.633C587.749,314.987 586.685,314.729 586.061,314.438C584.95,313.905 584.812,312.823 585.783,312.209C586.084,311.999 586.477,311.838 587.078,311.676C587.726,311.515 588.674,311.45 589.97,311.547C590.71,311.612 591.358,311.757 592.005,312.016C593.139,312.468 594.041,313.211 594.55,314.26C594.642,314.438 594.735,314.632 594.781,314.826L596.4,314.826L596.4,310.578L594.85,310.578L594.249,311.789L594.064,311.693L593.74,311.515C592.676,310.934 591.843,310.659 590.641,310.481C586.269,309.803 583.123,311.127 582.499,312.872C582.013,314.196 582.776,315.456 584.488,316.166C585.529,316.586 586.084,316.731 586.523,316.78C587.148,316.861 587.772,316.925 588.397,317.022C591.681,317.49 592.607,317.717 593.231,318.007C594.642,318.637 594.735,319.961 593.347,320.72C592.468,321.205 591.196,321.431 589.345,321.221C586.593,320.93 584.789,319.816 584.141,318.12C584.095,317.975 584.048,317.83 584.025,317.684L582.337,317.684L582.337,322.142Z" style="fill:rgb(242,242,242);fill-rule:nonzero;stroke:rgb(242,242,242);stroke-width:0.64px;stroke-linejoin:miter;stroke-miterlimit:2;"/>
                    </g>
                    <g transform="matrix(1,0,0,1,1.22677,0)">
                        <path d="M598.204,316.311C598.181,319.929 601.697,322.448 607.133,322.448C612.522,322.448 616.015,319.978 616.061,316.392C616.084,312.775 612.568,310.255 607.133,310.255C601.743,310.255 598.227,312.726 598.204,316.311ZM601.558,316.311C601.581,313.178 604.126,311.353 607.133,311.353C610.14,311.353 612.684,313.178 612.707,316.311C612.73,317.749 612.245,318.847 611.343,319.768C609.261,321.883 605.005,321.883 602.923,319.768C602.021,318.847 601.535,317.749 601.558,316.311Z" style="fill:rgb(242,242,242);fill-rule:nonzero;stroke:rgb(242,242,242);stroke-width:0.64px;stroke-linejoin:miter;stroke-miterlimit:2;"/>
                    </g>
                    <g transform="matrix(0.938217,0,0,1,39.7014,0)">
                        <path d="M616.917,322.206L624.596,322.206L624.596,321.027L622.653,321.027C622.006,321.027 621.89,320.882 621.89,320.091L621.89,312.968L631.859,322.206L634.612,322.206L634.612,312.694C634.612,312.629 634.612,312.565 634.635,312.5C634.681,311.806 634.728,311.757 635.398,311.773L637.249,311.773L637.249,310.578L630.31,310.578L630.31,311.773L632.253,311.773C632.345,311.773 632.415,311.789 632.507,311.806C632.669,311.87 632.762,311.967 632.785,312.177L632.808,312.5L632.808,319.396L623.301,310.578L616.94,310.578L616.94,311.773L619.138,311.773C619.924,311.838 619.993,311.935 619.993,312.694L619.993,320.365C619.947,320.898 619.785,321.027 619.23,321.027L616.917,321.027L616.917,322.206Z" style="fill:rgb(242,242,242);fill-rule:nonzero;stroke:rgb(242,242,242);stroke-width:0.66px;stroke-linejoin:miter;stroke-miterlimit:2;"/>
                    </g>
                    <g transform="matrix(1,0,0,1,2.07824,0)">
                        <path d="M636.426,311.773L637.48,311.773C638.313,311.838 638.59,311.983 639.284,312.694L643.633,317.264L643.633,320.091C643.633,320.866 643.54,320.963 642.523,321.011C642.453,321.027 642.361,321.027 642.291,321.027L640.533,321.027L640.533,322.206L649.832,322.206L649.832,321.027L648.074,321.027C647.981,321.027 647.889,321.011 647.796,321.011C646.871,320.963 646.779,320.866 646.779,320.091L646.779,317.329L651.22,312.694C651.289,312.613 651.382,312.532 651.451,312.468C652.076,311.886 652.399,311.757 652.955,311.757L653.163,311.773L653.787,311.773L653.787,310.578L647.241,310.578L647.241,311.757L648.837,311.757C648.907,311.757 648.999,311.773 649.069,311.773C649.462,311.806 649.577,311.951 649.416,312.161C649.346,312.274 649.231,312.403 648.953,312.694L646.015,315.875L643.055,312.694C642.846,312.468 642.708,312.306 642.615,312.161C642.453,311.935 642.592,311.806 643.101,311.773L644.882,311.773L644.882,310.578L636.426,310.578L636.426,311.773Z" style="fill:rgb(242,242,242);fill-rule:nonzero;stroke:rgb(242,242,242);stroke-width:0.64px;stroke-linejoin:miter;stroke-miterlimit:2;"/>
                    </g>
                </g>
                <path d="M835.8,306.842C834.937,307.727 834.465,308.794 833.613,309.686C833.598,309.701 833.318,309.442 833.29,309.414C832.946,309.085 832.652,308.702 832.32,308.359C831.399,307.408 830.439,306.141 829.008,306.023C827.94,305.936 826.833,306.356 825.886,306.806C822.932,308.211 821.074,310.807 819.899,313.812C819.45,314.961 819.084,316.42 819.246,317.661C819.662,320.852 822.597,323.207 825.831,322.561C827.588,322.209 829.239,320.973 830.625,319.89C831.128,319.496 831.668,318.813 832.244,318.545C832.322,318.508 832.958,319.353 833.031,319.444C833.595,320.149 834.124,320.895 834.601,321.66C834.739,321.882 834.963,322.502 835.178,322.63C835.595,322.878 836.377,322.64 836.813,322.6C838.185,322.471 839.523,322.662 840.632,321.685C840.774,321.56 841.056,321.383 841.129,321.204C841.344,320.675 840.747,319.896 840.321,319.67C839.551,319.262 838.559,319.807 837.735,319.565C836.401,319.174 835.849,317.163 835.474,316.012C835.35,315.633 835.097,315.137 835.095,314.736C835.092,314.056 836.184,313.322 836.62,312.932C838.086,311.624 838.799,310.211 839.823,308.527C840.023,308.198 840.309,306.847 840.309,306.847C840.309,306.847 838.858,306.681 838.117,306.7C837.359,306.719 836.54,306.675 835.8,306.842ZM831.012,313.973C829.535,316.273 827.566,318.468 824.681,318.903C823.502,319.081 822.773,318.149 822.663,317.062C822.493,315.391 823.15,313.7 823.986,312.283C824.71,311.056 826.124,309.392 827.602,309.133C829.632,308.778 830.642,310.516 831.015,312.251C831.125,312.762 831.138,313.45 831.012,313.973Z" style="fill:rgb(242,242,242);stroke:rgb(242,242,242);stroke-width:1.08px;"/>
            </g>
        </g>
    </g>
</svg>
