<?xml version="1.0" encoding="UTF-8" standalone="no"?>
<!DOCTYPE svg PUBLIC "-//W3C//DTD SVG 1.1//EN" "http://www.w3.org/Graphics/SVG/1.1/DTD/svg11.dtd">
<svg width="100%" height="100%" viewBox="0 0 800 800" version="1.1" xmlns="http://www.w3.org/2000/svg" xmlns:xlink="http://www.w3.org/1999/xlink" xml:space="preserve" xmlns:serif="http://www.serif.com/" style="fill-rule:evenodd;clip-rule:evenodd;stroke-linecap:round;stroke-linejoin:round;stroke-miterlimit:1.5;">
    <rect x="0" y="0" width="800" height="800" style="fill:none;"/>
    <path d="M449.341,544.436L460.041,543.618" style="fill:none;stroke:rgb(242,242,242);stroke-width:3.33px;"/>
    <g transform="matrix(1,0,0,1,0,0.245268)">
        <path d="M460.041,537.977L460.041,548.769" style="fill:none;stroke:rgb(242,242,242);stroke-width:3.33px;"/>
    </g>
    <path d="M352.236,538.599L342.064,540.441L352.152,545.004L341.855,547.348L352.194,551.617" style="fill:none;stroke:rgb(242,242,242);stroke-width:3.33px;"/>
    <path d="M447.148,569.724L403.768,572.677L354.696,570.483L354.696,616.43L404.41,620.143L447.762,616.452L447.148,569.724Z" style="fill:rgb(242,242,242);"/>
    <path d="M322.485,572.124C322.46,569.579 323.503,567.139 325.36,565.399C327.218,563.659 329.72,562.778 332.258,562.97C347.798,564.129 378.612,566.172 402.086,566.134C426.443,566.095 457.283,563.277 471.455,561.839C473.439,561.633 475.416,562.277 476.898,563.611C478.379,564.945 479.226,566.844 479.229,568.838C479.244,580.313 479.269,601.61 479.282,613.297C479.287,618.007 475.822,622.002 471.159,622.662C457.76,624.447 429.766,627.699 402.086,627.879C373.879,628.062 344.313,624.364 330.687,622.401C326.245,621.724 322.948,617.926 322.904,613.433C322.791,602.809 322.601,583.762 322.485,572.124Z" style="fill:none;stroke:rgb(242,242,242);stroke-width:5.56px;"/>
    <g transform="matrix(0.87243,0,0,1.03418,50.2517,-27.1291)">
        <path d="M479.227,569.802C479.244,581.404 479.269,602.152 479.283,613.767C479.288,618.24 475.453,622.059 470.222,622.789C456.486,624.593 429.136,627.703 402.086,627.879C374.474,628.059 345.561,624.518 331.571,622.528C326.594,621.78 322.956,618.146 322.913,613.882C322.796,603.29 322.6,583.695 322.483,571.913" style="fill:none;stroke:rgb(242,242,242);stroke-width:4.65px;"/>
    </g>
    <g transform="matrix(0.698991,0,0,0.768433,120.656,137.655)">
        <path d="M322.515,575.179C322.482,571.863 323.981,568.686 326.647,566.424C329.312,564.161 332.9,563.021 336.534,563.28C352.979,564.461 380.606,566.169 402.086,566.134C424.646,566.097 452.77,563.677 468.057,562.178C470.902,561.895 473.744,562.726 475.875,564.462C478.006,566.199 479.226,568.678 479.229,571.28C479.246,582.321 479.266,599.787 479.279,610.939C479.286,617.038 474.377,622.22 467.745,623.114C453.37,624.938 427.595,627.713 402.086,627.879C375.944,628.049 348.635,624.885 333.93,622.858C327.614,621.941 322.948,617.012 322.89,611.195C322.776,601.27 322.624,586.026 322.515,575.179Z" style="fill:none;stroke:rgb(242,242,242);stroke-width:7.56px;"/>
    </g>
    <path d="M528.457,594.223C528.452,594.504 528.564,594.774 528.767,594.967C528.97,595.161 529.245,595.261 529.525,595.242C529.949,595.215 530.435,595.183 530.868,595.155C531.533,595.111 532.053,594.562 532.059,593.895C532.107,589.041 532.283,570.904 532.283,570.904C532.283,570.904 530.243,560.936 522.629,561.015C515.016,561.093 508.737,567.922 508.659,573.808C508.586,579.266 508.311,596.127 508.271,598.553C508.268,598.758 508.334,598.958 508.46,599.121C509.144,599.938 511.391,602.352 514.074,601.435C516.5,600.607 519.417,599.555 520.706,599.088C521.107,598.942 521.376,598.562 521.38,598.135C521.405,595.553 521.49,586.66 521.519,583.668C521.521,583.422 521.415,583.187 521.228,583.027C521.041,582.866 520.793,582.796 520.55,582.836C520.152,582.9 519.701,582.974 519.336,583.033C518.925,583.1 518.62,583.45 518.611,583.866C518.581,585.272 518.515,588.368 518.485,589.766C518.476,590.195 518.205,590.574 517.803,590.723C516.642,591.152 514.227,592.045 512.696,592.61C512.387,592.724 512.041,592.679 511.771,592.488C511.502,592.298 511.344,591.987 511.349,591.657C511.396,588.475 511.506,580.975 511.547,578.179C511.558,577.417 511.772,576.672 512.168,576.021C513.409,574.035 516.49,569.945 521.217,569.413C525.313,568.952 527.305,570.629 528.195,571.851C528.609,572.429 528.826,573.125 528.814,573.836C528.756,577.238 528.525,590.341 528.457,594.223Z" style="fill:rgb(242,242,242);"/>
    <path d="M500.692,562.101C500.71,560.409 501.528,558.826 502.899,557.833C505.816,555.926 511.351,552.737 518.349,551.272C525.179,549.841 531.517,549.655 535.085,549.697C536.76,549.752 538.099,551.11 538.129,552.786C538.312,562.422 538.855,592.601 539.004,600.928C539.033,602.501 538.432,604.019 537.335,605.146C535.106,607.403 530.481,610.959 522.181,612.926C512.483,615.225 505.157,614.152 501.94,613.416C500.89,613.107 500.173,612.137 500.185,611.042C500.252,602.988 500.591,571.44 500.692,562.101Z" style="fill:none;stroke:rgb(242,242,242);stroke-width:4.44px;"/>
    <path d="M218.186,709.195L218.186,646.311" style="fill:none;stroke:rgb(242,242,242);stroke-width:4.44px;"/>
    <path d="M218.186,646.311L217.283,639.242L210.08,629.179" style="fill:none;stroke:rgb(242,242,242);stroke-width:4.44px;"/>
    <g transform="matrix(1.01803,0,0,0.94898,2.41567,-3.84585)">
        <ellipse cx="389.838" cy="88.569" rx="224.497" ry="79.33" style="fill:none;stroke:rgb(242,242,242);stroke-width:4.52px;"/>
    </g>
    <g transform="matrix(1.47179,0,0,0.94898,-174.477,-24.9563)">
        <path d="M496.841,158.312C465.025,164.425 428.571,167.899 389.838,167.899C351.661,167.899 315.697,164.524 284.207,158.574" style="fill:none;stroke:rgb(242,242,242);stroke-width:3.59px;"/>
    </g>
    <g transform="matrix(1,0,0,1,-0.22251,0.259594)">
        <circle cx="400.99" cy="765.006" r="8.004" style="fill:rgb(242,242,242);"/>
    </g>
    <g transform="matrix(1.05709,0,0,1.05102,-12.8124,19.4959)">
        <path d="M614.335,88.569C614.335,132.352 513.742,167.899 389.838,167.899C265.935,167.899 165.341,132.352 165.341,88.569" style="fill:none;stroke:rgb(242,242,242);stroke-width:4.22px;"/>
    </g>
    <g transform="matrix(1.05709,0,0,1.05102,-12.8124,77.5091)">
        <path d="M614.335,88.569C614.335,132.352 513.742,167.899 389.838,167.899C265.935,167.899 165.341,132.352 165.341,88.569" style="fill:none;stroke:rgb(242,242,242);stroke-width:4.22px;"/>
    </g>
    <g transform="matrix(0.979471,0,0,0.98371,18.5262,127.83)">
        <path d="M614.335,88.569C614.335,132.352 513.742,167.899 389.838,167.899C265.935,167.899 165.341,132.352 165.341,88.569L165.341,165.676C165.341,209.459 265.935,245.005 389.838,245.005C513.742,245.005 614.335,209.459 614.335,165.676L614.335,88.569Z" style="fill:rgb(242,242,242);stroke:rgb(242,242,242);stroke-width:4.53px;"/>
    </g>
    <g transform="matrix(0.962953,0,0,0.941843,24.4324,121.174)">
        <path d="M614.335,88.569C614.335,132.352 513.742,167.899 389.838,167.899C265.935,167.899 165.341,133.249 165.341,89.466" style="fill:none;stroke:rgb(242,242,242);stroke-width:4.67px;"/>
    </g>
    <g transform="matrix(0.979471,0,0,0.98371,18.5262,222.245)">
        <path d="M165.341,88.569L166.443,201.36C166.443,247.323 266.289,284.639 389.273,284.639C512.256,284.639 612.102,247.323 612.102,201.36L614.335,88.569C614.335,132.352 513.742,167.899 389.838,167.899C265.935,167.899 165.341,132.352 165.341,88.569Z" style="fill:rgb(242,242,242);stroke:rgb(242,242,242);stroke-width:4.53px;"/>
    </g>
    <path d="M620.25,309.371C620.25,309.371 619.829,304.277 618.063,301.846" style="fill:none;stroke:rgb(242,242,242);stroke-width:4.44px;"/>
    <path d="M180.473,309.371C180.473,309.371 180.295,305.597 182.788,302.161" style="fill:none;stroke:rgb(242,242,242);stroke-width:4.44px;"/>
    <g transform="matrix(0.951186,0,0,1.10044,29.553,328.234)">
        <path d="M608.023,107.311C584.165,142.062 495.473,167.899 389.838,167.899C284.203,167.899 195.511,142.062 171.653,107.311" style="fill:none;stroke:rgb(242,242,242);stroke-width:4.32px;"/>
    </g>
    <g transform="matrix(0.94392,0,0,1.10044,32.1305,492.08)">
        <path d="M614.335,88.569C614.335,132.352 513.742,167.899 389.838,167.899C265.935,167.899 165.341,132.352 165.341,88.569" style="fill:none;stroke:rgb(242,242,242);stroke-width:4.34px;"/>
    </g>
    <path d="M612.014,589.545L612.014,440.477" style="fill:none;stroke:rgb(242,242,242);stroke-width:4.44px;"/>
    <path d="M188.199,589.545L188.199,441.062" style="fill:none;stroke:rgb(242,242,242);stroke-width:4.44px;"/>
    <g transform="matrix(0.885801,0,0,1.20103,55.0424,502.391)">
        <path d="M599.393,117.065C566.966,146.788 485.324,167.899 389.838,167.899C297.968,167.899 218.912,148.356 184.176,120.404" style="fill:none;stroke:rgb(242,242,242);stroke-width:4.21px;"/>
    </g>
    <g transform="matrix(0.821172,0,0,0.941843,81.5103,625.777)">
        <path d="M614.335,88.569C614.335,132.352 513.742,167.899 389.838,167.899C265.935,167.899 166.439,132.352 166.439,88.569" style="fill:none;stroke:rgb(242,242,242);stroke-width:5.03px;"/>
    </g>
    <g transform="matrix(1.05709,0,0,1.05102,-12.8124,-4.78866)">
        <ellipse cx="389.838" cy="88.569" rx="224.497" ry="79.33" style="fill:none;stroke:rgb(242,242,242);stroke-width:4.22px;"/>
    </g>
    <g transform="matrix(0.991587,0,0,0.94898,13.8032,3.16969)">
        <path d="M614.335,88.569C614.335,93.209 613.206,97.757 611.038,102.179" style="fill:none;stroke:rgb(242,242,242);stroke-width:4.58px;"/>
    </g>
    <g transform="matrix(0.991587,0,0,0.94898,13.8032,3.16969)">
        <path d="M172.849,108.972C167.951,102.461 165.341,95.622 165.341,88.569C165.341,44.786 265.935,9.24 389.838,9.24C513.742,9.24 614.335,44.786 614.335,88.569" style="fill:none;stroke:rgb(242,242,242);stroke-width:4.58px;"/>
    </g>
    <g transform="matrix(0.974663,0,0,0.94898,20.4005,11.2645)">
        <path d="M167.124,98.606C165.947,95.319 165.341,91.969 165.341,88.569C165.341,44.786 265.935,9.24 389.838,9.24C513.742,9.24 614.335,44.786 614.335,88.569C614.335,90.807 614.073,93.023 613.557,95.214" style="fill:none;stroke:rgb(242,242,242);stroke-width:4.62px;"/>
    </g>
    <g transform="matrix(0.965328,0,0,0.94898,24.0396,20.4387)">
        <path d="M165.35,89.3C165.344,89.057 165.341,88.813 165.341,88.569C165.341,44.786 265.935,9.24 389.838,9.24C512.352,9.24 612.076,43.993 614.298,87.099" style="fill:none;stroke:rgb(242,242,242);stroke-width:4.64px;"/>
    </g>
    <g transform="matrix(1.01322,0,0,0.792245,5.36921,103.016)">
        <path d="M235.335,28.397L240.858,29.244C280.505,16.801 332.692,9.24 389.838,9.24C446.654,9.24 498.568,16.714 538.13,29.029L544.037,27.697C544.037,27.697 523.298,-30.784 389.838,-34.311C314.013,-36.315 250.566,-7.418 235.335,28.397Z" style="fill:rgb(242,242,242);fill-opacity:0.82;stroke:rgb(242,242,242);stroke-width:4.89px;"/>
    </g>
    <g transform="matrix(0.779175,0,0,0.753061,96.6095,66.1122)">
        <path d="M165.751,83.738C172.827,42.201 270.525,9.24 389.838,9.24C508.156,9.24 605.218,41.653 613.729,82.7" style="fill:none;stroke:rgb(242,242,242);stroke-width:5.8px;"/>
    </g>
    <g transform="matrix(0.713021,0,0,0.792245,122.399,68.5132)">
        <path d="M165.86,83.135C166.591,79.326 168.084,75.591 170.285,71.948C191.928,36.133 282.066,9.24 389.838,9.24C496.907,9.24 586.57,35.783 608.958,71.247C611.231,74.848 612.811,78.541 613.645,82.308" style="fill:none;stroke:rgb(242,242,242);stroke-width:5.9px;"/>
    </g>
    <path d="M585.986,709.195L585.986,637.745L592.578,627.591" style="fill:none;stroke:rgb(242,242,242);stroke-width:4.44px;"/>
    <path d="M636.577,171.676L636.577,89.379" style="fill:none;stroke:rgb(242,242,242);stroke-width:4.44px;"/>
    <path d="M161.968,170.597L161.968,88.299" style="fill:none;stroke:rgb(242,242,242);stroke-width:4.44px;"/>
    <path d="M620.25,214.957C620.25,214.957 620.362,210.122 618.063,202.931" style="fill:none;stroke:rgb(242,242,242);stroke-width:4.44px;"/>
    <path d="M180.473,214.957C180.473,214.957 180.741,207.761 182.788,204.592" style="fill:none;stroke:rgb(242,242,242);stroke-width:4.44px;"/>
    <path d="M240.669,134.325L295.167,147.228L341.855,153.086L371.53,154.936L418.363,155.227L471.626,151.631L514.131,145.292L533.431,141.143L547.549,137.478L558.081,134.325L559.94,133.726L558.714,129.448L556.599,124.959L531.77,128.07L495.829,131.106L458.216,133.18L419.109,134.376L382.351,134.279L355.024,133.705L318.31,132.095L284.134,129.671L262.386,127.621L249.337,126.184L244.205,124.818L242.114,129.172L240.669,134.325Z" style="fill:rgb(242,242,242);fill-opacity:0.35;"/>
    <path d="M263.94,127.767L250.877,126.184L264.691,122.748L294.343,117.575L322.484,114.122L354.696,111.605L377.592,110.647L402.086,110.337L439.396,111.259L496.803,116.256L520.277,119.78L543.36,124.321L545.198,126.645L519.595,129.099L483.081,131.93L442.639,133.733L420.382,134.225L380.021,134.23L347.045,133.355L306.125,131.337L263.94,127.767Z" style="fill:rgb(242,242,242);fill-opacity:0.62;"/>
</svg>
