<?xml version="1.0" encoding="UTF-8" standalone="no"?>
<!DOCTYPE svg PUBLIC "-//W3C//DTD SVG 1.1//EN" "http://www.w3.org/Graphics/SVG/1.1/DTD/svg11.dtd">
<svg width="100%" height="100%" viewBox="0 0 50 50" version="1.1" xmlns="http://www.w3.org/2000/svg" xmlns:xlink="http://www.w3.org/1999/xlink" xml:space="preserve" xmlns:serif="http://www.serif.com/" style="fill-rule:evenodd;clip-rule:evenodd;stroke-linejoin:round;stroke-miterlimit:2;">
    <g id="Layer1">
    </g>
    <g id="c--4.svg" transform="matrix(0.019079,0,0,0.019079,25,25)">
        <g transform="matrix(1,0,0,1,-1111,-1250)">
            <g>
                <path d="M1749.56,1014.47L1749.56,1130.58L1865.68,1130.58L1865.68,1014.47L1923.73,1014.47L1923.73,1130.58L2039.84,1130.58L2039.84,1188.63L1923.73,1188.63L1923.73,1304.74L2039.84,1304.74L2039.84,1362.79L1923.73,1362.79L1923.73,1478.91L1865.68,1478.91L1865.68,1362.79L1749.56,1362.79L1749.56,1478.91L1691.51,1478.91L1691.51,1362.79L1575.4,1362.79L1575.4,1304.74L1691.51,1304.74L1691.51,1188.63L1575.4,1188.63L1575.4,1130.58L1691.51,1130.58L1691.51,1014.47L1749.56,1014.47ZM1865.68,1188.63L1749.56,1188.63L1749.56,1304.74L1865.68,1304.74L1865.68,1188.63Z" style="fill:white;fill-rule:nonzero;"/>
                <path d="M1116.74,431.339C1419.59,431.339 1684,595.813 1825.63,840.291L1824.25,837.938L1467.92,1043.1C1397.72,924.242 1269.03,844.022 1121.38,842.367L1116.73,842.341C891.599,842.341 709.081,1024.86 709.081,1249.99C709.007,1320.94 727.548,1390.69 762.845,1452.24C833.112,1574.91 965.209,1657.65 1116.74,1657.65C1269.21,1657.65 1402.06,1573.86 1471.96,1449.88L1470.26,1452.86L1826.05,1658.97C1685.98,1901.38 1425.18,2065.34 1125.86,2068.61L1116.74,2068.66C812.93,2068.66 547.77,1903.17 406.495,1657.4C337.529,1537.42 298.07,1398.32 298.07,1249.99C298.07,797.867 664.589,431.331 1116.73,431.331L1116.74,431.339Z" style="fill:white;fill-rule:nonzero;"/>
            </g>
        </g>
    </g>
</svg>
